<svg width="3840" height="2160" viewBox="0 0 3840 2160" fill="none" xmlns="http://www.w3.org/2000/svg">
<rect width="3840" height="2160" fill="url(#paint0_linear)"/>
<circle cx="387" cy="383" r="350" fill="url(#paint1_linear)"/>
<circle cx="919" cy="763" r="200" fill="url(#paint2_linear)"/>
<circle cx="1994" cy="1888" r="150" fill="url(#paint3_linear)"/>
<circle cx="2197" cy="1432" r="250" fill="url(#paint4_linear)"/>
<circle cx="2569" cy="1857" r="225" fill="url(#paint5_linear)"/>
<circle cx="883" cy="156" r="125" fill="url(#paint6_linear)"/>
<circle cx="1000" cy="1363" r="125" fill="url(#paint7_linear)"/>
<circle cx="542" cy="926" r="100" fill="url(#paint8_linear)"/>
<circle cx="1573" cy="338" r="275" fill="url(#paint9_linear)"/>
<circle cx="2689" cy="1073" r="275" fill="url(#paint10_linear)"/>
<circle cx="3080" cy="288" r="200" fill="url(#paint11_linear)"/>
<circle cx="858" cy="1807" r="275" fill="url(#paint12_linear)"/>
<circle cx="3139" cy="749" r="175" fill="url(#paint13_linear)"/>
<circle cx="2069" cy="138" r="75" fill="url(#paint14_linear)"/>
<circle cx="833" cy="470" r="50" fill="url(#paint15_linear)"/>
<circle cx="2469" cy="446" r="325" fill="url(#paint16_linear)"/>
<circle cx="1529" cy="1080" r="375" fill="url(#paint17_linear)"/>
<circle cx="243" cy="1119" r="150" fill="url(#paint18_linear)"/>
<circle cx="1358" cy="1657" r="150" fill="url(#paint19_linear)"/>
<circle cx="1109" cy="399" r="150" fill="url(#paint20_linear)"/>
<circle cx="3634" cy="1055" r="150" fill="url(#paint21_linear)"/>
<circle cx="3314" cy="1657" r="150" fill="url(#paint22_linear)"/>
<circle cx="3645" cy="1888" r="50" fill="url(#paint23_linear)"/>
<circle cx="2597" cy="1497" r="50" fill="url(#paint24_linear)"/>
<circle cx="1994" cy="396" r="50" fill="url(#paint25_linear)"/>
<circle cx="3561" cy="1373" r="50" fill="url(#paint26_linear)"/>
<circle cx="3076" cy="1040" r="50" fill="url(#paint27_linear)"/>
<circle cx="3346" cy="969" r="50" fill="url(#paint28_linear)"/>
<circle cx="998" cy="1090" r="50" fill="url(#paint29_linear)"/>
<circle cx="236" cy="851" r="50" fill="url(#paint30_linear)"/>
<circle cx="3416" cy="463" r="50" fill="url(#paint31_linear)"/>
<circle cx="2926" cy="1532" r="150" fill="url(#paint32_linear)"/>
<circle cx="1994" cy="705" r="150" fill="url(#paint33_linear)"/>
<circle cx="3438" cy="170" r="100" fill="url(#paint34_linear)"/>
<circle cx="1715" cy="1622" r="75" fill="url(#paint35_linear)"/>
<circle cx="568" cy="1372" r="175" fill="url(#paint36_linear)"/>
<circle cx="186" cy="1488" r="75" fill="url(#paint37_linear)"/>
<circle cx="1608" cy="1913" r="75" fill="url(#paint38_linear)"/>
<circle cx="2776" cy="107" r="75" fill="url(#paint39_linear)"/>
<circle cx="1200" cy="122" r="75" fill="url(#paint40_linear)"/>
<circle cx="367" cy="1697" r="75" fill="url(#paint41_linear)"/>
<circle cx="2984" cy="1938" r="100" fill="url(#paint42_linear)"/>
<circle cx="1269" cy="643" r="50" fill="url(#paint43_linear)"/>
<circle cx="3526" cy="726" r="100" fill="url(#paint44_linear)"/>
<circle cx="3660" cy="1597" r="100" fill="url(#paint45_linear)"/>
<circle cx="3684" cy="413" r="100" fill="url(#paint46_linear)"/>
<circle cx="3246" cy="1223" r="150" fill="url(#paint47_linear)"/>
<circle cx="758" cy="1120" r="75" fill="url(#paint48_linear)"/>
<circle cx="1328" cy="2008" r="50" fill="url(#paint49_linear)"/>
<circle cx="2851" cy="655" r="50" fill="url(#paint50_linear)"/>
<circle cx="192" cy="1913" r="100" fill="url(#paint51_linear)"/>
<circle cx="452" cy="2000" r="50" fill="url(#paint52_linear)"/>
<circle cx="2170" cy="999" r="100" fill="url(#paint53_linear)"/>
<path d="M1529 1230C1611.84 1230 1679 1162.84 1679 1080C1679 997.157 1611.84 930 1529 930C1446.16 930 1379 997.157 1379 1080C1379 1162.84 1446.16 1230 1529 1230Z" fill="white"/>
<path d="M1450.21 1001.21H1607.79V1158.79H1450.21V1001.21Z" fill="url(#paint54_linear)"/>
<path d="M1417.57 1080L1529 968.572L1640.43 1080L1529 1191.43L1417.57 1080Z" fill="url(#paint55_linear)"/>
<path d="M1529 1140C1562.14 1140 1589 1113.14 1589 1080C1589 1046.86 1562.14 1020 1529 1020C1495.86 1020 1469 1046.86 1469 1080C1469 1113.14 1495.86 1140 1529 1140Z" fill="white"/>
<path d="M1832.26 1132.2H1820.2V1115.46C1811.44 1127.22 1800.22 1133.1 1786.54 1133.1C1778.26 1133.1 1770.64 1131.06 1763.68 1126.98C1756.72 1122.9 1751.2 1117.38 1747.12 1110.42C1743.04 1103.34 1741 1095.72 1741 1087.56C1741 1079.4 1743.04 1071.84 1747.12 1064.88C1751.2 1057.8 1756.72 1052.22 1763.68 1048.14C1770.64 1044.06 1778.26 1042.02 1786.54 1042.02C1800.7 1042.02 1811.92 1047.6 1820.2 1058.76V1012.68H1832.26V1132.2ZM1819.84 1087.56C1819.84 1081.56 1818.34 1076.04 1815.34 1071C1812.34 1065.96 1808.26 1061.94 1803.1 1058.94C1798.06 1055.94 1792.54 1054.44 1786.54 1054.44C1780.54 1054.44 1775.02 1055.94 1769.98 1058.94C1764.94 1061.94 1760.92 1065.96 1757.92 1071C1754.92 1076.04 1753.42 1081.56 1753.42 1087.56C1753.42 1093.56 1754.92 1099.14 1757.92 1104.3C1760.92 1109.34 1764.94 1113.36 1769.98 1116.36C1775.02 1119.36 1780.54 1120.86 1786.54 1120.86C1792.54 1120.86 1798.06 1119.36 1803.1 1116.36C1808.26 1113.36 1812.34 1109.34 1815.34 1104.3C1818.34 1099.14 1819.84 1093.56 1819.84 1087.56ZM1943.44 1044.54V1132.2H1931.02V1115.64C1922.74 1127.28 1911.7 1133.1 1897.9 1133.1C1889.62 1133.1 1882 1131.12 1875.04 1127.16C1868.08 1123.08 1862.56 1117.56 1858.48 1110.6C1854.52 1103.64 1852.54 1096.08 1852.54 1087.92C1852.54 1079.64 1854.52 1072.02 1858.48 1065.06C1862.56 1058.1 1868.08 1052.64 1875.04 1048.68C1882 1044.6 1889.62 1042.56 1897.9 1042.56C1906.42 1042.56 1913.38 1044.36 1918.78 1047.96C1924.3 1051.44 1928.38 1055.22 1931.02 1059.3V1044.54H1943.44ZM1897.9 1120.86C1903.9 1120.86 1909.42 1119.42 1914.46 1116.54C1919.5 1113.54 1923.46 1109.52 1926.34 1104.48C1929.34 1099.44 1930.84 1093.92 1930.84 1087.92C1930.84 1081.92 1929.34 1076.4 1926.34 1071.36C1923.46 1066.2 1919.5 1062.18 1914.46 1059.3C1909.42 1056.3 1903.9 1054.8 1897.9 1054.8C1891.9 1054.8 1886.32 1056.3 1881.16 1059.3C1876.12 1062.18 1872.1 1066.2 1869.1 1071.36C1866.22 1076.4 1864.78 1081.92 1864.78 1087.92C1864.78 1093.92 1866.22 1099.44 1869.1 1104.48C1872.1 1109.52 1876.12 1113.54 1881.16 1116.54C1886.32 1119.42 1891.9 1120.86 1897.9 1120.86ZM2001.35 1041.48C2007.83 1041.48 2013.77 1043.1 2019.17 1046.34C2024.69 1049.46 2029.01 1053.78 2032.13 1059.3C2035.37 1064.7 2036.99 1070.64 2036.99 1077.12V1132.2H2024.57V1077.12C2024.57 1072.92 2023.49 1069.02 2021.33 1065.42C2019.29 1061.82 2016.47 1059 2012.87 1056.96C2009.39 1054.8 2005.55 1053.72 2001.35 1053.72C1997.15 1053.72 1993.25 1054.8 1989.65 1056.96C1986.05 1059 1983.17 1061.82 1981.01 1065.42C1978.97 1069.02 1977.95 1072.92 1977.95 1077.12V1132.2H1965.53V1012.14H1977.95V1051.56C1980.83 1048.2 1984.25 1045.68 1988.21 1044C1992.29 1042.32 1996.67 1041.48 2001.35 1041.48ZM2071.39 1012.5V1132.2H2059.15V1012.5H2071.39ZM2101.62 1017.18C2103.78 1017.18 2105.64 1017.96 2107.2 1019.52C2108.76 1021.08 2109.54 1022.94 2109.54 1025.1C2109.54 1027.38 2108.76 1029.3 2107.2 1030.86C2105.64 1032.42 2103.78 1033.2 2101.62 1033.2C2099.34 1033.2 2097.42 1032.42 2095.86 1030.86C2094.3 1029.3 2093.52 1027.38 2093.52 1025.1C2093.52 1022.94 2094.3 1021.08 2095.86 1019.52C2097.42 1017.96 2099.34 1017.18 2101.62 1017.18ZM2107.74 1042.2V1132.2H2095.32V1042.2H2107.74ZM2215.41 1044.54V1132.2H2202.99V1115.64C2194.71 1127.28 2183.67 1133.1 2169.87 1133.1C2161.59 1133.1 2153.97 1131.12 2147.01 1127.16C2140.05 1123.08 2134.53 1117.56 2130.45 1110.6C2126.49 1103.64 2124.51 1096.08 2124.51 1087.92C2124.51 1079.64 2126.49 1072.02 2130.45 1065.06C2134.53 1058.1 2140.05 1052.64 2147.01 1048.68C2153.97 1044.6 2161.59 1042.56 2169.87 1042.56C2178.39 1042.56 2185.35 1044.36 2190.75 1047.96C2196.27 1051.44 2200.35 1055.22 2202.99 1059.3V1044.54H2215.41ZM2169.87 1120.86C2175.87 1120.86 2181.39 1119.42 2186.43 1116.54C2191.47 1113.54 2195.43 1109.52 2198.31 1104.48C2201.31 1099.44 2202.81 1093.92 2202.81 1087.92C2202.81 1081.92 2201.31 1076.4 2198.31 1071.36C2195.43 1066.2 2191.47 1062.18 2186.43 1059.3C2181.39 1056.3 2175.87 1054.8 2169.87 1054.8C2163.87 1054.8 2158.29 1056.3 2153.13 1059.3C2148.09 1062.18 2144.07 1066.2 2141.07 1071.36C2138.19 1076.4 2136.75 1081.92 2136.75 1087.92C2136.75 1093.92 2138.19 1099.44 2141.07 1104.48C2144.07 1109.52 2148.09 1113.54 2153.13 1116.54C2158.29 1119.42 2163.87 1120.86 2169.87 1120.86ZM2295.64 1133.1C2284.72 1133.1 2274.7 1130.4 2265.58 1125C2256.46 1119.6 2249.2 1112.34 2243.8 1103.22C2238.4 1094.1 2235.7 1084.08 2235.7 1073.16C2235.7 1062.24 2238.4 1052.22 2243.8 1043.1C2249.2 1033.86 2256.46 1026.54 2265.58 1021.14C2274.82 1015.74 2284.84 1013.04 2295.64 1013.04C2306.44 1013.04 2316.46 1015.74 2325.7 1021.14C2334.94 1026.54 2342.26 1033.86 2347.66 1043.1C2353.06 1052.34 2355.76 1062.36 2355.76 1073.16C2355.76 1083.96 2353.06 1093.98 2347.66 1103.22C2342.26 1112.34 2334.94 1119.6 2325.7 1125C2316.58 1130.4 2306.56 1133.1 2295.64 1133.1ZM2295.64 1120.86C2304.28 1120.86 2312.26 1118.76 2319.58 1114.56C2326.9 1110.24 2332.66 1104.42 2336.86 1097.1C2341.18 1089.78 2343.34 1081.8 2343.34 1073.16C2343.34 1064.52 2341.18 1056.54 2336.86 1049.22C2332.66 1041.9 2326.9 1036.14 2319.58 1031.94C2312.26 1027.62 2304.28 1025.46 2295.64 1025.46C2287 1025.46 2279.02 1027.62 2271.7 1031.94C2264.38 1036.14 2258.56 1041.9 2254.24 1049.22C2250.04 1056.54 2247.94 1064.52 2247.94 1073.16C2247.94 1081.8 2250.04 1089.78 2254.24 1097.1C2258.56 1104.42 2264.38 1110.24 2271.7 1114.56C2279.02 1118.76 2287 1120.86 2295.64 1120.86ZM2439.92 1047.24C2439.32 1042.68 2437.88 1038.72 2435.6 1035.36C2430.92 1028.16 2423.18 1024.56 2412.38 1024.56C2403.38 1024.56 2396.84 1026.6 2392.76 1030.68C2389.04 1034.52 2387.18 1039.74 2387.18 1046.34C2387.18 1053.66 2389.22 1058.7 2393.3 1061.46C2397.38 1064.22 2403.08 1065.9 2410.4 1066.5C2417.36 1067.1 2423.24 1068.06 2428.04 1069.38C2432.84 1070.58 2436.86 1072.26 2440.1 1074.42C2448.62 1079.7 2452.88 1087.98 2452.88 1099.26C2452.88 1103.7 2451.98 1107.9 2450.18 1111.86C2448.5 1115.82 2446.04 1119.36 2442.8 1122.48C2435.48 1129.68 2425.46 1133.28 2412.74 1133.28C2399.9 1133.28 2389.76 1129.74 2382.32 1122.66C2375.96 1116.78 2372.12 1108.86 2370.8 1098.9H2383.22C2384.3 1104.9 2386.82 1109.82 2390.78 1113.66C2395.94 1118.46 2403.32 1120.86 2412.92 1120.86C2421.08 1120.86 2427.68 1118.88 2432.72 1114.92C2437.88 1110.84 2440.46 1105.62 2440.46 1099.26C2440.46 1095.18 2439.62 1091.82 2437.94 1089.18C2436.38 1086.42 2433.32 1084.2 2428.76 1082.52C2424.2 1080.84 2417.72 1079.64 2409.32 1078.92C2386.28 1076.88 2374.76 1066.02 2374.76 1046.34C2374.76 1041.42 2375.54 1036.92 2377.1 1032.84C2378.78 1028.64 2381.12 1025.04 2384.12 1022.04C2390.72 1015.44 2400.08 1012.14 2412.2 1012.14H2412.38C2424.74 1012.26 2434.16 1015.68 2440.64 1022.4C2447.24 1029 2451.14 1037.34 2452.34 1047.42H2439.92V1047.24Z" fill="white"/>
<path d="M1832.26 1132.2V1134H1834.06V1132.2H1832.26ZM1820.2 1132.2H1818.4V1134H1820.2V1132.2ZM1820.2 1115.46H1822V1110.03L1818.76 1114.38L1820.2 1115.46ZM1763.68 1126.98L1764.59 1125.43L1763.68 1126.98ZM1747.12 1110.42L1745.56 1111.32L1745.56 1111.32L1745.57 1111.33L1747.12 1110.42ZM1747.12 1064.88L1748.67 1065.79L1748.68 1065.78L1748.68 1065.78L1747.12 1064.88ZM1763.68 1048.14L1764.59 1049.69L1763.68 1048.14ZM1820.2 1058.76L1818.75 1059.83L1822 1064.21V1058.76H1820.2ZM1820.2 1012.68V1010.88H1818.4V1012.68H1820.2ZM1832.26 1012.68H1834.06V1010.88H1832.26V1012.68ZM1815.34 1071L1813.79 1071.92L1815.34 1071ZM1803.1 1058.94L1802.18 1060.49L1802.19 1060.49L1802.2 1060.5L1803.1 1058.94ZM1769.98 1058.94L1770.9 1060.49L1769.98 1058.94ZM1757.92 1071L1759.47 1071.92L1757.92 1071ZM1757.92 1104.3L1756.36 1105.2L1756.37 1105.21L1756.37 1105.22L1757.92 1104.3ZM1769.98 1116.36L1769.06 1117.91L1769.98 1116.36ZM1803.1 1116.36L1802.2 1114.8L1802.19 1114.81L1802.18 1114.81L1803.1 1116.36ZM1815.34 1104.3L1816.89 1105.22L1816.89 1105.21L1816.9 1105.2L1815.34 1104.3ZM1832.26 1130.4H1820.2V1134H1832.26V1130.4ZM1822 1132.2V1115.46H1818.4V1132.2H1822ZM1818.76 1114.38C1810.31 1125.73 1799.61 1131.3 1786.54 1131.3V1134.9C1800.83 1134.9 1812.57 1128.71 1821.64 1116.54L1818.76 1114.38ZM1786.54 1131.3C1778.57 1131.3 1771.27 1129.34 1764.59 1125.43L1762.77 1128.53C1770.01 1132.78 1777.95 1134.9 1786.54 1134.9V1131.3ZM1764.59 1125.43C1757.9 1121.5 1752.6 1116.2 1748.67 1109.51L1745.57 1111.33C1749.8 1118.56 1755.54 1124.3 1762.77 1128.53L1764.59 1125.43ZM1748.68 1109.52C1744.76 1102.71 1742.8 1095.4 1742.8 1087.56H1739.2C1739.2 1096.04 1741.32 1103.97 1745.56 1111.32L1748.68 1109.52ZM1742.8 1087.56C1742.8 1079.72 1744.76 1072.47 1748.67 1065.79L1745.57 1063.97C1741.32 1071.21 1739.2 1079.08 1739.2 1087.56H1742.8ZM1748.68 1065.78C1752.61 1058.97 1757.9 1053.61 1764.59 1049.69L1762.77 1046.59C1755.54 1050.83 1749.79 1056.63 1745.56 1063.98L1748.68 1065.78ZM1764.59 1049.69C1771.27 1045.78 1778.57 1043.82 1786.54 1043.82V1040.22C1777.95 1040.22 1770.01 1042.34 1762.77 1046.59L1764.59 1049.69ZM1786.54 1043.82C1800.14 1043.82 1810.82 1049.14 1818.75 1059.83L1821.65 1057.69C1813.02 1046.06 1801.26 1040.22 1786.54 1040.22V1043.82ZM1822 1058.76V1012.68H1818.4V1058.76H1822ZM1820.2 1014.48H1832.26V1010.88H1820.2V1014.48ZM1830.46 1012.68V1132.2H1834.06V1012.68H1830.46ZM1821.64 1087.56C1821.64 1081.24 1820.06 1075.4 1816.89 1070.08L1813.79 1071.92C1816.62 1076.68 1818.04 1081.88 1818.04 1087.56H1821.64ZM1816.89 1070.08C1813.73 1064.77 1809.42 1060.53 1804 1057.38L1802.2 1060.5C1807.1 1063.35 1810.95 1067.15 1813.79 1071.92L1816.89 1070.08ZM1804.02 1057.39C1798.7 1054.22 1792.86 1052.64 1786.54 1052.64V1056.24C1792.22 1056.24 1797.42 1057.66 1802.18 1060.49L1804.02 1057.39ZM1786.54 1052.64C1780.22 1052.64 1774.38 1054.22 1769.06 1057.39L1770.9 1060.49C1775.66 1057.66 1780.86 1056.24 1786.54 1056.24V1052.64ZM1769.06 1057.39C1763.76 1060.55 1759.53 1064.78 1756.37 1070.08L1759.47 1071.92C1762.31 1067.14 1766.12 1063.33 1770.9 1060.49L1769.06 1057.39ZM1756.37 1070.08C1753.2 1075.4 1751.62 1081.24 1751.62 1087.56H1755.22C1755.22 1081.88 1756.64 1076.68 1759.47 1071.92L1756.37 1070.08ZM1751.62 1087.56C1751.62 1093.88 1753.2 1099.77 1756.36 1105.2L1759.48 1103.4C1756.64 1098.51 1755.22 1093.24 1755.22 1087.56H1751.62ZM1756.37 1105.22C1759.53 1110.52 1763.76 1114.75 1769.06 1117.91L1770.9 1114.81C1766.12 1111.97 1762.31 1108.16 1759.47 1103.38L1756.37 1105.22ZM1769.06 1117.91C1774.38 1121.08 1780.22 1122.66 1786.54 1122.66V1119.06C1780.86 1119.06 1775.66 1117.64 1770.9 1114.81L1769.06 1117.91ZM1786.54 1122.66C1792.86 1122.66 1798.7 1121.08 1804.02 1117.91L1802.18 1114.81C1797.42 1117.64 1792.22 1119.06 1786.54 1119.06V1122.66ZM1804 1117.92C1809.42 1114.77 1813.73 1110.53 1816.89 1105.22L1813.79 1103.38C1810.95 1108.15 1807.1 1111.95 1802.2 1114.8L1804 1117.92ZM1816.9 1105.2C1820.06 1099.77 1821.64 1093.88 1821.64 1087.56H1818.04C1818.04 1093.24 1816.62 1098.51 1813.78 1103.4L1816.9 1105.2ZM1943.44 1044.54H1945.24V1042.74H1943.44V1044.54ZM1943.44 1132.2V1134H1945.24V1132.2H1943.44ZM1931.02 1132.2H1929.22V1134H1931.02V1132.2ZM1931.02 1115.64H1932.82V1110L1929.56 1114.6L1931.02 1115.64ZM1875.04 1127.16L1874.13 1128.71L1874.14 1128.72L1874.15 1128.72L1875.04 1127.16ZM1858.48 1110.6L1856.92 1111.49L1856.92 1111.5L1856.93 1111.51L1858.48 1110.6ZM1858.48 1065.06L1856.93 1064.15L1856.92 1064.16L1856.92 1064.17L1858.48 1065.06ZM1875.04 1048.68L1875.93 1050.24L1875.94 1050.24L1875.95 1050.23L1875.04 1048.68ZM1918.78 1047.96L1917.78 1049.46L1917.8 1049.47L1917.82 1049.48L1918.78 1047.96ZM1931.02 1059.3L1929.51 1060.28L1932.82 1065.4V1059.3H1931.02ZM1931.02 1044.54V1042.74H1929.22V1044.54H1931.02ZM1914.46 1116.54L1915.36 1118.1L1915.37 1118.1L1915.38 1118.09L1914.46 1116.54ZM1926.34 1104.48L1924.8 1103.56L1924.79 1103.57L1924.78 1103.59L1926.34 1104.48ZM1926.34 1071.36L1924.77 1072.24L1924.78 1072.26L1924.8 1072.28L1926.34 1071.36ZM1914.46 1059.3L1913.54 1060.85L1913.56 1060.85L1913.57 1060.86L1914.46 1059.3ZM1881.16 1059.3L1882.06 1060.86L1882.06 1060.86L1882.07 1060.86L1881.16 1059.3ZM1869.1 1071.36L1867.55 1070.46L1867.54 1070.46L1867.54 1070.47L1869.1 1071.36ZM1869.1 1104.48L1867.54 1105.37L1867.55 1105.39L1867.56 1105.4L1869.1 1104.48ZM1881.16 1116.54L1880.24 1118.09L1880.26 1118.1L1880.29 1118.11L1881.16 1116.54ZM1941.64 1044.54V1132.2H1945.24V1044.54H1941.64ZM1943.44 1130.4H1931.02V1134H1943.44V1130.4ZM1932.82 1132.2V1115.64H1929.22V1132.2H1932.82ZM1929.56 1114.6C1921.6 1125.78 1911.1 1131.3 1897.9 1131.3V1134.9C1912.31 1134.9 1923.89 1128.78 1932.49 1116.68L1929.56 1114.6ZM1897.9 1131.3C1889.92 1131.3 1882.61 1129.4 1875.93 1125.6L1874.15 1128.72C1881.39 1132.84 1889.32 1134.9 1897.9 1134.9V1131.3ZM1875.95 1125.61C1869.26 1121.68 1863.96 1116.38 1860.04 1109.69L1856.93 1111.51C1861.17 1118.74 1866.91 1124.48 1874.13 1128.71L1875.95 1125.61ZM1860.05 1109.71C1856.24 1103.03 1854.34 1095.77 1854.34 1087.92H1850.74C1850.74 1096.39 1852.8 1104.25 1856.92 1111.49L1860.05 1109.71ZM1854.34 1087.92C1854.34 1079.94 1856.25 1072.63 1860.05 1065.95L1856.92 1064.17C1852.8 1071.41 1850.74 1079.34 1850.74 1087.92H1854.34ZM1860.04 1065.97C1863.96 1059.28 1869.25 1054.05 1875.93 1050.24L1874.15 1047.12C1866.92 1051.23 1861.17 1056.92 1856.93 1064.15L1860.04 1065.97ZM1875.95 1050.23C1882.63 1046.32 1889.93 1044.36 1897.9 1044.36V1040.76C1889.31 1040.76 1881.38 1042.88 1874.13 1047.13L1875.95 1050.23ZM1897.9 1044.36C1906.18 1044.36 1912.76 1046.11 1917.78 1049.46L1919.78 1046.46C1914.01 1042.61 1906.67 1040.76 1897.9 1040.76V1044.36ZM1917.82 1049.48C1923.19 1052.87 1927.05 1056.48 1929.51 1060.28L1932.53 1058.32C1929.71 1053.96 1925.41 1050.01 1919.74 1046.44L1917.82 1049.48ZM1932.82 1059.3V1044.54H1929.22V1059.3H1932.82ZM1931.02 1046.34H1943.44V1042.74H1931.02V1046.34ZM1897.9 1122.66C1904.2 1122.66 1910.03 1121.14 1915.36 1118.1L1913.57 1114.98C1908.81 1117.7 1903.6 1119.06 1897.9 1119.06V1122.66ZM1915.38 1118.09C1920.69 1114.93 1924.87 1110.69 1927.91 1105.37L1924.78 1103.59C1922.06 1108.35 1918.32 1112.15 1913.54 1114.99L1915.38 1118.09ZM1927.89 1105.4C1931.06 1100.08 1932.64 1094.24 1932.64 1087.92H1929.04C1929.04 1093.6 1927.63 1098.8 1924.8 1103.56L1927.89 1105.4ZM1932.64 1087.92C1932.64 1081.6 1931.06 1075.76 1927.89 1070.44L1924.8 1072.28C1927.63 1077.04 1929.04 1082.24 1929.04 1087.92H1932.64ZM1927.91 1070.48C1924.88 1065.04 1920.69 1060.78 1915.36 1057.74L1913.57 1060.86C1918.32 1063.58 1922.05 1067.36 1924.77 1072.24L1927.91 1070.48ZM1915.38 1057.75C1910.06 1054.58 1904.22 1053 1897.9 1053V1056.6C1903.59 1056.6 1908.79 1058.02 1913.54 1060.85L1915.38 1057.75ZM1897.9 1053C1891.59 1053 1885.69 1054.58 1880.26 1057.74L1882.07 1060.86C1886.95 1058.02 1892.22 1056.6 1897.9 1056.6V1053ZM1880.27 1057.74C1874.95 1060.78 1870.7 1065.03 1867.55 1070.46L1870.66 1072.26C1873.5 1067.37 1877.3 1063.58 1882.06 1060.86L1880.27 1057.74ZM1867.54 1070.47C1864.5 1075.79 1862.98 1081.62 1862.98 1087.92H1866.58C1866.58 1082.22 1867.95 1077.01 1870.67 1072.25L1867.54 1070.47ZM1862.98 1087.92C1862.98 1094.22 1864.5 1100.05 1867.54 1105.37L1870.67 1103.59C1867.95 1098.83 1866.58 1093.62 1866.58 1087.92H1862.98ZM1867.56 1105.4C1870.71 1110.7 1874.94 1114.93 1880.24 1118.09L1882.08 1114.99C1877.3 1112.15 1873.5 1108.34 1870.65 1103.56L1867.56 1105.4ZM1880.29 1118.11C1885.72 1121.14 1891.6 1122.66 1897.9 1122.66V1119.06C1892.2 1119.06 1886.93 1117.7 1882.04 1114.97L1880.29 1118.11ZM2019.17 1046.34L2018.25 1047.88L2018.27 1047.9L2018.29 1047.91L2019.17 1046.34ZM2032.13 1059.3L2030.57 1060.19L2030.58 1060.21L2030.59 1060.23L2032.13 1059.3ZM2036.99 1132.2V1134H2038.79V1132.2H2036.99ZM2024.57 1132.2H2022.77V1134H2024.57V1132.2ZM2021.33 1065.42L2019.77 1066.31L2019.78 1066.33L2019.79 1066.35L2021.33 1065.42ZM2012.87 1056.96L2011.92 1058.49L2011.95 1058.51L2011.99 1058.53L2012.87 1056.96ZM1989.65 1056.96L1990.54 1058.53L1990.56 1058.52L1990.58 1058.5L1989.65 1056.96ZM1981.01 1065.42L1979.47 1064.49L1979.46 1064.51L1979.45 1064.53L1981.01 1065.42ZM1977.95 1132.2V1134H1979.75V1132.2H1977.95ZM1965.53 1132.2H1963.73V1134H1965.53V1132.2ZM1965.53 1012.14V1010.34H1963.73V1012.14H1965.53ZM1977.95 1012.14H1979.75V1010.34H1977.95V1012.14ZM1977.95 1051.56H1976.15V1056.43L1979.32 1052.73L1977.95 1051.56ZM1988.21 1044L1987.53 1042.34L1987.52 1042.34L1987.51 1042.34L1988.21 1044ZM2001.35 1043.28C2007.52 1043.28 2013.14 1044.82 2018.25 1047.88L2020.1 1044.8C2014.41 1041.38 2008.15 1039.68 2001.35 1039.68V1043.28ZM2018.29 1047.91C2023.52 1050.87 2027.61 1054.95 2030.57 1060.19L2033.7 1058.41C2030.42 1052.61 2025.86 1048.05 2020.06 1044.77L2018.29 1047.91ZM2030.59 1060.23C2033.66 1065.34 2035.19 1070.96 2035.19 1077.12H2038.79C2038.79 1070.32 2037.09 1064.06 2033.68 1058.37L2030.59 1060.23ZM2035.19 1077.12V1132.2H2038.79V1077.12H2035.19ZM2036.99 1130.4H2024.57V1134H2036.99V1130.4ZM2026.37 1132.2V1077.12H2022.77V1132.2H2026.37ZM2026.37 1077.12C2026.37 1072.59 2025.2 1068.37 2022.88 1064.49L2019.79 1066.35C2021.78 1069.67 2022.77 1073.25 2022.77 1077.12H2026.37ZM2022.9 1064.53C2020.7 1060.65 2017.64 1057.59 2013.76 1055.39L2011.99 1058.53C2015.3 1060.41 2017.89 1062.99 2019.77 1066.31L2022.9 1064.53ZM2013.82 1055.43C2010.05 1053.09 2005.88 1051.92 2001.35 1051.92V1055.52C2005.23 1055.52 2008.74 1056.51 2011.92 1058.49L2013.82 1055.43ZM2001.35 1051.92C1996.83 1051.92 1992.61 1053.09 1988.73 1055.42L1990.58 1058.5C1993.9 1056.51 1997.48 1055.52 2001.35 1055.52V1051.92ZM1988.77 1055.39C1984.89 1057.59 1981.79 1060.63 1979.47 1064.49L1982.56 1066.35C1984.56 1063.01 1987.21 1060.41 1990.54 1058.53L1988.77 1055.39ZM1979.45 1064.53C1977.25 1068.41 1976.15 1072.61 1976.15 1077.12H1979.75C1979.75 1073.23 1980.69 1069.63 1982.58 1066.31L1979.45 1064.53ZM1976.15 1077.12V1132.2H1979.75V1077.12H1976.15ZM1977.95 1130.4H1965.53V1134H1977.95V1130.4ZM1967.33 1132.2V1012.14H1963.73V1132.2H1967.33ZM1965.53 1013.94H1977.95V1010.34H1965.53V1013.94ZM1976.15 1012.14V1051.56H1979.75V1012.14H1976.15ZM1979.32 1052.73C1982.02 1049.58 1985.22 1047.23 1988.92 1045.66L1987.51 1042.34C1983.29 1044.13 1979.64 1046.82 1976.59 1050.39L1979.32 1052.73ZM1988.9 1045.66C1992.75 1044.08 1996.89 1043.28 2001.35 1043.28V1039.68C1996.45 1039.68 1991.84 1040.56 1987.53 1042.34L1988.9 1045.66ZM2071.39 1012.5H2073.19V1010.7H2071.39V1012.5ZM2071.39 1132.2V1134H2073.19V1132.2H2071.39ZM2059.15 1132.2H2057.35V1134H2059.15V1132.2ZM2059.15 1012.5V1010.7H2057.35V1012.5H2059.15ZM2069.59 1012.5V1132.2H2073.19V1012.5H2069.59ZM2071.39 1130.4H2059.15V1134H2071.39V1130.4ZM2060.95 1132.2V1012.5H2057.35V1132.2H2060.95ZM2059.15 1014.3H2071.39V1010.7H2059.15V1014.3ZM2107.2 1019.52L2105.93 1020.79L2107.2 1019.52ZM2107.2 1030.86L2105.93 1029.59L2107.2 1030.86ZM2095.86 1030.86L2094.59 1032.13L2095.86 1030.86ZM2095.86 1019.52L2094.59 1018.25L2095.86 1019.52ZM2107.74 1042.2H2109.54V1040.4H2107.74V1042.2ZM2107.74 1132.2V1134H2109.54V1132.2H2107.74ZM2095.32 1132.2H2093.52V1134H2095.32V1132.2ZM2095.32 1042.2V1040.4H2093.52V1042.2H2095.32ZM2101.62 1018.98C2103.29 1018.98 2104.7 1019.56 2105.93 1020.79L2108.47 1018.25C2106.58 1016.36 2104.27 1015.38 2101.62 1015.38V1018.98ZM2105.93 1020.79C2107.16 1022.02 2107.74 1023.43 2107.74 1025.1H2111.34C2111.34 1022.45 2110.36 1020.14 2108.47 1018.25L2105.93 1020.79ZM2107.74 1025.1C2107.74 1026.92 2107.14 1028.38 2105.93 1029.59L2108.47 1032.13C2110.38 1030.22 2111.34 1027.84 2111.34 1025.1H2107.74ZM2105.93 1029.59C2104.7 1030.82 2103.29 1031.4 2101.62 1031.4V1035C2104.27 1035 2106.58 1034.02 2108.47 1032.13L2105.93 1029.59ZM2101.62 1031.4C2099.8 1031.4 2098.34 1030.8 2097.13 1029.59L2094.59 1032.13C2096.5 1034.04 2098.88 1035 2101.62 1035V1031.4ZM2097.13 1029.59C2095.92 1028.38 2095.32 1026.92 2095.32 1025.1H2091.72C2091.72 1027.84 2092.68 1030.22 2094.59 1032.13L2097.13 1029.59ZM2095.32 1025.1C2095.32 1023.43 2095.9 1022.02 2097.13 1020.79L2094.59 1018.25C2092.7 1020.14 2091.72 1022.45 2091.72 1025.1H2095.32ZM2097.13 1020.79C2098.34 1019.58 2099.8 1018.98 2101.62 1018.98V1015.38C2098.88 1015.38 2096.5 1016.34 2094.59 1018.25L2097.13 1020.79ZM2105.94 1042.2V1132.2H2109.54V1042.2H2105.94ZM2107.74 1130.4H2095.32V1134H2107.74V1130.4ZM2097.12 1132.2V1042.2H2093.52V1132.2H2097.12ZM2095.32 1044H2107.74V1040.4H2095.32V1044ZM2215.41 1044.54H2217.21V1042.74H2215.41V1044.54ZM2215.41 1132.2V1134H2217.21V1132.2H2215.41ZM2202.99 1132.2H2201.19V1134H2202.99V1132.2ZM2202.99 1115.64H2204.79V1110L2201.53 1114.6L2202.99 1115.64ZM2147.01 1127.16L2146.1 1128.71L2146.11 1128.72L2146.12 1128.72L2147.01 1127.16ZM2130.45 1110.6L2128.89 1111.49L2128.89 1111.5L2128.9 1111.51L2130.45 1110.6ZM2130.45 1065.06L2128.9 1064.15L2128.89 1064.16L2128.89 1064.17L2130.45 1065.06ZM2147.01 1048.68L2147.9 1050.24L2147.91 1050.24L2147.92 1050.23L2147.01 1048.68ZM2190.75 1047.96L2189.75 1049.46L2189.77 1049.47L2189.79 1049.48L2190.75 1047.96ZM2202.99 1059.3L2201.48 1060.28L2204.79 1065.4V1059.3H2202.99ZM2202.99 1044.54V1042.74H2201.19V1044.54H2202.99ZM2186.43 1116.54L2187.33 1118.1L2187.34 1118.1L2187.35 1118.09L2186.43 1116.54ZM2198.31 1104.48L2196.77 1103.56L2196.76 1103.57L2196.75 1103.59L2198.31 1104.48ZM2198.31 1071.36L2196.74 1072.24L2196.75 1072.26L2196.77 1072.28L2198.31 1071.36ZM2186.43 1059.3L2185.51 1060.85L2185.53 1060.85L2185.54 1060.86L2186.43 1059.3ZM2153.13 1059.3L2154.03 1060.86L2154.03 1060.86L2154.04 1060.86L2153.13 1059.3ZM2141.07 1071.36L2139.52 1070.46L2139.51 1070.46L2139.51 1070.47L2141.07 1071.36ZM2141.07 1104.48L2139.51 1105.37L2139.52 1105.39L2139.53 1105.4L2141.07 1104.48ZM2153.13 1116.54L2152.21 1118.09L2152.23 1118.1L2152.26 1118.11L2153.13 1116.54ZM2213.61 1044.54V1132.2H2217.21V1044.54H2213.61ZM2215.41 1130.4H2202.99V1134H2215.41V1130.4ZM2204.79 1132.2V1115.64H2201.19V1132.2H2204.79ZM2201.53 1114.6C2193.57 1125.78 2183.07 1131.3 2169.87 1131.3V1134.9C2184.28 1134.9 2195.86 1128.78 2204.46 1116.68L2201.53 1114.6ZM2169.87 1131.3C2161.89 1131.3 2154.58 1129.4 2147.9 1125.6L2146.12 1128.72C2153.36 1132.84 2161.29 1134.9 2169.87 1134.9V1131.3ZM2147.92 1125.61C2141.23 1121.68 2135.93 1116.38 2132.01 1109.69L2128.9 1111.51C2133.14 1118.74 2138.88 1124.48 2146.1 1128.71L2147.92 1125.61ZM2132.02 1109.71C2128.21 1103.03 2126.31 1095.77 2126.31 1087.92H2122.71C2122.71 1096.39 2124.77 1104.25 2128.89 1111.49L2132.02 1109.71ZM2126.31 1087.92C2126.31 1079.94 2128.22 1072.63 2132.02 1065.95L2128.89 1064.17C2124.77 1071.41 2122.71 1079.34 2122.71 1087.92H2126.31ZM2132.01 1065.97C2135.93 1059.28 2141.22 1054.05 2147.9 1050.24L2146.12 1047.12C2138.89 1051.23 2133.14 1056.92 2128.9 1064.15L2132.01 1065.97ZM2147.92 1050.23C2154.6 1046.32 2161.9 1044.36 2169.87 1044.36V1040.76C2161.28 1040.76 2153.35 1042.88 2146.1 1047.13L2147.92 1050.23ZM2169.87 1044.36C2178.15 1044.36 2184.73 1046.11 2189.75 1049.46L2191.75 1046.46C2185.98 1042.61 2178.64 1040.76 2169.87 1040.76V1044.36ZM2189.79 1049.48C2195.16 1052.87 2199.02 1056.48 2201.48 1060.28L2204.5 1058.32C2201.68 1053.96 2197.38 1050.01 2191.71 1046.44L2189.79 1049.48ZM2204.79 1059.3V1044.54H2201.19V1059.3H2204.79ZM2202.99 1046.34H2215.41V1042.74H2202.99V1046.34ZM2169.87 1122.66C2176.17 1122.66 2182 1121.14 2187.33 1118.1L2185.54 1114.98C2180.78 1117.7 2175.57 1119.06 2169.87 1119.06V1122.66ZM2187.35 1118.09C2192.66 1114.93 2196.84 1110.69 2199.88 1105.37L2196.75 1103.59C2194.03 1108.35 2190.29 1112.15 2185.51 1114.99L2187.35 1118.09ZM2199.86 1105.4C2203.03 1100.08 2204.61 1094.24 2204.61 1087.92H2201.01C2201.01 1093.6 2199.6 1098.8 2196.77 1103.56L2199.86 1105.4ZM2204.61 1087.92C2204.61 1081.6 2203.03 1075.76 2199.86 1070.44L2196.77 1072.28C2199.6 1077.04 2201.01 1082.24 2201.01 1087.92H2204.61ZM2199.88 1070.48C2196.85 1065.04 2192.66 1060.78 2187.33 1057.74L2185.54 1060.86C2190.29 1063.58 2194.02 1067.36 2196.74 1072.24L2199.88 1070.48ZM2187.35 1057.75C2182.03 1054.58 2176.19 1053 2169.87 1053V1056.6C2175.56 1056.6 2180.76 1058.02 2185.51 1060.85L2187.35 1057.75ZM2169.87 1053C2163.56 1053 2157.66 1054.58 2152.23 1057.74L2154.04 1060.86C2158.92 1058.02 2164.19 1056.6 2169.87 1056.6V1053ZM2152.24 1057.74C2146.92 1060.78 2142.67 1065.03 2139.52 1070.46L2142.63 1072.26C2145.47 1067.37 2149.27 1063.58 2154.03 1060.86L2152.24 1057.74ZM2139.51 1070.47C2136.47 1075.79 2134.95 1081.62 2134.95 1087.92H2138.55C2138.55 1082.22 2139.92 1077.01 2142.64 1072.25L2139.51 1070.47ZM2134.95 1087.92C2134.95 1094.22 2136.47 1100.05 2139.51 1105.37L2142.64 1103.59C2139.92 1098.83 2138.55 1093.62 2138.55 1087.92H2134.95ZM2139.53 1105.4C2142.68 1110.7 2146.91 1114.93 2152.21 1118.09L2154.05 1114.99C2149.27 1112.15 2145.47 1108.34 2142.62 1103.56L2139.53 1105.4ZM2152.26 1118.11C2157.69 1121.14 2163.57 1122.66 2169.87 1122.66V1119.06C2164.17 1119.06 2158.9 1117.7 2154.01 1114.97L2152.26 1118.11ZM2265.58 1125L2266.5 1123.45L2265.58 1125ZM2243.8 1103.22L2242.25 1104.14L2243.8 1103.22ZM2243.8 1043.1L2245.35 1044.02L2245.35 1044.01L2245.36 1044.01L2243.8 1043.1ZM2265.58 1021.14L2264.68 1019.59L2264.67 1019.59L2264.67 1019.59L2265.58 1021.14ZM2325.7 1021.14L2324.8 1022.69L2325.7 1021.14ZM2347.66 1043.1L2349.22 1042.19L2347.66 1043.1ZM2347.66 1103.22L2349.21 1104.14L2349.21 1104.13L2349.22 1104.13L2347.66 1103.22ZM2325.7 1125L2324.8 1123.45L2324.79 1123.45L2324.79 1123.45L2325.7 1125ZM2319.58 1114.56L2320.48 1116.12L2320.49 1116.12L2320.5 1116.11L2319.58 1114.56ZM2336.86 1097.1L2335.31 1096.19L2335.31 1096.19L2335.3 1096.2L2336.86 1097.1ZM2336.86 1049.22L2335.3 1050.12L2335.31 1050.13L2335.31 1050.13L2336.86 1049.22ZM2319.58 1031.94L2318.67 1033.49L2318.68 1033.5L2318.69 1033.5L2319.58 1031.94ZM2271.7 1031.94L2272.6 1033.5L2272.61 1033.5L2272.62 1033.49L2271.7 1031.94ZM2254.24 1049.22L2252.69 1048.31L2252.69 1048.31L2252.68 1048.32L2254.24 1049.22ZM2254.24 1097.1L2252.68 1098L2252.69 1098.01L2252.69 1098.01L2254.24 1097.1ZM2271.7 1114.56L2270.79 1116.11L2270.8 1116.12L2270.81 1116.12L2271.7 1114.56ZM2295.64 1131.3C2285.04 1131.3 2275.33 1128.68 2266.5 1123.45L2264.67 1126.55C2274.07 1132.12 2284.41 1134.9 2295.64 1134.9V1131.3ZM2266.5 1123.45C2257.64 1118.21 2250.6 1111.16 2245.35 1102.3L2242.25 1104.14C2247.81 1113.52 2255.29 1120.99 2264.67 1126.55L2266.5 1123.45ZM2245.35 1102.3C2240.12 1093.47 2237.5 1083.77 2237.5 1073.16H2233.9C2233.9 1084.39 2236.68 1094.73 2242.25 1104.14L2245.35 1102.3ZM2237.5 1073.16C2237.5 1062.55 2240.12 1052.85 2245.35 1044.02L2242.25 1042.18C2236.68 1051.59 2233.9 1061.93 2233.9 1073.16H2237.5ZM2245.36 1044.01C2250.6 1035.03 2257.65 1027.93 2266.5 1022.69L2264.67 1019.59C2255.28 1025.15 2247.8 1032.69 2242.25 1042.19L2245.36 1044.01ZM2266.49 1022.69C2275.45 1017.46 2285.16 1014.84 2295.64 1014.84V1011.24C2284.53 1011.24 2274.19 1014.02 2264.68 1019.59L2266.49 1022.69ZM2295.64 1014.84C2306.13 1014.84 2315.83 1017.46 2324.8 1022.69L2326.61 1019.59C2317.09 1014.02 2306.76 1011.24 2295.64 1011.24V1014.84ZM2324.8 1022.69C2333.77 1027.94 2340.87 1035.04 2346.11 1044.01L2349.22 1042.19C2343.66 1032.68 2336.12 1025.14 2326.61 1019.59L2324.8 1022.69ZM2346.11 1044.01C2351.35 1052.97 2353.96 1062.68 2353.96 1073.16H2357.56C2357.56 1062.04 2354.78 1051.71 2349.22 1042.19L2346.11 1044.01ZM2353.96 1073.16C2353.96 1083.64 2351.35 1093.35 2346.11 1102.31L2349.22 1104.13C2354.78 1094.61 2357.56 1084.28 2357.56 1073.16H2353.96ZM2346.11 1102.3C2340.87 1111.16 2333.77 1118.2 2324.8 1123.45L2326.61 1126.55C2336.11 1121 2343.65 1113.52 2349.21 1104.14L2346.11 1102.3ZM2324.79 1123.45C2315.95 1128.68 2306.25 1131.3 2295.64 1131.3V1134.9C2306.88 1134.9 2317.21 1132.12 2326.62 1126.55L2324.79 1123.45ZM2295.64 1122.66C2304.59 1122.66 2312.88 1120.48 2320.48 1116.12L2318.69 1113C2311.65 1117.04 2303.98 1119.06 2295.64 1119.06V1122.66ZM2320.5 1116.11C2328.08 1111.63 2334.07 1105.59 2338.42 1098L2335.3 1096.2C2331.26 1103.25 2325.72 1108.85 2318.67 1113.01L2320.5 1116.11ZM2338.41 1098.01C2342.9 1090.41 2345.14 1082.12 2345.14 1073.16H2341.54C2341.54 1081.48 2339.47 1089.15 2335.31 1096.19L2338.41 1098.01ZM2345.14 1073.16C2345.14 1064.2 2342.9 1055.91 2338.41 1048.31L2335.31 1050.13C2339.47 1057.17 2341.54 1064.84 2341.54 1073.16H2345.14ZM2338.42 1048.32C2334.07 1040.73 2328.08 1034.74 2320.48 1030.38L2318.69 1033.5C2325.73 1037.54 2331.26 1043.07 2335.3 1050.12L2338.42 1048.32ZM2320.5 1030.39C2312.9 1025.9 2304.6 1023.66 2295.64 1023.66V1027.26C2303.97 1027.26 2311.63 1029.34 2318.67 1033.49L2320.5 1030.39ZM2295.64 1023.66C2286.69 1023.66 2278.39 1025.9 2270.79 1030.39L2272.62 1033.49C2279.66 1029.34 2287.32 1027.26 2295.64 1027.26V1023.66ZM2270.81 1030.38C2263.22 1034.74 2257.17 1040.72 2252.69 1048.31L2255.79 1050.13C2259.96 1043.08 2265.55 1037.55 2272.6 1033.5L2270.81 1030.38ZM2252.68 1048.32C2248.32 1055.92 2246.14 1064.21 2246.14 1073.16H2249.74C2249.74 1064.83 2251.76 1057.16 2255.8 1050.12L2252.68 1048.32ZM2246.14 1073.16C2246.14 1082.11 2248.32 1090.4 2252.68 1098L2255.8 1096.2C2251.76 1089.16 2249.74 1081.49 2249.74 1073.16H2246.14ZM2252.69 1098.01C2257.17 1105.6 2263.21 1111.64 2270.79 1116.11L2272.62 1113.01C2265.56 1108.84 2259.96 1103.24 2255.79 1096.19L2252.69 1098.01ZM2270.81 1116.12C2278.41 1120.48 2286.7 1122.66 2295.64 1122.66V1119.06C2287.31 1119.06 2279.64 1117.04 2272.6 1113L2270.81 1116.12ZM2439.92 1047.24H2441.72V1047.12L2441.7 1047.01L2439.92 1047.24ZM2435.6 1035.36L2434.09 1036.34L2434.1 1036.36L2434.11 1036.37L2435.6 1035.36ZM2392.76 1030.68L2391.49 1029.41L2391.48 1029.42L2391.47 1029.43L2392.76 1030.68ZM2393.3 1061.46L2392.29 1062.95L2393.3 1061.46ZM2410.4 1066.5L2410.55 1064.71L2410.55 1064.71L2410.55 1064.71L2410.4 1066.5ZM2428.04 1069.38L2427.56 1071.12L2427.58 1071.12L2427.6 1071.13L2428.04 1069.38ZM2440.1 1074.42L2439.1 1075.92L2439.13 1075.93L2439.15 1075.95L2440.1 1074.42ZM2450.18 1111.86L2448.54 1111.12L2448.53 1111.14L2448.52 1111.16L2450.18 1111.86ZM2442.8 1122.48L2441.55 1121.18L2441.54 1121.19L2441.54 1121.2L2442.8 1122.48ZM2382.32 1122.66L2383.56 1121.36L2383.55 1121.35L2383.54 1121.34L2382.32 1122.66ZM2370.8 1098.9V1097.1H2368.75L2369.02 1099.14L2370.8 1098.9ZM2383.22 1098.9L2384.99 1098.58L2384.73 1097.1H2383.22V1098.9ZM2390.78 1113.66L2389.53 1114.95L2389.54 1114.97L2389.55 1114.98L2390.78 1113.66ZM2432.72 1114.92L2433.83 1116.34L2433.83 1116.33L2433.84 1116.33L2432.72 1114.92ZM2437.94 1089.18L2436.37 1090.07L2436.4 1090.11L2436.42 1090.15L2437.94 1089.18ZM2428.76 1082.52L2429.38 1080.83L2428.76 1082.52ZM2409.32 1078.92L2409.16 1080.71L2409.16 1080.71L2409.17 1080.71L2409.32 1078.92ZM2377.1 1032.84L2375.43 1032.17L2375.42 1032.18L2375.42 1032.2L2377.1 1032.84ZM2384.12 1022.04L2382.85 1020.77L2384.12 1022.04ZM2412.38 1012.14L2412.4 1010.34H2412.39H2412.38V1012.14ZM2440.64 1022.4L2439.34 1023.65L2439.36 1023.66L2439.37 1023.67L2440.64 1022.4ZM2452.34 1047.42V1049.22H2454.37L2454.13 1047.21L2452.34 1047.42ZM2439.92 1047.42H2438.12V1049.22H2439.92V1047.42ZM2441.7 1047.01C2441.07 1042.2 2439.55 1037.97 2437.09 1034.35L2434.11 1036.37C2436.21 1039.47 2437.57 1043.16 2438.14 1047.47L2441.7 1047.01ZM2437.11 1034.38C2432.01 1026.53 2423.61 1022.76 2412.38 1022.76V1026.36C2422.75 1026.36 2429.83 1029.79 2434.09 1036.34L2437.11 1034.38ZM2412.38 1022.76C2403.16 1022.76 2396.05 1024.84 2391.49 1029.41L2394.03 1031.95C2397.63 1028.36 2403.6 1026.36 2412.38 1026.36V1022.76ZM2391.47 1029.43C2387.35 1033.68 2385.38 1039.39 2385.38 1046.34H2388.98C2388.98 1040.09 2390.73 1035.36 2394.05 1031.93L2391.47 1029.43ZM2385.38 1046.34C2385.38 1053.95 2387.51 1059.71 2392.29 1062.95L2394.31 1059.97C2390.93 1057.69 2388.98 1053.37 2388.98 1046.34H2385.38ZM2392.29 1062.95C2396.72 1065.95 2402.77 1067.68 2410.25 1068.29L2410.55 1064.71C2403.4 1064.12 2398.04 1062.49 2394.31 1059.97L2392.29 1062.95ZM2410.25 1068.29C2417.14 1068.89 2422.9 1069.83 2427.56 1071.12L2428.52 1067.64C2423.58 1066.29 2417.58 1065.31 2410.55 1064.71L2410.25 1068.29ZM2427.6 1071.13C2432.26 1072.29 2436.07 1073.9 2439.1 1075.92L2441.1 1072.92C2437.65 1070.62 2433.43 1068.87 2428.48 1067.63L2427.6 1071.13ZM2439.15 1075.95C2447.07 1080.86 2451.08 1088.51 2451.08 1099.26H2454.68C2454.68 1087.45 2450.17 1078.54 2441.05 1072.89L2439.15 1075.95ZM2451.08 1099.26C2451.08 1103.45 2450.23 1107.39 2448.54 1111.12L2451.82 1112.6C2453.73 1108.41 2454.68 1103.95 2454.68 1099.26H2451.08ZM2448.52 1111.16C2446.94 1114.88 2444.63 1118.22 2441.55 1121.18L2444.05 1123.78C2447.46 1120.5 2450.06 1116.76 2451.84 1112.56L2448.52 1111.16ZM2441.54 1121.2C2434.63 1127.99 2425.11 1131.48 2412.74 1131.48V1135.08C2425.81 1135.08 2436.33 1131.37 2444.06 1123.76L2441.54 1121.2ZM2412.74 1131.48C2400.24 1131.48 2390.59 1128.04 2383.56 1121.36L2381.08 1123.96C2388.93 1131.44 2399.56 1135.08 2412.74 1135.08V1131.48ZM2383.54 1121.34C2377.54 1115.79 2373.86 1108.28 2372.58 1098.66L2369.02 1099.14C2370.38 1109.44 2374.38 1117.77 2381.1 1123.98L2383.54 1121.34ZM2370.8 1100.7H2383.22V1097.1H2370.8V1100.7ZM2381.45 1099.22C2382.59 1105.55 2385.27 1110.82 2389.53 1114.95L2392.03 1112.37C2388.37 1108.82 2386.01 1104.25 2384.99 1098.58L2381.45 1099.22ZM2389.55 1114.98C2395.15 1120.19 2403.03 1122.66 2412.92 1122.66V1119.06C2403.61 1119.06 2396.73 1116.73 2392.01 1112.34L2389.55 1114.98ZM2412.92 1122.66C2421.37 1122.66 2428.4 1120.61 2433.83 1116.34L2431.61 1113.5C2426.96 1117.15 2420.79 1119.06 2412.92 1119.06V1122.66ZM2433.84 1116.33C2439.41 1111.92 2442.26 1106.19 2442.26 1099.26H2438.66C2438.66 1105.05 2436.35 1109.76 2431.6 1113.51L2433.84 1116.33ZM2442.26 1099.26C2442.26 1094.94 2441.37 1091.22 2439.46 1088.21L2436.42 1090.15C2437.87 1092.42 2438.66 1095.42 2438.66 1099.26H2442.26ZM2439.51 1088.29C2437.65 1085.01 2434.14 1082.58 2429.38 1080.83L2428.14 1084.21C2432.5 1085.82 2435.11 1087.83 2436.37 1090.07L2439.51 1088.29ZM2429.38 1080.83C2424.6 1079.07 2417.94 1077.85 2409.47 1077.13L2409.17 1080.71C2417.51 1081.43 2423.8 1082.61 2428.14 1084.21L2429.38 1080.83ZM2409.48 1077.13C2398.18 1076.13 2389.99 1072.99 2384.64 1067.94C2379.32 1062.92 2376.56 1055.81 2376.56 1046.34H2372.96C2372.96 1056.55 2375.96 1064.71 2382.17 1070.55C2388.33 1076.36 2397.42 1079.67 2409.16 1080.71L2409.48 1077.13ZM2376.56 1046.34C2376.56 1041.61 2377.31 1037.33 2378.78 1033.48L2375.42 1032.2C2373.77 1036.51 2372.96 1041.23 2372.96 1046.34H2376.56ZM2378.77 1033.51C2380.37 1029.52 2382.58 1026.13 2385.39 1023.31L2382.85 1020.77C2379.66 1023.95 2377.19 1027.76 2375.43 1032.17L2378.77 1033.51ZM2385.39 1023.31C2391.56 1017.14 2400.41 1013.94 2412.2 1013.94V1010.34C2399.75 1010.34 2389.88 1013.74 2382.85 1020.77L2385.39 1023.31ZM2412.2 1013.94H2412.38V1010.34H2412.2V1013.94ZM2412.36 1013.94C2424.4 1014.06 2433.3 1017.38 2439.34 1023.65L2441.94 1021.15C2435.02 1013.98 2425.08 1010.46 2412.4 1010.34L2412.36 1013.94ZM2439.37 1023.67C2445.66 1029.96 2449.4 1037.92 2450.55 1047.63L2454.13 1047.21C2452.88 1036.76 2448.82 1028.04 2441.91 1021.13L2439.37 1023.67ZM2452.34 1045.62H2439.92V1049.22H2452.34V1045.62ZM2441.72 1047.42V1047.24H2438.12V1047.42H2441.72Z" fill="white"/>
<circle cx="3414" cy="1986" r="100" fill="url(#paint56_linear)"/>
<defs>
<linearGradient id="paint0_linear" x1="-182" y1="-102" x2="4034" y2="2266" gradientUnits="userSpaceOnUse">
<stop stop-color="#C00000"/>
<stop offset="1" stop-color="#FF4300"/>
</linearGradient>
<linearGradient id="paint1_linear" x1="91.8333" y1="101.833" x2="693.833" y2="673.5" gradientUnits="userSpaceOnUse">
<stop stop-color="#FF4300"/>
<stop offset="1" stop-color="#C00000"/>
</linearGradient>
<linearGradient id="paint2_linear" x1="750.333" y1="602.333" x2="1094.33" y2="929" gradientUnits="userSpaceOnUse">
<stop stop-color="#FF4300"/>
<stop offset="1" stop-color="#C00000"/>
</linearGradient>
<linearGradient id="paint3_linear" x1="1867.5" y1="1767.5" x2="2125.5" y2="2012.5" gradientUnits="userSpaceOnUse">
<stop stop-color="#FF4300"/>
<stop offset="1" stop-color="#C00000"/>
</linearGradient>
<linearGradient id="paint4_linear" x1="1986.17" y1="1231.17" x2="2416.17" y2="1639.5" gradientUnits="userSpaceOnUse">
<stop stop-color="#FF4300"/>
<stop offset="1" stop-color="#C00000"/>
</linearGradient>
<linearGradient id="paint5_linear" x1="2379.25" y1="1676.25" x2="2766.25" y2="2043.75" gradientUnits="userSpaceOnUse">
<stop stop-color="#FF4300"/>
<stop offset="1" stop-color="#C00000"/>
</linearGradient>
<linearGradient id="paint6_linear" x1="777.583" y1="55.5833" x2="992.583" y2="259.75" gradientUnits="userSpaceOnUse">
<stop stop-color="#FF4300"/>
<stop offset="1" stop-color="#C00000"/>
</linearGradient>
<linearGradient id="paint7_linear" x1="894.583" y1="1262.58" x2="1109.58" y2="1466.75" gradientUnits="userSpaceOnUse">
<stop stop-color="#FF4300"/>
<stop offset="1" stop-color="#C00000"/>
</linearGradient>
<linearGradient id="paint8_linear" x1="457.667" y1="845.667" x2="629.667" y2="1009" gradientUnits="userSpaceOnUse">
<stop stop-color="#FF4300"/>
<stop offset="1" stop-color="#C00000"/>
</linearGradient>
<linearGradient id="paint9_linear" x1="1341.08" y1="117.083" x2="1814.08" y2="566.25" gradientUnits="userSpaceOnUse">
<stop stop-color="#FF4300"/>
<stop offset="1" stop-color="#C00000"/>
</linearGradient>
<linearGradient id="paint10_linear" x1="2457.08" y1="852.083" x2="2930.08" y2="1301.25" gradientUnits="userSpaceOnUse">
<stop stop-color="#FF4300"/>
<stop offset="1" stop-color="#C00000"/>
</linearGradient>
<linearGradient id="paint11_linear" x1="2911.33" y1="127.333" x2="3255.33" y2="454" gradientUnits="userSpaceOnUse">
<stop stop-color="#FF4300"/>
<stop offset="1" stop-color="#C00000"/>
</linearGradient>
<linearGradient id="paint12_linear" x1="626.083" y1="1586.08" x2="1099.08" y2="2035.25" gradientUnits="userSpaceOnUse">
<stop stop-color="#FF4300"/>
<stop offset="1" stop-color="#C00000"/>
</linearGradient>
<linearGradient id="paint13_linear" x1="2991.42" y1="608.417" x2="3292.42" y2="894.25" gradientUnits="userSpaceOnUse">
<stop stop-color="#FF4300"/>
<stop offset="1" stop-color="#C00000"/>
</linearGradient>
<linearGradient id="paint14_linear" x1="2005.75" y1="77.75" x2="2134.75" y2="200.25" gradientUnits="userSpaceOnUse">
<stop stop-color="#FF4300"/>
<stop offset="1" stop-color="#C00000"/>
</linearGradient>
<linearGradient id="paint15_linear" x1="790.833" y1="429.833" x2="876.833" y2="511.5" gradientUnits="userSpaceOnUse">
<stop stop-color="#FF4300"/>
<stop offset="1" stop-color="#C00000"/>
</linearGradient>
<linearGradient id="paint16_linear" x1="2194.92" y1="184.917" x2="2753.92" y2="715.75" gradientUnits="userSpaceOnUse">
<stop stop-color="#FF4300"/>
<stop offset="1" stop-color="#C00000"/>
</linearGradient>
<linearGradient id="paint17_linear" x1="1212.75" y1="778.75" x2="1857.75" y2="1391.25" gradientUnits="userSpaceOnUse">
<stop stop-color="#FF4300"/>
<stop offset="1" stop-color="#C00000"/>
</linearGradient>
<linearGradient id="paint18_linear" x1="116.5" y1="998.5" x2="374.5" y2="1243.5" gradientUnits="userSpaceOnUse">
<stop stop-color="#FF4300"/>
<stop offset="1" stop-color="#C00000"/>
</linearGradient>
<linearGradient id="paint19_linear" x1="1231.5" y1="1536.5" x2="1489.5" y2="1781.5" gradientUnits="userSpaceOnUse">
<stop stop-color="#FF4300"/>
<stop offset="1" stop-color="#C00000"/>
</linearGradient>
<linearGradient id="paint20_linear" x1="982.5" y1="278.5" x2="1240.5" y2="523.5" gradientUnits="userSpaceOnUse">
<stop stop-color="#FF4300"/>
<stop offset="1" stop-color="#C00000"/>
</linearGradient>
<linearGradient id="paint21_linear" x1="3507.5" y1="934.5" x2="3765.5" y2="1179.5" gradientUnits="userSpaceOnUse">
<stop stop-color="#FF4300"/>
<stop offset="1" stop-color="#C00000"/>
</linearGradient>
<linearGradient id="paint22_linear" x1="3187.5" y1="1536.5" x2="3445.5" y2="1781.5" gradientUnits="userSpaceOnUse">
<stop stop-color="#FF4300"/>
<stop offset="1" stop-color="#C00000"/>
</linearGradient>
<linearGradient id="paint23_linear" x1="3602.83" y1="1847.83" x2="3688.83" y2="1929.5" gradientUnits="userSpaceOnUse">
<stop stop-color="#FF4300"/>
<stop offset="1" stop-color="#C00000"/>
</linearGradient>
<linearGradient id="paint24_linear" x1="2554.83" y1="1456.83" x2="2640.83" y2="1538.5" gradientUnits="userSpaceOnUse">
<stop stop-color="#FF4300"/>
<stop offset="1" stop-color="#C00000"/>
</linearGradient>
<linearGradient id="paint25_linear" x1="1951.83" y1="355.833" x2="2037.83" y2="437.5" gradientUnits="userSpaceOnUse">
<stop stop-color="#FF4300"/>
<stop offset="1" stop-color="#C00000"/>
</linearGradient>
<linearGradient id="paint26_linear" x1="3518.83" y1="1332.83" x2="3604.83" y2="1414.5" gradientUnits="userSpaceOnUse">
<stop stop-color="#FF4300"/>
<stop offset="1" stop-color="#C00000"/>
</linearGradient>
<linearGradient id="paint27_linear" x1="3033.83" y1="999.833" x2="3119.83" y2="1081.5" gradientUnits="userSpaceOnUse">
<stop stop-color="#FF4300"/>
<stop offset="1" stop-color="#C00000"/>
</linearGradient>
<linearGradient id="paint28_linear" x1="3303.83" y1="928.833" x2="3389.83" y2="1010.5" gradientUnits="userSpaceOnUse">
<stop stop-color="#FF4300"/>
<stop offset="1" stop-color="#C00000"/>
</linearGradient>
<linearGradient id="paint29_linear" x1="955.833" y1="1049.83" x2="1041.83" y2="1131.5" gradientUnits="userSpaceOnUse">
<stop stop-color="#FF4300"/>
<stop offset="1" stop-color="#C00000"/>
</linearGradient>
<linearGradient id="paint30_linear" x1="193.833" y1="810.833" x2="279.833" y2="892.5" gradientUnits="userSpaceOnUse">
<stop stop-color="#FF4300"/>
<stop offset="1" stop-color="#C00000"/>
</linearGradient>
<linearGradient id="paint31_linear" x1="3373.83" y1="422.833" x2="3459.83" y2="504.5" gradientUnits="userSpaceOnUse">
<stop stop-color="#FF4300"/>
<stop offset="1" stop-color="#C00000"/>
</linearGradient>
<linearGradient id="paint32_linear" x1="2799.5" y1="1411.5" x2="3057.5" y2="1656.5" gradientUnits="userSpaceOnUse">
<stop stop-color="#FF4300"/>
<stop offset="1" stop-color="#C00000"/>
</linearGradient>
<linearGradient id="paint33_linear" x1="1867.5" y1="584.5" x2="2125.5" y2="829.5" gradientUnits="userSpaceOnUse">
<stop stop-color="#FF4300"/>
<stop offset="1" stop-color="#C00000"/>
</linearGradient>
<linearGradient id="paint34_linear" x1="3353.67" y1="89.6667" x2="3525.67" y2="253" gradientUnits="userSpaceOnUse">
<stop stop-color="#FF4300"/>
<stop offset="1" stop-color="#C00000"/>
</linearGradient>
<linearGradient id="paint35_linear" x1="1651.75" y1="1561.75" x2="1780.75" y2="1684.25" gradientUnits="userSpaceOnUse">
<stop stop-color="#FF4300"/>
<stop offset="1" stop-color="#C00000"/>
</linearGradient>
<linearGradient id="paint36_linear" x1="420.417" y1="1231.42" x2="721.417" y2="1517.25" gradientUnits="userSpaceOnUse">
<stop stop-color="#FF4300"/>
<stop offset="1" stop-color="#C00000"/>
</linearGradient>
<linearGradient id="paint37_linear" x1="122.75" y1="1427.75" x2="251.75" y2="1550.25" gradientUnits="userSpaceOnUse">
<stop stop-color="#FF4300"/>
<stop offset="1" stop-color="#C00000"/>
</linearGradient>
<linearGradient id="paint38_linear" x1="1544.75" y1="1852.75" x2="1673.75" y2="1975.25" gradientUnits="userSpaceOnUse">
<stop stop-color="#FF4300"/>
<stop offset="1" stop-color="#C00000"/>
</linearGradient>
<linearGradient id="paint39_linear" x1="2712.75" y1="46.75" x2="2841.75" y2="169.25" gradientUnits="userSpaceOnUse">
<stop stop-color="#FF4300"/>
<stop offset="1" stop-color="#C00000"/>
</linearGradient>
<linearGradient id="paint40_linear" x1="1136.75" y1="61.75" x2="1265.75" y2="184.25" gradientUnits="userSpaceOnUse">
<stop stop-color="#FF4300"/>
<stop offset="1" stop-color="#C00000"/>
</linearGradient>
<linearGradient id="paint41_linear" x1="303.75" y1="1636.75" x2="432.75" y2="1759.25" gradientUnits="userSpaceOnUse">
<stop stop-color="#FF4300"/>
<stop offset="1" stop-color="#C00000"/>
</linearGradient>
<linearGradient id="paint42_linear" x1="2899.67" y1="1857.67" x2="3071.67" y2="2021" gradientUnits="userSpaceOnUse">
<stop stop-color="#FF4300"/>
<stop offset="1" stop-color="#C00000"/>
</linearGradient>
<linearGradient id="paint43_linear" x1="1226.83" y1="602.833" x2="1312.83" y2="684.5" gradientUnits="userSpaceOnUse">
<stop stop-color="#FF4300"/>
<stop offset="1" stop-color="#C00000"/>
</linearGradient>
<linearGradient id="paint44_linear" x1="3441.67" y1="645.667" x2="3613.67" y2="809" gradientUnits="userSpaceOnUse">
<stop stop-color="#FF4300"/>
<stop offset="1" stop-color="#C00000"/>
</linearGradient>
<linearGradient id="paint45_linear" x1="3575.67" y1="1516.67" x2="3747.67" y2="1680" gradientUnits="userSpaceOnUse">
<stop stop-color="#FF4300"/>
<stop offset="1" stop-color="#C00000"/>
</linearGradient>
<linearGradient id="paint46_linear" x1="3599.67" y1="332.667" x2="3771.67" y2="496" gradientUnits="userSpaceOnUse">
<stop stop-color="#FF4300"/>
<stop offset="1" stop-color="#C00000"/>
</linearGradient>
<linearGradient id="paint47_linear" x1="3119.5" y1="1102.5" x2="3377.5" y2="1347.5" gradientUnits="userSpaceOnUse">
<stop stop-color="#FF4300"/>
<stop offset="1" stop-color="#C00000"/>
</linearGradient>
<linearGradient id="paint48_linear" x1="694.75" y1="1059.75" x2="823.75" y2="1182.25" gradientUnits="userSpaceOnUse">
<stop stop-color="#FF4300"/>
<stop offset="1" stop-color="#C00000"/>
</linearGradient>
<linearGradient id="paint49_linear" x1="1285.83" y1="1967.83" x2="1371.83" y2="2049.5" gradientUnits="userSpaceOnUse">
<stop stop-color="#FF4300"/>
<stop offset="1" stop-color="#C00000"/>
</linearGradient>
<linearGradient id="paint50_linear" x1="2808.83" y1="614.833" x2="2894.83" y2="696.5" gradientUnits="userSpaceOnUse">
<stop stop-color="#FF4300"/>
<stop offset="1" stop-color="#C00000"/>
</linearGradient>
<linearGradient id="paint51_linear" x1="107.667" y1="1832.67" x2="279.667" y2="1996" gradientUnits="userSpaceOnUse">
<stop stop-color="#FF4300"/>
<stop offset="1" stop-color="#C00000"/>
</linearGradient>
<linearGradient id="paint52_linear" x1="409.833" y1="1959.83" x2="495.833" y2="2041.5" gradientUnits="userSpaceOnUse">
<stop stop-color="#FF4300"/>
<stop offset="1" stop-color="#C00000"/>
</linearGradient>
<linearGradient id="paint53_linear" x1="2085.67" y1="918.667" x2="2257.67" y2="1082" gradientUnits="userSpaceOnUse">
<stop stop-color="#FF4300"/>
<stop offset="1" stop-color="#C00000"/>
</linearGradient>
<linearGradient id="paint54_linear" x1="1439.61" y1="990.893" x2="1617.53" y2="1169.11" gradientUnits="userSpaceOnUse">
<stop stop-color="#C00000"/>
<stop offset="1" stop-color="#FF4300"/>
</linearGradient>
<linearGradient id="paint55_linear" x1="1439.61" y1="990.894" x2="1617.53" y2="1169.11" gradientUnits="userSpaceOnUse">
<stop stop-color="#C00000"/>
<stop offset="1" stop-color="#FF4300"/>
</linearGradient>
<linearGradient id="paint56_linear" x1="3329.67" y1="1905.67" x2="3501.67" y2="2069" gradientUnits="userSpaceOnUse">
<stop stop-color="#FF4300"/>
<stop offset="1" stop-color="#C00000"/>
</linearGradient>
</defs>
</svg>
