<svg width="2000" height="600" viewBox="0 0 2000 600" fill="none" xmlns="http://www.w3.org/2000/svg">
<rect width="2000" height="600" fill="white"/>
<path d="M237.272 347.349C195.693 253.877 261.776 154.968 298.827 115.341C333.838 80.0148 393.385 123.103 415.684 144.461C460.962 186.022 516.643 266.521 377.134 256.024C202.748 242.902 289.245 464.191 237.272 347.349Z" fill="url(#paint0_linear)"/>
<path d="M567.819 427.571C508.743 511.094 389.953 504.869 336.953 493.286C288.693 481.258 295.281 408.052 302.236 377.969C314.805 317.807 355.52 228.797 417.825 354.061C495.705 510.642 641.662 323.168 567.819 427.571Z" fill="url(#paint1_linear)"/>
<path d="M492.255 104.631C593.163 121.466 639.26 231.124 651.898 283.882C662.073 332.566 593.298 358.498 563.186 365.329C503.55 380.197 405.694 382.28 491.354 271.667C598.431 133.402 366.119 83.5876 492.255 104.631Z" fill="url(#paint2_linear)"/>
<path d="M829.2 225C836.933 225 844.067 226.933 850.6 230.8C857.133 234.667 862.333 239.867 866.2 246.4C870.067 252.933 872 260 872 267.6C872 275.2 870.067 282.267 866.2 288.8C862.333 295.333 857.133 300.533 850.6 304.4C844.067 308.133 836.933 310 829.2 310H805.8V358H792V225H829.2ZM829.2 296.6C834.4 296.6 839.2 295.333 843.6 292.8C848.133 290.133 851.667 286.6 854.2 282.2C856.867 277.667 858.2 272.8 858.2 267.6C858.2 262.4 856.867 257.6 854.2 253.2C851.667 248.8 848.133 245.333 843.6 242.8C839.2 240.133 834.4 238.8 829.2 238.8H805.8V296.6H829.2ZM985.639 260.6V358H971.839V339.6C962.639 352.533 950.372 359 935.039 359C925.839 359 917.372 356.8 909.639 352.4C901.906 347.867 895.772 341.733 891.239 334C886.839 326.267 884.639 317.867 884.639 308.8C884.639 299.6 886.839 291.133 891.239 283.4C895.772 275.667 901.906 269.6 909.639 265.2C917.372 260.667 925.839 258.4 935.039 258.4C944.506 258.4 952.239 260.4 958.239 264.4C964.372 268.267 968.906 272.467 971.839 277V260.6H985.639ZM935.039 345.4C941.706 345.4 947.839 343.8 953.439 340.6C959.039 337.267 963.439 332.8 966.639 327.2C969.972 321.6 971.639 315.467 971.639 308.8C971.639 302.133 969.972 296 966.639 290.4C963.439 284.667 959.039 280.2 953.439 277C947.839 273.667 941.706 272 935.039 272C928.372 272 922.172 273.667 916.439 277C910.839 280.2 906.372 284.667 903.039 290.4C899.839 296 898.239 302.133 898.239 308.8C898.239 315.467 899.839 321.6 903.039 327.2C906.372 332.8 910.839 337.267 916.439 340.6C922.172 343.8 928.372 345.4 935.039 345.4ZM1049.78 258C1056.98 258 1063.58 259.8 1069.58 263.4C1075.72 266.867 1080.58 271.667 1084.18 277.8C1087.78 283.8 1089.58 290.4 1089.58 297.6V358H1075.78V297.6C1075.78 292.933 1074.58 288.667 1072.18 284.8C1069.92 280.8 1066.78 277.667 1062.78 275.4C1058.78 273 1054.45 271.8 1049.78 271.8C1045.12 271.8 1040.78 273 1036.78 275.4C1032.78 277.667 1029.58 280.8 1027.18 284.8C1024.92 288.667 1023.78 292.933 1023.78 297.6V358H1010.18V260.6H1023.78V269.4C1027.12 265.667 1030.98 262.867 1035.38 261C1039.92 259 1044.72 258 1049.78 258ZM1211.05 260.6V350.4C1211.05 359.467 1208.78 367.867 1204.25 375.6C1199.71 383.333 1193.58 389.4 1185.85 393.8C1178.11 398.333 1169.71 400.6 1160.65 400.6C1152.78 400.6 1145.38 398.933 1138.45 395.6C1131.65 392.267 1125.91 387.667 1121.25 381.8L1133.45 374.6C1136.78 378.467 1140.78 381.467 1145.45 383.6C1150.25 385.867 1155.31 387 1160.65 387C1167.31 387 1173.45 385.333 1179.05 382C1184.65 378.8 1189.05 374.4 1192.25 368.8C1195.58 363.2 1197.25 357.067 1197.25 350.4V339.2C1188.05 352.133 1175.78 358.6 1160.45 358.6C1151.51 358.6 1143.18 356.2 1135.45 351.4C1127.71 346.6 1121.58 340.267 1117.05 332.4C1112.51 324.4 1110.25 315.933 1110.25 307C1110.25 298.067 1112.51 289.867 1117.05 282.4C1121.58 274.933 1127.65 269 1135.25 264.6C1142.98 260.2 1151.38 258 1160.45 258C1169.78 258 1177.51 260 1183.65 264C1189.78 267.867 1194.31 272.067 1197.25 276.6V260.6H1211.05ZM1160.45 345C1167.11 345 1173.25 343.4 1178.85 340.2C1184.45 336.867 1188.85 332.4 1192.05 326.8C1195.38 321.2 1197.05 315.067 1197.05 308.4C1197.05 301.733 1195.38 295.6 1192.05 290C1188.85 284.4 1184.45 280 1178.85 276.8C1173.25 273.467 1167.11 271.8 1160.45 271.8C1153.78 271.8 1147.65 273.467 1142.05 276.8C1136.45 280 1131.98 284.4 1128.65 290C1125.31 295.6 1123.65 301.733 1123.65 308.4C1123.65 315.067 1125.31 321.2 1128.65 326.8C1131.98 332.4 1136.45 336.867 1142.05 340.2C1147.65 343.4 1153.78 345 1160.45 345ZM1284.2 359C1275.13 359 1266.66 356.733 1258.8 352.2C1251.06 347.667 1244.93 341.533 1240.4 333.8C1235.86 325.933 1233.6 317.467 1233.6 308.4C1233.6 299.2 1235.86 290.733 1240.4 283C1244.93 275.133 1251.06 268.933 1258.8 264.4C1266.66 259.733 1275.13 257.4 1284.2 257.4C1293.4 257.4 1301.86 259.733 1309.6 264.4C1317.46 268.933 1323.66 275.133 1328.2 283C1332.86 290.733 1335.2 299.2 1335.2 308.4C1335.2 317.467 1332.86 325.933 1328.2 333.8C1323.66 341.533 1317.46 347.667 1309.6 352.2C1301.86 356.733 1293.4 359 1284.2 359ZM1284.2 345.6C1291 345.6 1297.2 343.933 1302.8 340.6C1308.53 337.267 1313.06 332.733 1316.4 327C1319.73 321.267 1321.4 315.067 1321.4 308.4C1321.4 301.6 1319.73 295.333 1316.4 289.6C1313.06 283.867 1308.53 279.333 1302.8 276C1297.2 272.667 1291 271 1284.2 271C1277.53 271 1271.33 272.667 1265.6 276C1260 279.333 1255.53 283.867 1252.2 289.6C1248.86 295.333 1247.2 301.6 1247.2 308.4C1247.2 315.067 1248.86 321.267 1252.2 327C1255.53 332.733 1260 337.267 1265.6 340.6C1271.33 343.933 1277.53 345.6 1284.2 345.6ZM1371.37 225V358H1357.77V225H1371.37ZM1404.97 230.2C1407.37 230.2 1409.43 231.067 1411.17 232.8C1412.9 234.533 1413.77 236.6 1413.77 239C1413.77 241.533 1412.9 243.667 1411.17 245.4C1409.43 247.133 1407.37 248 1404.97 248C1402.43 248 1400.3 247.133 1398.57 245.4C1396.83 243.667 1395.97 241.533 1395.97 239C1395.97 236.6 1396.83 234.533 1398.57 232.8C1400.3 231.067 1402.43 230.2 1404.97 230.2ZM1411.77 258V358H1397.97V258H1411.77ZM1478.06 258C1485.26 258 1491.86 259.8 1497.86 263.4C1503.99 266.867 1508.86 271.667 1512.46 277.8C1516.06 283.8 1517.86 290.4 1517.86 297.6V358H1504.06V297.6C1504.06 292.933 1502.86 288.667 1500.46 284.8C1498.19 280.8 1495.06 277.667 1491.06 275.4C1487.06 273 1482.72 271.8 1478.06 271.8C1473.39 271.8 1469.06 273 1465.06 275.4C1461.06 277.667 1457.86 280.8 1455.46 284.8C1453.19 288.667 1452.06 292.933 1452.06 297.6V358H1438.46V260.6H1452.06V269.4C1455.39 265.667 1459.26 262.867 1463.66 261C1468.19 259 1472.99 258 1478.06 258ZM1681.56 359.4C1673.16 359.4 1665.42 357.333 1658.36 353.2C1651.29 348.933 1645.62 343.267 1641.36 336.2C1637.22 329.133 1635.16 321.4 1635.16 313V225H1648.56V313C1648.56 319 1650.02 324.533 1652.96 329.6C1655.89 334.533 1659.89 338.467 1664.96 341.4C1670.02 344.2 1675.56 345.6 1681.56 345.6C1687.56 345.6 1693.09 344.2 1698.16 341.4C1703.36 338.467 1707.42 334.533 1710.36 329.6C1713.29 324.533 1714.76 319 1714.76 313V225H1727.96V313C1727.96 321.4 1725.82 329.133 1721.56 336.2C1717.42 343.267 1711.82 348.933 1704.76 353.2C1697.69 357.333 1689.96 359.4 1681.56 359.4ZM1766.25 225V358H1752.65V225H1766.25Z" fill="black"/>
<path d="M850.6 230.8L851.364 229.509L850.6 230.8ZM866.2 246.4L867.491 245.636L866.2 246.4ZM866.2 288.8L867.491 289.564L866.2 288.8ZM850.6 304.4L851.344 305.702L851.354 305.697L851.364 305.691L850.6 304.4ZM805.8 310V308.5H804.3V310H805.8ZM805.8 358V359.5H807.3V358H805.8ZM792 358H790.5V359.5H792V358ZM792 225V223.5H790.5V225H792ZM843.6 292.8L844.348 294.1L844.361 294.093L843.6 292.8ZM854.2 282.2L852.907 281.439L852.9 281.452L854.2 282.2ZM854.2 253.2L852.9 253.948L852.908 253.963L852.917 253.977L854.2 253.2ZM843.6 242.8L842.823 244.083L842.845 244.097L842.868 244.109L843.6 242.8ZM805.8 238.8V237.3H804.3V238.8H805.8ZM805.8 296.6H804.3V298.1H805.8V296.6ZM829.2 226.5C836.67 226.5 843.538 228.364 849.836 232.091L851.364 229.509C844.595 225.503 837.197 223.5 829.2 223.5V226.5ZM849.836 232.091C856.152 235.829 861.171 240.848 864.909 247.164L867.491 245.636C863.496 238.886 858.114 233.504 851.364 229.509L849.836 232.091ZM864.909 247.164C868.639 253.466 870.5 260.268 870.5 267.6H873.5C873.5 259.732 871.495 252.401 867.491 245.636L864.909 247.164ZM870.5 267.6C870.5 274.932 868.639 281.734 864.909 288.036L867.491 289.564C871.495 282.799 873.5 275.468 873.5 267.6H870.5ZM864.909 288.036C861.171 294.352 856.152 299.371 849.836 303.109L851.364 305.691C858.114 301.696 863.496 296.314 867.491 289.564L864.909 288.036ZM849.856 303.098C843.556 306.698 836.68 308.5 829.2 308.5V311.5C837.187 311.5 844.578 309.569 851.344 305.702L849.856 303.098ZM829.2 308.5H805.8V311.5H829.2V308.5ZM804.3 310V358H807.3V310H804.3ZM805.8 356.5H792V359.5H805.8V356.5ZM793.5 358V225H790.5V358H793.5ZM792 226.5H829.2V223.5H792V226.5ZM829.2 298.1C834.656 298.1 839.715 296.768 844.348 294.1L842.852 291.5C838.685 293.899 834.144 295.1 829.2 295.1V298.1ZM844.361 294.093C849.109 291.299 852.832 287.582 855.5 282.948L852.9 281.452C850.501 285.618 847.157 288.967 842.839 291.507L844.361 294.093ZM855.493 282.961C858.294 278.199 859.7 273.071 859.7 267.6H856.7C856.7 272.529 855.44 277.134 852.907 281.439L855.493 282.961ZM859.7 267.6C859.7 262.129 858.293 257.06 855.483 252.423L852.917 253.977C855.44 258.14 856.7 262.671 856.7 267.6H859.7ZM855.5 252.452C852.828 247.811 849.096 244.153 844.332 241.491L842.868 244.109C847.171 246.514 850.505 249.789 852.9 253.948L855.5 252.452ZM844.377 241.517C839.74 238.707 834.671 237.3 829.2 237.3V240.3C834.129 240.3 838.66 241.56 842.823 244.083L844.377 241.517ZM829.2 237.3H805.8V240.3H829.2V237.3ZM804.3 238.8V296.6H807.3V238.8H804.3ZM805.8 298.1H829.2V295.1H805.8V298.1ZM985.639 260.6H987.139V259.1H985.639V260.6ZM985.639 358V359.5H987.139V358H985.639ZM971.839 358H970.339V359.5H971.839V358ZM971.839 339.6H973.339V334.904L970.617 338.731L971.839 339.6ZM909.639 352.4L908.88 353.694L908.889 353.699L908.897 353.704L909.639 352.4ZM891.239 334L889.935 334.742L889.94 334.75L889.945 334.759L891.239 334ZM891.239 283.4L889.945 282.641L889.94 282.65L889.935 282.658L891.239 283.4ZM909.639 265.2L910.381 266.504L910.389 266.499L910.398 266.494L909.639 265.2ZM958.239 264.4L957.407 265.648L957.423 265.659L957.439 265.669L958.239 264.4ZM971.839 277L970.58 277.815L973.339 282.079V277H971.839ZM971.839 260.6V259.1H970.339V260.6H971.839ZM953.439 340.6L954.183 341.902L954.195 341.896L954.206 341.889L953.439 340.6ZM966.639 327.2L965.35 326.433L965.343 326.444L965.337 326.456L966.639 327.2ZM966.639 290.4L965.329 291.131L965.339 291.149L965.35 291.167L966.639 290.4ZM953.439 277L952.672 278.289L952.683 278.296L952.695 278.302L953.439 277ZM916.439 277L917.183 278.302L917.193 278.297L916.439 277ZM903.039 290.4L901.742 289.646L901.737 289.656L903.039 290.4ZM903.039 327.2L901.737 327.944L901.743 327.956L901.75 327.967L903.039 327.2ZM916.439 340.6L915.672 341.889L915.69 341.9L915.708 341.91L916.439 340.6ZM984.139 260.6V358H987.139V260.6H984.139ZM985.639 356.5H971.839V359.5H985.639V356.5ZM973.339 358V339.6H970.339V358H973.339ZM970.617 338.731C961.686 351.285 949.867 357.5 935.039 357.5V360.5C950.878 360.5 963.592 353.782 973.061 340.469L970.617 338.731ZM935.039 357.5C926.09 357.5 917.88 355.363 910.381 351.096L908.897 353.704C916.865 358.237 925.588 360.5 935.039 360.5V357.5ZM910.398 351.106C902.886 346.702 896.937 340.753 892.533 333.241L889.945 334.759C894.608 342.713 900.926 349.031 908.88 353.694L910.398 351.106ZM892.543 333.258C888.274 325.755 886.139 317.612 886.139 308.8H883.139C883.139 318.122 885.404 326.778 889.935 334.742L892.543 333.258ZM886.139 308.8C886.139 299.851 888.276 291.641 892.543 284.142L889.935 282.658C885.402 290.625 883.139 299.349 883.139 308.8H886.139ZM892.533 284.159C896.934 276.65 902.878 270.773 910.381 266.504L908.897 263.896C900.933 268.427 894.61 274.683 889.945 282.641L892.533 284.159ZM910.398 266.494C917.895 262.099 926.098 259.9 935.039 259.9V256.9C925.58 256.9 916.85 259.234 908.88 263.906L910.398 266.494ZM935.039 259.9C944.301 259.9 951.72 261.857 957.407 265.648L959.071 263.152C952.758 258.943 944.711 256.9 935.039 256.9V259.9ZM957.439 265.669C963.448 269.457 967.798 273.516 970.58 277.815L973.098 276.185C970.013 271.418 965.297 267.076 959.039 263.131L957.439 265.669ZM973.339 277V260.6H970.339V277H973.339ZM971.839 262.1H985.639V259.1H971.839V262.1ZM935.039 346.9C941.958 346.9 948.349 345.236 954.183 341.902L952.695 339.298C947.329 342.364 941.454 343.9 935.039 343.9V346.9ZM954.206 341.889C960.026 338.425 964.612 333.771 967.941 327.944L965.337 326.456C962.266 331.829 958.052 336.109 952.672 339.311L954.206 341.889ZM967.928 327.967C971.403 322.13 973.139 315.73 973.139 308.8H970.139C970.139 315.203 968.542 321.07 965.35 326.433L967.928 327.967ZM973.139 308.8C973.139 301.87 971.403 295.47 967.928 289.633L965.35 291.167C968.542 296.53 970.139 302.397 970.139 308.8H973.139ZM967.949 289.669C964.618 283.702 960.025 279.036 954.183 275.698L952.695 278.302C958.053 281.364 962.26 285.632 965.329 291.131L967.949 289.669ZM954.206 275.711C948.369 272.236 941.969 270.5 935.039 270.5V273.5C941.442 273.5 947.309 275.097 952.672 278.289L954.206 275.711ZM935.039 270.5C928.109 270.5 921.649 272.236 915.685 275.703L917.193 278.297C922.696 275.097 928.636 273.5 935.039 273.5V270.5ZM915.695 275.698C909.859 279.032 905.204 283.691 901.742 289.646L904.336 291.154C907.54 285.642 911.819 281.368 917.183 278.302L915.695 275.698ZM901.737 289.656C898.403 295.49 896.739 301.881 896.739 308.8H899.739C899.739 302.385 901.275 296.51 904.341 291.144L901.737 289.656ZM896.739 308.8C896.739 315.719 898.403 322.11 901.737 327.944L904.341 326.456C901.275 321.09 899.739 315.215 899.739 308.8H896.739ZM901.75 327.967C905.211 333.782 909.857 338.428 915.672 341.889L917.206 339.311C911.821 336.105 907.534 331.818 904.328 326.433L901.75 327.967ZM915.708 341.91C921.668 345.237 928.121 346.9 935.039 346.9V343.9C928.624 343.9 922.676 342.363 917.17 339.29L915.708 341.91ZM1069.58 263.4L1068.81 264.686L1068.83 264.696L1068.85 264.706L1069.58 263.4ZM1084.18 277.8L1082.89 278.559L1082.89 278.566L1082.9 278.572L1084.18 277.8ZM1089.58 358V359.5H1091.08V358H1089.58ZM1075.78 358H1074.28V359.5H1075.78V358ZM1072.18 284.8L1070.88 285.54L1070.89 285.566L1070.91 285.591L1072.18 284.8ZM1062.78 275.4L1062.01 276.686L1062.03 276.696L1062.04 276.705L1062.78 275.4ZM1036.78 275.4L1037.52 276.705L1037.54 276.696L1037.56 276.686L1036.78 275.4ZM1027.18 284.8L1025.9 284.028L1025.89 284.035L1025.89 284.041L1027.18 284.8ZM1023.78 358V359.5H1025.28V358H1023.78ZM1010.18 358H1008.68V359.5H1010.18V358ZM1010.18 260.6V259.1H1008.68V260.6H1010.18ZM1023.78 260.6H1025.28V259.1H1023.78V260.6ZM1023.78 269.4H1022.28V273.332L1024.9 270.399L1023.78 269.4ZM1035.38 261L1035.97 262.381L1035.98 262.377L1035.99 262.372L1035.38 261ZM1049.78 259.5C1056.72 259.5 1063.05 261.23 1068.81 264.686L1070.36 262.114C1064.12 258.37 1057.25 256.5 1049.78 256.5V259.5ZM1068.85 264.706C1074.75 268.041 1079.42 272.652 1082.89 278.559L1085.48 277.041C1081.75 270.682 1076.69 265.692 1070.32 262.094L1068.85 264.706ZM1082.9 278.572C1086.35 284.332 1088.08 290.664 1088.08 297.6H1091.08C1091.08 290.136 1089.21 283.268 1085.47 277.028L1082.9 278.572ZM1088.08 297.6V358H1091.08V297.6H1088.08ZM1089.58 356.5H1075.78V359.5H1089.58V356.5ZM1077.28 358V297.6H1074.28V358H1077.28ZM1077.28 297.6C1077.28 292.661 1076.01 288.119 1073.46 284.009L1070.91 285.591C1073.16 289.214 1074.28 293.205 1074.28 297.6H1077.28ZM1073.49 284.06C1071.09 279.824 1067.76 276.495 1063.52 274.095L1062.04 276.705C1065.81 278.838 1068.75 281.776 1070.88 285.54L1073.49 284.06ZM1063.56 274.114C1059.32 271.574 1054.72 270.3 1049.78 270.3V273.3C1054.18 273.3 1058.25 274.426 1062.01 276.686L1063.56 274.114ZM1049.78 270.3C1044.85 270.3 1040.25 271.574 1036.01 274.114L1037.56 276.686C1041.32 274.426 1045.39 273.3 1049.78 273.3V270.3ZM1036.04 274.095C1031.82 276.491 1028.43 279.81 1025.9 284.028L1028.47 285.572C1030.74 281.79 1033.75 278.842 1037.52 276.705L1036.04 274.095ZM1025.89 284.041C1023.48 288.148 1022.28 292.678 1022.28 297.6H1025.28C1025.28 293.189 1026.35 289.185 1028.48 285.559L1025.89 284.041ZM1022.28 297.6V358H1025.28V297.6H1022.28ZM1023.78 356.5H1010.18V359.5H1023.78V356.5ZM1011.68 358V260.6H1008.68V358H1011.68ZM1010.18 262.1H1023.78V259.1H1010.18V262.1ZM1022.28 260.6V269.4H1025.28V260.6H1022.28ZM1024.9 270.399C1028.1 266.823 1031.78 264.157 1035.97 262.381L1034.8 259.619C1030.19 261.576 1026.14 264.511 1022.67 268.401L1024.9 270.399ZM1035.99 262.372C1040.33 260.458 1044.92 259.5 1049.78 259.5V256.5C1044.51 256.5 1039.51 257.542 1034.78 259.628L1035.99 262.372ZM1211.05 260.6H1212.55V259.1H1211.05V260.6ZM1204.25 375.6L1205.54 376.359L1204.25 375.6ZM1185.85 393.8L1185.1 392.496L1185.1 392.501L1185.09 392.506L1185.85 393.8ZM1138.45 395.6L1137.79 396.947L1137.8 396.952L1138.45 395.6ZM1121.25 381.8L1120.48 380.508L1119 381.384L1120.07 382.734L1121.25 381.8ZM1133.45 374.6L1134.58 373.621L1133.76 372.671L1132.68 373.308L1133.45 374.6ZM1145.45 383.6L1146.09 382.244L1146.08 382.24L1146.07 382.236L1145.45 383.6ZM1179.05 382L1178.3 380.698L1178.29 380.704L1178.28 380.711L1179.05 382ZM1192.25 368.8L1190.96 368.033L1190.95 368.044L1190.94 368.056L1192.25 368.8ZM1197.25 339.2H1198.75V334.504L1196.02 338.331L1197.25 339.2ZM1135.45 351.4L1134.65 352.674L1135.45 351.4ZM1117.05 332.4L1115.74 333.14L1115.75 333.149L1117.05 332.4ZM1117.05 282.4L1115.76 281.622L1117.05 282.4ZM1135.25 264.6L1134.5 263.296L1134.49 263.302L1135.25 264.6ZM1183.65 264L1182.83 265.256L1182.84 265.263L1182.85 265.269L1183.65 264ZM1197.25 276.6L1195.99 277.415L1198.75 281.679V276.6H1197.25ZM1197.25 260.6V259.1H1195.75V260.6H1197.25ZM1178.85 340.2L1179.59 341.502L1179.6 341.496L1179.61 341.489L1178.85 340.2ZM1192.05 326.8L1190.76 326.033L1190.75 326.044L1190.74 326.056L1192.05 326.8ZM1192.05 290L1190.74 290.744L1190.75 290.756L1190.76 290.767L1192.05 290ZM1178.85 276.8L1178.08 278.089L1178.09 278.096L1178.1 278.102L1178.85 276.8ZM1142.05 276.8L1142.79 278.102L1142.8 278.096L1142.81 278.089L1142.05 276.8ZM1128.65 290L1129.93 290.767L1128.65 290ZM1128.65 326.8L1127.36 327.567L1128.65 326.8ZM1142.05 340.2L1141.28 341.489L1141.29 341.496L1141.3 341.502L1142.05 340.2ZM1209.55 260.6V350.4H1212.55V260.6H1209.55ZM1209.55 350.4C1209.55 359.203 1207.35 367.341 1202.95 374.841L1205.54 376.359C1210.21 368.392 1212.55 359.73 1212.55 350.4H1209.55ZM1202.95 374.841C1198.55 382.35 1192.61 388.227 1185.1 392.496L1186.59 395.104C1194.55 390.573 1200.87 384.317 1205.54 376.359L1202.95 374.841ZM1185.09 392.506C1177.59 396.903 1169.45 399.1 1160.65 399.1V402.1C1169.98 402.1 1178.64 399.764 1186.6 395.094L1185.09 392.506ZM1160.65 399.1C1153 399.1 1145.82 397.482 1139.1 394.248L1137.8 396.952C1144.94 400.385 1152.56 402.1 1160.65 402.1V399.1ZM1139.11 394.253C1132.5 391.017 1126.95 386.557 1122.42 380.866L1120.07 382.734C1124.88 388.776 1130.79 393.517 1137.79 396.947L1139.11 394.253ZM1122.01 383.092L1134.21 375.892L1132.68 373.308L1120.48 380.508L1122.01 383.092ZM1132.31 375.579C1135.78 379.611 1139.96 382.742 1144.82 384.964L1146.07 382.236C1141.6 380.192 1137.77 377.323 1134.58 373.621L1132.31 375.579ZM1144.8 384.956C1149.81 387.318 1155.09 388.5 1160.65 388.5V385.5C1155.53 385.5 1150.68 384.415 1146.09 382.244L1144.8 384.956ZM1160.65 388.5C1167.58 388.5 1173.97 386.764 1179.81 383.289L1178.28 380.711C1172.92 383.903 1167.05 385.5 1160.65 385.5V388.5ZM1179.79 383.302C1185.62 379.969 1190.21 375.377 1193.55 369.544L1190.94 368.056C1187.88 373.423 1183.67 377.631 1178.3 380.698L1179.79 383.302ZM1193.53 369.567C1197.01 363.73 1198.75 357.33 1198.75 350.4H1195.75C1195.75 356.803 1194.15 362.67 1190.96 368.033L1193.53 369.567ZM1198.75 350.4V339.2H1195.75V350.4H1198.75ZM1196.02 338.331C1187.09 350.885 1175.27 357.1 1160.45 357.1V360.1C1176.28 360.1 1189 353.382 1198.47 340.069L1196.02 338.331ZM1160.45 357.1C1151.8 357.1 1143.74 354.781 1136.24 350.126L1134.65 352.674C1142.62 357.619 1151.23 360.1 1160.45 360.1V357.1ZM1136.24 350.126C1128.71 345.456 1122.75 339.303 1118.34 331.651L1115.75 333.149C1120.4 341.231 1126.71 347.744 1134.65 352.674L1136.24 350.126ZM1118.35 331.66C1113.94 323.879 1111.75 315.666 1111.75 307H1108.75C1108.75 316.2 1111.08 324.921 1115.74 333.14L1118.35 331.66ZM1111.75 307C1111.75 298.335 1113.94 290.405 1118.33 283.178L1115.76 281.622C1111.08 289.328 1108.75 297.799 1108.75 307H1111.75ZM1118.33 283.178C1122.73 275.928 1128.61 270.173 1136 265.898L1134.49 263.302C1126.68 267.827 1120.43 273.939 1115.76 281.622L1118.33 283.178ZM1135.99 265.904C1143.49 261.635 1151.63 259.5 1160.45 259.5V256.5C1151.12 256.5 1142.47 258.765 1134.5 263.296L1135.99 265.904ZM1160.45 259.5C1169.57 259.5 1177 261.454 1182.83 265.256L1184.46 262.744C1178.03 258.546 1169.99 256.5 1160.45 256.5V259.5ZM1182.85 265.269C1188.85 269.057 1193.2 273.116 1195.99 277.415L1198.5 275.785C1195.42 271.018 1190.7 266.676 1184.45 262.731L1182.85 265.269ZM1198.75 276.6V260.6H1195.75V276.6H1198.75ZM1197.25 262.1H1211.05V259.1H1197.25V262.1ZM1160.45 346.5C1167.36 346.5 1173.76 344.836 1179.59 341.502L1178.1 338.898C1172.74 341.964 1166.86 343.5 1160.45 343.5V346.5ZM1179.61 341.489C1185.43 338.025 1190.02 333.371 1193.35 327.544L1190.74 326.056C1187.67 331.429 1183.46 335.709 1178.08 338.911L1179.61 341.489ZM1193.33 327.567C1196.81 321.73 1198.55 315.33 1198.55 308.4H1195.55C1195.55 314.803 1193.95 320.67 1190.76 326.033L1193.33 327.567ZM1198.55 308.4C1198.55 301.47 1196.81 295.07 1193.33 289.233L1190.76 290.767C1193.95 296.13 1195.55 301.997 1195.55 308.4H1198.55ZM1193.35 289.256C1190.01 283.423 1185.42 278.831 1179.59 275.498L1178.1 278.102C1183.47 281.169 1187.68 285.377 1190.74 290.744L1193.35 289.256ZM1179.61 275.511C1173.77 272.036 1167.38 270.3 1160.45 270.3V273.3C1166.85 273.3 1172.72 274.897 1178.08 278.089L1179.61 275.511ZM1160.45 270.3C1153.52 270.3 1147.12 272.036 1141.28 275.511L1142.81 278.089C1148.17 274.897 1154.04 273.3 1160.45 273.3V270.3ZM1141.3 275.498C1135.47 278.827 1130.82 283.413 1127.36 289.233L1129.93 290.767C1133.14 285.387 1137.42 281.173 1142.79 278.102L1141.3 275.498ZM1127.36 289.233C1123.88 295.07 1122.15 301.47 1122.15 308.4H1125.15C1125.15 301.997 1126.74 296.13 1129.93 290.767L1127.36 289.233ZM1122.15 308.4C1122.15 315.33 1123.88 321.73 1127.36 327.567L1129.93 326.033C1126.74 320.67 1125.15 314.803 1125.15 308.4H1122.15ZM1127.36 327.567C1130.82 333.382 1135.46 338.028 1141.28 341.489L1142.81 338.911C1137.43 335.705 1133.14 331.418 1129.93 326.033L1127.36 327.567ZM1141.3 341.502C1147.14 344.836 1153.53 346.5 1160.45 346.5V343.5C1154.03 343.5 1148.16 341.964 1142.79 338.898L1141.3 341.502ZM1258.8 352.2L1258.04 353.494L1258.05 353.5L1258.8 352.2ZM1240.4 333.8L1239.1 334.549L1239.1 334.559L1240.4 333.8ZM1240.4 283L1241.69 283.759L1241.69 283.749L1240.4 283ZM1258.8 264.4L1259.55 265.694L1259.56 265.69L1258.8 264.4ZM1309.6 264.4L1308.82 265.684L1308.83 265.692L1308.85 265.7L1309.6 264.4ZM1328.2 283L1326.9 283.749L1326.9 283.762L1326.91 283.775L1328.2 283ZM1328.2 333.8L1326.91 333.035L1326.9 333.041L1328.2 333.8ZM1309.6 352.2L1308.85 350.9L1308.84 350.906L1309.6 352.2ZM1302.8 340.6L1302.04 339.303L1302.03 339.307L1302.03 339.311L1302.8 340.6ZM1316.4 327L1317.69 327.754L1316.4 327ZM1316.4 289.6L1315.1 290.354L1316.4 289.6ZM1302.8 276L1302.03 277.289L1302.03 277.293L1302.04 277.297L1302.8 276ZM1265.6 276L1264.84 274.703L1264.83 274.707L1264.83 274.711L1265.6 276ZM1252.2 289.6L1253.49 290.354L1252.2 289.6ZM1252.2 327L1250.9 327.754L1252.2 327ZM1265.6 340.6L1264.83 341.889L1264.83 341.893L1264.84 341.897L1265.6 340.6ZM1284.2 357.5C1275.39 357.5 1267.18 355.303 1259.54 350.9L1258.05 353.5C1266.14 358.164 1274.87 360.5 1284.2 360.5V357.5ZM1259.55 350.906C1252.04 346.502 1246.09 340.553 1241.69 333.041L1239.1 334.559C1243.76 342.513 1250.08 348.831 1258.04 353.494L1259.55 350.906ZM1241.69 333.051C1237.29 325.412 1235.1 317.203 1235.1 308.4H1232.1C1232.1 317.73 1234.43 326.455 1239.1 334.549L1241.69 333.051ZM1235.1 308.4C1235.1 299.459 1237.29 291.256 1241.69 283.759L1239.1 282.241C1234.43 290.211 1232.1 298.941 1232.1 308.4H1235.1ZM1241.69 283.749C1246.1 276.105 1252.05 270.094 1259.55 265.694L1258.04 263.106C1250.08 267.773 1243.76 274.162 1239.1 282.251L1241.69 283.749ZM1259.56 265.69C1267.2 261.16 1275.4 258.9 1284.2 258.9V255.9C1274.86 255.9 1266.13 258.307 1258.03 263.11L1259.56 265.69ZM1284.2 258.9C1293.13 258.9 1301.33 261.161 1308.82 265.684L1310.37 263.116C1302.4 258.305 1293.66 255.9 1284.2 255.9V258.9ZM1308.85 265.7C1316.48 270.101 1322.49 276.111 1326.9 283.749L1329.49 282.251C1324.83 274.156 1318.44 267.766 1310.34 263.1L1308.85 265.7ZM1326.91 283.775C1331.43 291.27 1333.7 299.468 1333.7 308.4H1336.7C1336.7 298.932 1334.29 290.197 1329.48 282.225L1326.91 283.775ZM1333.7 308.4C1333.7 317.195 1331.44 325.398 1326.91 333.035L1329.49 334.565C1334.29 326.469 1336.7 317.738 1336.7 308.4H1333.7ZM1326.9 333.041C1322.5 340.547 1316.49 346.495 1308.85 350.9L1310.34 353.5C1318.43 348.838 1324.82 342.52 1329.49 334.559L1326.9 333.041ZM1308.84 350.906C1301.34 355.301 1293.14 357.5 1284.2 357.5V360.5C1293.65 360.5 1302.38 358.166 1310.35 353.494L1308.84 350.906ZM1284.2 347.1C1291.25 347.1 1297.72 345.367 1303.56 341.889L1302.03 339.311C1296.67 342.5 1290.74 344.1 1284.2 344.1V347.1ZM1303.55 341.897C1309.51 338.433 1314.23 333.712 1317.69 327.754L1315.1 326.246C1311.9 331.754 1307.55 336.101 1302.04 339.303L1303.55 341.897ZM1317.69 327.754C1321.16 321.79 1322.9 315.33 1322.9 308.4H1319.9C1319.9 314.803 1318.3 320.743 1315.1 326.246L1317.69 327.754ZM1322.9 308.4C1322.9 301.342 1321.16 294.814 1317.69 288.846L1315.1 290.354C1318.3 295.852 1319.9 301.858 1319.9 308.4H1322.9ZM1317.69 288.846C1314.23 282.888 1309.51 278.167 1303.55 274.703L1302.04 277.297C1307.55 280.499 1311.9 284.846 1315.1 290.354L1317.69 288.846ZM1303.56 274.711C1297.72 271.233 1291.25 269.5 1284.2 269.5V272.5C1290.74 272.5 1296.67 274.1 1302.03 277.289L1303.56 274.711ZM1284.2 269.5C1277.27 269.5 1270.8 271.236 1264.84 274.703L1266.35 277.297C1271.85 274.097 1277.79 272.5 1284.2 272.5V269.5ZM1264.83 274.711C1259 278.177 1254.36 282.896 1250.9 288.846L1253.49 290.354C1256.7 284.837 1260.99 280.489 1266.36 277.289L1264.83 274.711ZM1250.9 288.846C1247.43 294.814 1245.7 301.342 1245.7 308.4H1248.7C1248.7 301.858 1250.3 295.852 1253.49 290.354L1250.9 288.846ZM1245.7 308.4C1245.7 315.33 1247.43 321.79 1250.9 327.754L1253.49 326.246C1250.29 320.743 1248.7 314.803 1248.7 308.4H1245.7ZM1250.9 327.754C1254.36 333.704 1259 338.423 1264.83 341.889L1266.36 339.311C1260.99 336.111 1256.7 331.763 1253.49 326.246L1250.9 327.754ZM1264.84 341.897C1270.8 345.364 1277.27 347.1 1284.2 347.1V344.1C1277.79 344.1 1271.85 342.503 1266.35 339.303L1264.84 341.897ZM1371.37 225H1372.87V223.5H1371.37V225ZM1371.37 358V359.5H1372.87V358H1371.37ZM1357.77 358H1356.27V359.5H1357.77V358ZM1357.77 225V223.5H1356.27V225H1357.77ZM1369.87 225V358H1372.87V225H1369.87ZM1371.37 356.5H1357.77V359.5H1371.37V356.5ZM1359.27 358V225H1356.27V358H1359.27ZM1357.77 226.5H1371.37V223.5H1357.77V226.5ZM1411.17 232.8L1410.11 233.861L1411.17 232.8ZM1411.17 245.4L1410.11 244.339L1411.17 245.4ZM1398.57 245.4L1397.51 246.461L1398.57 245.4ZM1398.57 232.8L1397.51 231.739L1398.57 232.8ZM1411.77 258H1413.27V256.5H1411.77V258ZM1411.77 358V359.5H1413.27V358H1411.77ZM1397.97 358H1396.47V359.5H1397.97V358ZM1397.97 258V256.5H1396.47V258H1397.97ZM1404.97 231.7C1406.96 231.7 1408.65 232.402 1410.11 233.861L1412.23 231.739C1410.22 229.731 1407.77 228.7 1404.97 228.7V231.7ZM1410.11 233.861C1411.57 235.319 1412.27 237.007 1412.27 239H1415.27C1415.27 236.193 1414.24 233.747 1412.23 231.739L1410.11 233.861ZM1412.27 239C1412.27 241.15 1411.55 242.898 1410.11 244.339L1412.23 246.461C1414.25 244.436 1415.27 241.916 1415.27 239H1412.27ZM1410.11 244.339C1408.65 245.798 1406.96 246.5 1404.97 246.5V249.5C1407.77 249.5 1410.22 248.469 1412.23 246.461L1410.11 244.339ZM1404.97 246.5C1402.82 246.5 1401.07 245.781 1399.63 244.339L1397.51 246.461C1399.53 248.486 1402.05 249.5 1404.97 249.5V246.5ZM1399.63 244.339C1398.19 242.898 1397.47 241.15 1397.47 239H1394.47C1394.47 241.916 1395.48 244.436 1397.51 246.461L1399.63 244.339ZM1397.47 239C1397.47 237.007 1398.17 235.319 1399.63 233.861L1397.51 231.739C1395.5 233.747 1394.47 236.193 1394.47 239H1397.47ZM1399.63 233.861C1401.07 232.419 1402.82 231.7 1404.97 231.7V228.7C1402.05 228.7 1399.53 229.714 1397.51 231.739L1399.63 233.861ZM1410.27 258V358H1413.27V258H1410.27ZM1411.77 356.5H1397.97V359.5H1411.77V356.5ZM1399.47 358V258H1396.47V358H1399.47ZM1397.97 259.5H1411.77V256.5H1397.97V259.5ZM1497.86 263.4L1497.09 264.686L1497.1 264.696L1497.12 264.706L1497.86 263.4ZM1512.46 277.8L1511.16 278.559L1511.17 278.566L1511.17 278.572L1512.46 277.8ZM1517.86 358V359.5H1519.36V358H1517.86ZM1504.06 358H1502.56V359.5H1504.06V358ZM1500.46 284.8L1499.15 285.54L1499.17 285.566L1499.18 285.591L1500.46 284.8ZM1491.06 275.4L1490.29 276.686L1490.3 276.696L1490.32 276.705L1491.06 275.4ZM1465.06 275.4L1465.8 276.705L1465.81 276.696L1465.83 276.686L1465.06 275.4ZM1455.46 284.8L1454.17 284.028L1454.17 284.035L1454.16 284.041L1455.46 284.8ZM1452.06 358V359.5H1453.56V358H1452.06ZM1438.46 358H1436.96V359.5H1438.46V358ZM1438.46 260.6V259.1H1436.96V260.6H1438.46ZM1452.06 260.6H1453.56V259.1H1452.06V260.6ZM1452.06 269.4H1450.56V273.332L1453.18 270.399L1452.06 269.4ZM1463.66 261L1464.24 262.381L1464.25 262.377L1464.26 262.372L1463.66 261ZM1478.06 259.5C1484.99 259.5 1491.33 261.23 1497.09 264.686L1498.63 262.114C1492.39 258.37 1485.52 256.5 1478.06 256.5V259.5ZM1497.12 264.706C1503.02 268.041 1507.7 272.652 1511.16 278.559L1513.75 277.041C1510.02 270.682 1504.96 265.692 1498.6 262.094L1497.12 264.706ZM1511.17 278.572C1514.63 284.332 1516.36 290.664 1516.36 297.6H1519.36C1519.36 290.136 1517.49 283.268 1513.74 277.028L1511.17 278.572ZM1516.36 297.6V358H1519.36V297.6H1516.36ZM1517.86 356.5H1504.06V359.5H1517.86V356.5ZM1505.56 358V297.6H1502.56V358H1505.56ZM1505.56 297.6C1505.56 292.661 1504.28 288.119 1501.73 284.009L1499.18 285.591C1501.43 289.214 1502.56 293.205 1502.56 297.6H1505.56ZM1501.76 284.06C1499.36 279.824 1496.03 276.495 1491.8 274.095L1490.32 276.705C1494.08 278.838 1497.02 281.776 1499.15 285.54L1501.76 284.06ZM1491.83 274.114C1487.6 271.574 1483 270.3 1478.06 270.3V273.3C1482.45 273.3 1486.52 274.426 1490.29 276.686L1491.83 274.114ZM1478.06 270.3C1473.12 270.3 1468.52 271.574 1464.29 274.114L1465.83 276.686C1469.6 274.426 1473.66 273.3 1478.06 273.3V270.3ZM1464.32 274.095C1460.09 276.491 1456.7 279.81 1454.17 284.028L1456.74 285.572C1459.01 281.79 1462.03 278.842 1465.8 276.705L1464.32 274.095ZM1454.16 284.041C1451.76 288.148 1450.56 292.678 1450.56 297.6H1453.56C1453.56 293.189 1454.63 289.185 1456.75 285.559L1454.16 284.041ZM1450.56 297.6V358H1453.56V297.6H1450.56ZM1452.06 356.5H1438.46V359.5H1452.06V356.5ZM1439.96 358V260.6H1436.96V358H1439.96ZM1438.46 262.1H1452.06V259.1H1438.46V262.1ZM1450.56 260.6V269.4H1453.56V260.6H1450.56ZM1453.18 270.399C1456.37 266.823 1460.06 264.157 1464.24 262.381L1463.07 259.619C1458.46 261.576 1454.41 264.511 1450.94 268.401L1453.18 270.399ZM1464.26 262.372C1468.6 260.458 1473.19 259.5 1478.06 259.5V256.5C1472.79 256.5 1467.78 257.542 1463.05 259.628L1464.26 262.372ZM1658.36 353.2L1657.58 354.484L1657.59 354.49L1657.6 354.495L1658.36 353.2ZM1641.36 336.2L1640.06 336.957L1640.07 336.966L1640.07 336.975L1641.36 336.2ZM1635.16 225V223.5H1633.66V225H1635.16ZM1648.56 225H1650.06V223.5H1648.56V225ZM1652.96 329.6L1651.66 330.352L1651.66 330.359L1651.67 330.367L1652.96 329.6ZM1664.96 341.4L1664.21 342.698L1664.22 342.706L1664.23 342.713L1664.96 341.4ZM1698.16 341.4L1698.88 342.713L1698.89 342.706L1698.16 341.4ZM1710.36 329.6L1711.65 330.367L1711.65 330.359L1711.66 330.352L1710.36 329.6ZM1714.76 225V223.5H1713.26V225H1714.76ZM1727.96 225H1729.46V223.5H1727.96V225ZM1721.56 336.2L1720.27 335.425L1720.27 335.434L1720.26 335.443L1721.56 336.2ZM1704.76 353.2L1705.52 354.495L1705.52 354.49L1705.53 354.484L1704.76 353.2ZM1681.56 357.9C1673.42 357.9 1665.95 355.901 1659.12 351.905L1657.6 354.495C1664.9 358.766 1672.9 360.9 1681.56 360.9V357.9ZM1659.13 351.916C1652.27 347.775 1646.78 342.283 1642.64 335.425L1640.07 336.975C1644.47 344.25 1650.31 350.092 1657.58 354.484L1659.13 351.916ZM1642.65 335.443C1638.66 328.612 1636.66 321.141 1636.66 313H1633.66C1633.66 321.659 1635.79 329.655 1640.06 336.957L1642.65 335.443ZM1636.66 313V225H1633.66V313H1636.66ZM1635.16 226.5H1648.56V223.5H1635.16V226.5ZM1647.06 225V313H1650.06V225H1647.06ZM1647.06 313C1647.06 319.257 1648.59 325.051 1651.66 330.352L1654.26 328.848C1651.46 324.016 1650.06 318.743 1650.06 313H1647.06ZM1651.67 330.367C1654.74 335.525 1658.92 339.639 1664.21 342.698L1665.71 340.102C1660.86 337.294 1657.05 333.542 1654.25 328.833L1651.67 330.367ZM1664.23 342.713C1669.53 345.64 1675.31 347.1 1681.56 347.1V344.1C1675.8 344.1 1670.52 342.76 1665.68 340.087L1664.23 342.713ZM1681.56 347.1C1687.8 347.1 1693.59 345.64 1698.88 342.713L1697.43 340.087C1692.6 342.76 1687.31 344.1 1681.56 344.1V347.1ZM1698.89 342.706C1704.31 339.65 1708.57 335.534 1711.65 330.367L1709.07 328.833C1706.27 333.532 1702.4 337.283 1697.42 340.094L1698.89 342.706ZM1711.66 330.352C1714.72 325.051 1716.26 319.257 1716.26 313H1713.26C1713.26 318.743 1711.86 324.016 1709.06 328.848L1711.66 330.352ZM1716.26 313V225H1713.26V313H1716.26ZM1714.76 226.5H1727.96V223.5H1714.76V226.5ZM1726.46 225V313H1729.46V225H1726.46ZM1726.46 313C1726.46 321.132 1724.4 328.596 1720.27 335.425L1722.84 336.975C1727.25 329.67 1729.46 321.668 1729.46 313H1726.46ZM1720.26 335.443C1716.26 342.291 1710.84 347.778 1703.98 351.916L1705.53 354.484C1712.81 350.089 1718.59 344.242 1722.85 336.957L1720.26 335.443ZM1704 351.905C1697.17 355.901 1689.7 357.9 1681.56 357.9V360.9C1690.22 360.9 1698.21 358.766 1705.52 354.495L1704 351.905ZM1766.25 225H1767.75V223.5H1766.25V225ZM1766.25 358V359.5H1767.75V358H1766.25ZM1752.65 358H1751.15V359.5H1752.65V358ZM1752.65 225V223.5H1751.15V225H1752.65ZM1764.75 225V358H1767.75V225H1764.75ZM1766.25 356.5H1752.65V359.5H1766.25V356.5ZM1754.15 358V225H1751.15V358H1754.15ZM1752.65 226.5H1766.25V223.5H1752.65V226.5Z" fill="black"/>
<defs>
<linearGradient id="paint0_linear" x1="394.117" y1="122.431" x2="278.361" y2="391.498" gradientUnits="userSpaceOnUse">
<stop stop-color="#FA3E30"/>
<stop offset="1" stop-color="#FFC107"/>
</linearGradient>
<linearGradient id="paint1_linear" x1="294.329" y1="407.767" x2="584.753" y2="369.687" gradientUnits="userSpaceOnUse">
<stop stop-color="#FA3E30"/>
<stop offset="1" stop-color="#FFC107"/>
</linearGradient>
<linearGradient id="paint2_linear" x1="593.456" y1="359.478" x2="432.77" y2="114.578" gradientUnits="userSpaceOnUse">
<stop stop-color="#FA3E30"/>
<stop offset="1" stop-color="#FFC107"/>
</linearGradient>
</defs>
</svg>
