<?xml version="1.0" standalone="no"?><!-- Generator: Gravit.io --><svg xmlns="http://www.w3.org/2000/svg" xmlns:xlink="http://www.w3.org/1999/xlink" style="isolation:isolate" viewBox="0 0 2048 2048" width="2048px" height="2048px"><defs><clipPath id="_clipPath_yYX7HVDOhB0mZuJVPbsTWKdvIY6n84jX"><rect width="2048" height="2048"/></clipPath></defs><g clip-path="url(#_clipPath_yYX7HVDOhB0mZuJVPbsTWKdvIY6n84jX)"><circle vector-effect="non-scaling-stroke" cx="1024.0000000000002" cy="1024.0000000000005" r="1024.0000000000002" fill="rgb(255,255,255)"/><path d="M 831.5 396 L 1631.5 396 C 1659.096 396 1681.5 418.404 1681.5 446 L 1681.5 1602 C 1681.5 1629.596 1659.096 1652 1631.5 1652 L 831.5 1652 C 803.904 1652 781.5 1629.596 781.5 1602 L 781.5 446 C 781.5 418.404 803.904 396 831.5 396 Z" style="stroke:none;fill:#FFBB00;stroke-miterlimit:10;"/><path d="M 881.5 396 L 1581.5 396 C 1636.692 396 1681.5 440.808 1681.5 496 L 1681.5 1243 L 781.5 1243 L 781.5 496 C 781.5 440.808 826.308 396 881.5 396 Z" style="stroke:none;fill:#FFCF4D;stroke-miterlimit:10;"/><path d="M 831.5 396 L 1631.5 396 C 1659.096 396 1681.5 418.404 1681.5 446 L 1681.5 819.5 L 781.5 819.5 L 781.5 446 C 781.5 418.404 803.904 396 831.5 396 Z" style="stroke:none;fill:#FFEBB3;stroke-miterlimit:10;"/><defs><filter id="u3HD94BoCJRMXRoOkmqLoYspEm6SzouC" x="-200%" y="-200%" width="400%" height="400%" filterUnits="objectBoundingBox" color-interpolation-filters="sRGB"><feGaussianBlur xmlns="http://www.w3.org/2000/svg" in="SourceGraphic" stdDeviation="42.93609062839028"/><feOffset xmlns="http://www.w3.org/2000/svg" dx="50" dy="50" result="pf_100_offsetBlur"/><feFlood xmlns="http://www.w3.org/2000/svg" flood-color="#000000" flood-opacity="0.2"/><feComposite xmlns="http://www.w3.org/2000/svg" in2="pf_100_offsetBlur" operator="in" result="pf_100_dropShadow"/><feBlend xmlns="http://www.w3.org/2000/svg" in="SourceGraphic" in2="pf_100_dropShadow" mode="normal"/></filter></defs><g filter="url(#u3HD94BoCJRMXRoOkmqLoYspEm6SzouC)"><path d="M 441.5 661 L 916.5 661 C 957.894 661 991.5 694.606 991.5 736 L 991.5 1211 C 991.5 1252.394 957.894 1286 916.5 1286 L 441.5 1286 C 400.106 1286 366.5 1252.394 366.5 1211 L 366.5 736 C 366.5 694.606 400.106 661 441.5 661 Z" style="stroke:none;fill:#FFAC00;stroke-miterlimit:10;"/></g><g><path d=" M 871 1085.5 L 871 1165.5 L 791 1165.5 L 555.053 929.553 L 635.053 849.553 L 871 1085.5 Z  M 493.187 867.687 C 484.867 859.367 484.867 845.927 493.187 837.607 L 543.107 787.687 C 551.427 779.367 564.867 779.367 573.187 787.687 L 612.227 826.727 L 532.227 906.727 L 493.187 867.687 Z " fill="rgb(255,255,255)"/><path d=" M 935 717.5 L 423 717.5 L 423 1229.5 L 935 1229.5 L 935 717.5 Z " fill="none"/></g></g></svg>