<svg width="5406" height="1500" viewBox="0 0 5406 1500" fill="none" xmlns="http://www.w3.org/2000/svg">
<circle cx="750" cy="750" r="750" fill="white"/>
<path d="M356.04 356.04H1143.96V1143.96H356.04V356.04Z" fill="url(#paint0_linear)"/>
<path d="M192.857 750L750 192.857L1307.14 750L750 1307.14L192.857 750Z" fill="url(#paint1_linear)"/>
<circle cx="750" cy="750" r="300" fill="white"/>
<path d="M2266.3 1011H2206V927.3C2162.2 986.1 2106.1 1015.5 2037.7 1015.5C1996.3 1015.5 1958.2 1005.3 1923.4 984.9C1888.6 964.5 1861 936.9 1840.6 902.1C1820.2 866.7 1810 828.6 1810 787.8C1810 747 1820.2 709.2 1840.6 674.4C1861 639 1888.6 611.1 1923.4 590.7C1958.2 570.3 1996.3 560.1 2037.7 560.1C2108.5 560.1 2164.6 588 2206 643.8V413.4H2266.3V1011ZM2204.2 787.8C2204.2 757.8 2196.7 730.2 2181.7 705C2166.7 679.8 2146.3 659.7 2120.5 644.7C2095.3 629.7 2067.7 622.2 2037.7 622.2C2007.7 622.2 1980.1 629.7 1954.9 644.7C1929.7 659.7 1909.6 679.8 1894.6 705C1879.6 730.2 1872.1 757.8 1872.1 787.8C1872.1 817.8 1879.6 845.7 1894.6 871.5C1909.6 896.7 1929.7 916.8 1954.9 931.8C1980.1 946.8 2007.7 954.3 2037.7 954.3C2067.7 954.3 2095.3 946.8 2120.5 931.8C2146.3 916.8 2166.7 896.7 2181.7 871.5C2196.7 845.7 2204.2 817.8 2204.2 787.8ZM2822.21 572.7V1011H2760.11V928.2C2718.71 986.4 2663.51 1015.5 2594.51 1015.5C2553.11 1015.5 2515.01 1005.6 2480.21 985.8C2445.41 965.4 2417.81 937.8 2397.41 903C2377.61 868.2 2367.71 830.4 2367.71 789.6C2367.71 748.2 2377.61 710.1 2397.41 675.3C2417.81 640.5 2445.41 613.2 2480.21 593.4C2515.01 573 2553.11 562.8 2594.51 562.8C2637.11 562.8 2671.91 571.8 2698.91 589.8C2726.51 607.2 2746.91 626.1 2760.11 646.5V572.7H2822.21ZM2594.51 954.3C2624.51 954.3 2652.11 947.1 2677.31 932.7C2702.51 917.7 2722.31 897.6 2736.71 872.4C2751.71 847.2 2759.21 819.6 2759.21 789.6C2759.21 759.6 2751.71 732 2736.71 706.8C2722.31 681 2702.51 660.9 2677.31 646.5C2652.11 631.5 2624.51 624 2594.51 624C2564.51 624 2536.61 631.5 2510.81 646.5C2485.61 660.9 2465.51 681 2450.51 706.8C2436.11 732 2428.91 759.6 2428.91 789.6C2428.91 819.6 2436.11 847.2 2450.51 872.4C2465.51 897.6 2485.61 917.7 2510.81 932.7C2536.61 947.1 2564.51 954.3 2594.51 954.3ZM3111.77 557.4C3144.17 557.4 3173.87 565.5 3200.87 581.7C3228.47 597.3 3250.07 618.9 3265.67 646.5C3281.87 673.5 3289.97 703.2 3289.97 735.6V1011H3227.87V735.6C3227.87 714.6 3222.47 695.1 3211.67 677.1C3201.47 659.1 3187.37 645 3169.37 634.8C3151.97 624 3132.77 618.6 3111.77 618.6C3090.77 618.6 3071.27 624 3053.27 634.8C3035.27 645 3020.87 659.1 3010.07 677.1C2999.87 695.1 2994.77 714.6 2994.77 735.6V1011H2932.67V410.7H2994.77V607.8C3009.17 591 3026.27 578.4 3046.07 570C3066.47 561.6 3088.37 557.4 3111.77 557.4ZM3461.93 412.5V1011H3400.73V412.5H3461.93ZM3613.1 435.9C3623.9 435.9 3633.2 439.8 3641 447.6C3648.8 455.4 3652.7 464.7 3652.7 475.5C3652.7 486.9 3648.8 496.5 3641 504.3C3633.2 512.1 3623.9 516 3613.1 516C3601.7 516 3592.1 512.1 3584.3 504.3C3576.5 496.5 3572.6 486.9 3572.6 475.5C3572.6 464.7 3576.5 455.4 3584.3 447.6C3592.1 439.8 3601.7 435.9 3613.1 435.9ZM3643.7 561V1011H3581.6V561H3643.7ZM4182.06 572.7V1011H4119.96V928.2C4078.56 986.4 4023.36 1015.5 3954.36 1015.5C3912.96 1015.5 3874.86 1005.6 3840.06 985.8C3805.26 965.4 3777.66 937.8 3757.26 903C3737.46 868.2 3727.56 830.4 3727.56 789.6C3727.56 748.2 3737.46 710.1 3757.26 675.3C3777.66 640.5 3805.26 613.2 3840.06 593.4C3874.86 573 3912.96 562.8 3954.36 562.8C3996.96 562.8 4031.76 571.8 4058.76 589.8C4086.36 607.2 4106.76 626.1 4119.96 646.5V572.7H4182.06ZM3954.36 954.3C3984.36 954.3 4011.96 947.1 4037.16 932.7C4062.36 917.7 4082.16 897.6 4096.56 872.4C4111.56 847.2 4119.06 819.6 4119.06 789.6C4119.06 759.6 4111.56 732 4096.56 706.8C4082.16 681 4062.36 660.9 4037.16 646.5C4011.96 631.5 3984.36 624 3954.36 624C3924.36 624 3896.46 631.5 3870.66 646.5C3845.46 660.9 3825.36 681 3810.36 706.8C3795.96 732 3788.76 759.6 3788.76 789.6C3788.76 819.6 3795.96 847.2 3810.36 872.4C3825.36 897.6 3845.46 917.7 3870.66 932.7C3896.46 947.1 3924.36 954.3 3954.36 954.3ZM4583.22 1015.5C4528.62 1015.5 4478.52 1002 4432.92 975C4387.32 948 4351.02 911.7 4324.02 866.1C4297.02 820.5 4283.52 770.4 4283.52 715.8C4283.52 661.2 4297.02 611.1 4324.02 565.5C4351.02 519.3 4387.32 482.7 4432.92 455.7C4479.12 428.7 4529.22 415.2 4583.22 415.2C4637.22 415.2 4687.32 428.7 4733.52 455.7C4779.72 482.7 4816.32 519.3 4843.32 565.5C4870.32 611.7 4883.82 661.8 4883.82 715.8C4883.82 769.8 4870.32 819.9 4843.32 866.1C4816.32 911.7 4779.72 948 4733.52 975C4687.92 1002 4637.82 1015.5 4583.22 1015.5ZM4583.22 954.3C4626.42 954.3 4666.32 943.8 4702.92 922.8C4739.52 901.2 4768.32 872.1 4789.32 835.5C4810.92 798.9 4821.72 759 4821.72 715.8C4821.72 672.6 4810.92 632.7 4789.32 596.1C4768.32 559.5 4739.52 530.7 4702.92 509.7C4666.32 488.1 4626.42 477.3 4583.22 477.3C4540.02 477.3 4500.12 488.1 4463.52 509.7C4426.92 530.7 4397.82 559.5 4376.22 596.1C4355.22 632.7 4344.72 672.6 4344.72 715.8C4344.72 759 4355.22 798.9 4376.22 835.5C4397.82 872.1 4426.92 901.2 4463.52 922.8C4500.12 943.8 4540.02 954.3 4583.22 954.3ZM5304.6 586.2C5301.6 563.4 5294.4 543.6 5283 526.8C5259.6 490.8 5220.9 472.8 5166.9 472.8C5121.9 472.8 5089.2 483 5068.8 503.4C5050.2 522.6 5040.9 548.7 5040.9 581.7C5040.9 618.3 5051.1 643.5 5071.5 657.3C5091.9 671.1 5120.4 679.5 5157 682.5C5191.8 685.5 5221.2 690.3 5245.2 696.9C5269.2 702.9 5289.3 711.3 5305.5 722.1C5348.1 748.5 5369.4 789.9 5369.4 846.3C5369.4 868.5 5364.9 889.5 5355.9 909.3C5347.5 929.1 5335.2 946.8 5319 962.4C5282.4 998.4 5232.3 1016.4 5168.7 1016.4C5104.5 1016.4 5053.8 998.7 5016.6 963.3C4984.8 933.9 4965.6 894.3 4959 844.5H5021.1C5026.5 874.5 5039.1 899.1 5058.9 918.3C5084.7 942.3 5121.6 954.3 5169.6 954.3C5210.4 954.3 5243.4 944.4 5268.6 924.6C5294.4 904.2 5307.3 878.1 5307.3 846.3C5307.3 825.9 5303.1 809.1 5294.7 795.9C5286.9 782.1 5271.6 771 5248.8 762.6C5226 754.2 5193.6 748.2 5151.6 744.6C5036.4 734.4 4978.8 680.1 4978.8 581.7C4978.8 557.1 4982.7 534.6 4990.5 514.2C4998.9 493.2 5010.6 475.2 5025.6 460.2C5058.6 427.2 5105.4 410.7 5166 410.7H5166.9C5228.7 411.3 5275.8 428.4 5308.2 462C5341.2 495 5360.7 536.7 5366.7 587.1H5304.6V586.2Z" fill="white"/>
<path d="M2266.3 1011V1020H2275.3V1011H2266.3ZM2206 1011H2197V1020H2206V1011ZM2206 927.3H2215V900.152L2198.78 921.924L2206 927.3ZM1923.4 984.9L1927.95 977.136L1927.95 977.136L1923.4 984.9ZM1840.6 902.1L1832.8 906.594L1832.82 906.623L1832.84 906.651L1840.6 902.1ZM1840.6 674.4L1848.36 678.951L1848.38 678.923L1848.4 678.894L1840.6 674.4ZM1923.4 590.7L1927.95 598.464L1927.95 598.464L1923.4 590.7ZM2206 643.8L2198.77 649.163L2215 671.035V643.8H2206ZM2206 413.4V404.4H2197V413.4H2206ZM2266.3 413.4H2275.3V404.4H2266.3V413.4ZM2181.7 705L2173.97 709.603L2173.97 709.603L2181.7 705ZM2120.5 644.7L2115.9 652.434L2115.94 652.457L2115.98 652.481L2120.5 644.7ZM1954.9 644.7L1959.5 652.434L1959.5 652.434L1954.9 644.7ZM1894.6 705L1902.33 709.603L1902.33 709.603L1894.6 705ZM1894.6 871.5L1886.82 876.024L1886.84 876.064L1886.87 876.103L1894.6 871.5ZM1954.9 931.8L1950.3 939.534L1950.3 939.534L1954.9 931.8ZM2120.5 931.8L2115.98 924.019L2115.94 924.043L2115.9 924.066L2120.5 931.8ZM2181.7 871.5L2189.43 876.103L2189.46 876.064L2189.48 876.024L2181.7 871.5ZM2266.3 1002H2206V1020H2266.3V1002ZM2215 1011V927.3H2197V1011H2215ZM2198.78 921.924C2156.54 978.634 2103.03 1006.5 2037.7 1006.5V1024.5C2109.17 1024.5 2167.86 993.566 2213.22 932.676L2198.78 921.924ZM2037.7 1006.5C1997.86 1006.5 1961.33 996.705 1927.95 977.136L1918.85 992.664C1955.07 1013.9 1994.74 1024.5 2037.7 1024.5V1006.5ZM1927.95 977.136C1894.48 957.514 1867.99 931.02 1848.36 897.549L1832.84 906.651C1854.01 942.78 1882.72 971.486 1918.85 992.664L1927.95 977.136ZM1848.4 897.606C1828.78 863.571 1819 827.02 1819 787.8H1801C1801 830.18 1811.62 869.829 1832.8 906.594L1848.4 897.606ZM1819 787.8C1819 748.581 1828.78 712.355 1848.36 678.951L1832.84 669.849C1811.62 706.045 1801 745.419 1801 787.8H1819ZM1848.4 678.894C1868.03 644.829 1894.52 618.064 1927.95 598.464L1918.85 582.936C1882.68 604.136 1853.97 633.171 1832.8 669.906L1848.4 678.894ZM1927.95 598.464C1961.33 578.895 1997.86 569.1 2037.7 569.1V551.1C1994.74 551.1 1955.07 561.704 1918.85 582.936L1927.95 598.464ZM2037.7 569.1C2105.71 569.1 2159.11 595.702 2198.77 649.163L2213.23 638.437C2170.09 580.298 2111.29 551.1 2037.7 551.1V569.1ZM2215 643.8V413.4H2197V643.8H2215ZM2206 422.4H2266.3V404.4H2206V422.4ZM2257.3 413.4V1011H2275.3V413.4H2257.3ZM2213.2 787.8C2213.2 756.219 2205.28 727.022 2189.43 700.397L2173.97 709.603C2188.12 733.378 2195.2 759.381 2195.2 787.8H2213.2ZM2189.43 700.397C2173.64 673.858 2152.12 652.674 2125.02 636.919L2115.98 652.481C2140.48 666.726 2159.76 685.742 2173.97 709.603L2189.43 700.397ZM2125.1 636.966C2098.48 621.118 2069.28 613.2 2037.7 613.2V631.2C2066.12 631.2 2092.12 638.282 2115.9 652.434L2125.1 636.966ZM2037.7 613.2C2006.12 613.2 1976.92 621.118 1950.3 636.966L1959.5 652.434C1983.28 638.282 2009.28 631.2 2037.7 631.2V613.2ZM1950.3 636.966C1923.81 652.733 1902.63 673.909 1886.87 700.397L1902.33 709.603C1916.57 685.691 1935.59 666.667 1959.5 652.434L1950.3 636.966ZM1886.87 700.397C1871.02 727.022 1863.1 756.219 1863.1 787.8H1881.1C1881.1 759.381 1888.18 733.378 1902.33 709.603L1886.87 700.397ZM1863.1 787.8C1863.1 819.38 1871.02 848.842 1886.82 876.024L1902.38 866.976C1888.18 842.558 1881.1 816.22 1881.1 787.8H1863.1ZM1886.87 876.103C1902.63 902.591 1923.81 923.767 1950.3 939.534L1959.5 924.066C1935.59 909.833 1916.57 890.809 1902.33 866.897L1886.87 876.103ZM1950.3 939.534C1976.92 955.382 2006.12 963.3 2037.7 963.3V945.3C2009.28 945.3 1983.28 938.218 1959.5 924.066L1950.3 939.534ZM2037.7 963.3C2069.28 963.3 2098.48 955.382 2125.1 939.534L2115.9 924.066C2092.12 938.218 2066.12 945.3 2037.7 945.3V963.3ZM2125.02 939.581C2152.12 923.826 2173.64 902.642 2189.43 876.103L2173.97 866.897C2159.76 890.758 2140.48 909.774 2115.98 924.019L2125.02 939.581ZM2189.48 876.024C2205.28 848.842 2213.2 819.38 2213.2 787.8H2195.2C2195.2 816.22 2188.12 842.558 2173.92 866.976L2189.48 876.024ZM2822.21 572.7H2831.21V563.7H2822.21V572.7ZM2822.21 1011V1020H2831.21V1011H2822.21ZM2760.11 1011H2751.11V1020H2760.11V1011ZM2760.11 928.2H2769.11V900.021L2752.78 922.983L2760.11 928.2ZM2480.21 985.8L2475.66 993.564L2475.71 993.594L2475.76 993.622L2480.21 985.8ZM2397.41 903L2389.59 907.451L2389.62 907.501L2389.65 907.551L2397.41 903ZM2397.41 675.3L2389.65 670.749L2389.62 670.799L2389.59 670.849L2397.41 675.3ZM2480.21 593.4L2484.66 601.222L2484.71 601.194L2484.76 601.164L2480.21 593.4ZM2698.91 589.8L2693.92 597.288L2694.01 597.352L2694.11 597.413L2698.91 589.8ZM2760.11 646.5L2752.56 651.389L2769.11 676.976V646.5H2760.11ZM2760.11 572.7V563.7H2751.11V572.7H2760.11ZM2677.31 932.7L2681.78 940.514L2681.85 940.475L2681.92 940.434L2677.31 932.7ZM2736.71 872.4L2728.98 867.797L2728.94 867.865L2728.9 867.935L2736.71 872.4ZM2736.71 706.8L2728.85 711.186L2728.91 711.296L2728.98 711.403L2736.71 706.8ZM2677.31 646.5L2672.71 654.234L2672.78 654.274L2672.85 654.314L2677.31 646.5ZM2510.81 646.5L2515.28 654.314L2515.31 654.297L2515.34 654.281L2510.81 646.5ZM2450.51 706.8L2442.73 702.276L2442.71 702.305L2442.7 702.335L2450.51 706.8ZM2450.51 872.4L2442.7 876.865L2442.74 876.935L2442.78 877.003L2450.51 872.4ZM2510.81 932.7L2506.21 940.434L2506.32 940.498L2506.43 940.559L2510.81 932.7ZM2813.21 572.7V1011H2831.21V572.7H2813.21ZM2822.21 1002H2760.11V1020H2822.21V1002ZM2769.11 1011V928.2H2751.11V1011H2769.11ZM2752.78 922.983C2713 978.908 2660.48 1006.5 2594.51 1006.5V1024.5C2666.54 1024.5 2724.43 993.892 2767.45 933.417L2752.78 922.983ZM2594.51 1006.5C2554.62 1006.5 2518.06 996.979 2484.66 977.978L2475.76 993.622C2511.96 1014.22 2551.61 1024.5 2594.51 1024.5V1006.5ZM2484.76 978.036C2451.29 958.414 2424.8 931.92 2405.18 898.449L2389.65 907.551C2410.83 943.68 2439.53 972.386 2475.66 993.564L2484.76 978.036ZM2405.23 898.549C2386.22 865.132 2376.71 828.871 2376.71 789.6H2358.71C2358.71 831.929 2369 871.268 2389.59 907.451L2405.23 898.549ZM2376.71 789.6C2376.71 749.705 2386.23 713.147 2405.23 679.751L2389.59 670.849C2368.99 707.053 2358.71 746.695 2358.71 789.6H2376.71ZM2405.18 679.851C2424.78 646.403 2451.25 620.236 2484.66 601.222L2475.76 585.578C2439.58 606.164 2410.84 634.597 2389.65 670.749L2405.18 679.851ZM2484.76 601.164C2518.15 581.595 2554.67 571.8 2594.51 571.8V553.8C2551.56 553.8 2511.88 564.405 2475.66 585.636L2484.76 601.164ZM2594.51 571.8C2635.88 571.8 2668.8 580.539 2693.92 597.288L2703.9 582.312C2675.03 563.061 2638.34 553.8 2594.51 553.8V571.8ZM2694.11 597.413C2720.97 614.343 2740.27 632.395 2752.56 651.389L2767.67 641.611C2753.56 619.805 2732.06 600.057 2703.71 582.187L2694.11 597.413ZM2769.11 646.5V572.7H2751.11V646.5H2769.11ZM2760.11 581.7H2822.21V563.7H2760.11V581.7ZM2594.51 963.3C2626.02 963.3 2655.17 955.718 2681.78 940.514L2672.85 924.886C2649.05 938.482 2623 945.3 2594.51 945.3V963.3ZM2681.92 940.434C2708.43 924.648 2729.35 903.428 2744.53 876.865L2728.9 867.935C2715.28 891.772 2696.59 910.752 2672.71 924.966L2681.92 940.434ZM2744.45 877.003C2760.29 850.378 2768.21 821.181 2768.21 789.6H2750.21C2750.21 818.019 2743.13 844.022 2728.98 867.797L2744.45 877.003ZM2768.21 789.6C2768.21 758.019 2760.29 728.822 2744.45 702.197L2728.98 711.403C2743.13 735.178 2750.21 761.181 2750.21 789.6H2768.21ZM2744.57 702.414C2729.39 675.211 2708.43 653.914 2681.78 638.686L2672.85 654.314C2696.6 667.886 2715.24 686.789 2728.85 711.186L2744.57 702.414ZM2681.92 638.766C2655.29 622.918 2626.09 615 2594.51 615V633C2622.93 633 2648.93 640.082 2672.71 654.234L2681.92 638.766ZM2594.51 615C2562.93 615 2533.47 622.916 2506.29 638.719L2515.34 654.281C2539.75 640.084 2566.09 633 2594.51 633V615ZM2506.35 638.686C2479.73 653.895 2458.5 675.147 2442.73 702.276L2458.29 711.324C2472.52 686.853 2491.49 667.905 2515.28 654.314L2506.35 638.686ZM2442.7 702.335C2427.49 728.942 2419.91 758.089 2419.91 789.6H2437.91C2437.91 761.111 2444.73 735.058 2458.33 711.265L2442.7 702.335ZM2419.91 789.6C2419.91 821.111 2427.49 850.258 2442.7 876.865L2458.33 867.935C2444.73 844.142 2437.91 818.089 2437.91 789.6H2419.91ZM2442.78 877.003C2458.54 903.491 2479.72 924.667 2506.21 940.434L2515.42 924.966C2491.5 910.733 2472.48 891.709 2458.25 867.797L2442.78 877.003ZM2506.43 940.559C2533.59 955.719 2563 963.3 2594.51 963.3V945.3C2566.02 945.3 2539.64 938.481 2515.2 924.841L2506.43 940.559ZM3200.87 581.7L3196.24 589.417L3196.34 589.478L3196.44 589.535L3200.87 581.7ZM3265.67 646.5L3257.83 650.928L3257.89 651.03L3257.95 651.13L3265.67 646.5ZM3289.97 1011V1020H3298.97V1011H3289.97ZM3227.87 1011H3218.87V1020H3227.87V1011ZM3211.67 677.1L3203.84 681.537L3203.89 681.634L3203.95 681.73L3211.67 677.1ZM3169.37 634.8L3164.62 642.447L3164.77 642.542L3164.93 642.63L3169.37 634.8ZM3053.27 634.8L3057.7 642.63L3057.8 642.575L3057.9 642.517L3053.27 634.8ZM3010.07 677.1L3002.35 672.47L3002.29 672.565L3002.24 672.663L3010.07 677.1ZM2994.77 1011V1020H3003.77V1011H2994.77ZM2932.67 1011H2923.67V1020H2932.67V1011ZM2932.67 410.7V401.7H2923.67V410.7H2932.67ZM2994.77 410.7H3003.77V401.7H2994.77V410.7ZM2994.77 607.8H2985.77V632.129L3001.6 613.657L2994.77 607.8ZM3046.07 570L3042.64 561.678L3042.59 561.696L3042.55 561.715L3046.07 570ZM3111.77 566.4C3142.58 566.4 3170.68 574.082 3196.24 589.417L3205.5 573.983C3177.06 556.918 3145.75 548.4 3111.77 548.4V566.4ZM3196.44 589.535C3222.61 604.33 3243.04 624.752 3257.83 650.928L3273.5 642.071C3257.1 613.047 3234.32 590.27 3205.29 573.865L3196.44 589.535ZM3257.95 651.13C3273.28 676.69 3280.97 704.782 3280.97 735.6H3298.97C3298.97 701.618 3290.45 670.31 3273.38 641.87L3257.95 651.13ZM3280.97 735.6V1011H3298.97V735.6H3280.97ZM3289.97 1002H3227.87V1020H3289.97V1002ZM3236.87 1011V735.6H3218.87V1011H3236.87ZM3236.87 735.6C3236.87 712.969 3231.02 691.869 3219.38 672.47L3203.95 681.73C3213.91 698.331 3218.87 716.23 3218.87 735.6H3236.87ZM3219.5 672.663C3208.49 653.246 3193.22 637.973 3173.8 626.97L3164.93 642.63C3181.51 652.027 3194.44 664.954 3203.84 681.537L3219.5 672.663ZM3174.11 627.153C3155.25 615.445 3134.4 609.6 3111.77 609.6V627.6C3131.13 627.6 3148.68 632.555 3164.62 642.447L3174.11 627.153ZM3111.77 609.6C3089.14 609.6 3068.03 615.443 3048.64 627.083L3057.9 642.517C3074.5 632.557 3092.4 627.6 3111.77 627.6V609.6ZM3048.83 626.97C3029.46 637.947 3013.94 653.158 3002.35 672.47L3017.78 681.73C3027.8 665.042 3041.07 652.053 3057.7 642.63L3048.83 626.97ZM3002.24 672.663C2991.26 692.037 2985.77 713.069 2985.77 735.6H3003.77C3003.77 716.131 3008.47 698.163 3017.9 681.537L3002.24 672.663ZM2985.77 735.6V1011H3003.77V735.6H2985.77ZM2994.77 1002H2932.67V1020H2994.77V1002ZM2941.67 1011V410.7H2923.67V1011H2941.67ZM2932.67 419.7H2994.77V401.7H2932.67V419.7ZM2985.77 410.7V607.8H3003.77V410.7H2985.77ZM3001.6 613.657C3015.12 597.88 3031.1 586.127 3049.58 578.285L3042.55 561.715C3021.43 570.673 3003.21 584.12 2987.93 601.943L3001.6 613.657ZM3049.49 578.322C3068.74 570.396 3089.47 566.4 3111.77 566.4V548.4C3087.26 548.4 3064.19 552.804 3042.64 561.678L3049.49 578.322ZM3461.93 412.5H3470.93V403.5H3461.93V412.5ZM3461.93 1011V1020H3470.93V1011H3461.93ZM3400.73 1011H3391.73V1020H3400.73V1011ZM3400.73 412.5V403.5H3391.73V412.5H3400.73ZM3452.93 412.5V1011H3470.93V412.5H3452.93ZM3461.93 1002H3400.73V1020H3461.93V1002ZM3409.73 1011V412.5H3391.73V1011H3409.73ZM3400.73 421.5H3461.93V403.5H3400.73V421.5ZM3641 447.6L3634.64 453.964L3634.64 453.964L3641 447.6ZM3641 504.3L3634.64 497.936L3634.64 497.936L3641 504.3ZM3584.3 504.3L3577.94 510.664L3577.94 510.664L3584.3 504.3ZM3584.3 447.6L3577.94 441.236L3577.94 441.236L3584.3 447.6ZM3643.7 561H3652.7V552H3643.7V561ZM3643.7 1011V1020H3652.7V1011H3643.7ZM3581.6 1011H3572.6V1020H3581.6V1011ZM3581.6 561V552H3572.6V561H3581.6ZM3613.1 444.9C3621.46 444.9 3628.48 447.811 3634.64 453.964L3647.36 441.236C3637.92 431.789 3626.34 426.9 3613.1 426.9V444.9ZM3634.64 453.964C3640.79 460.117 3643.7 467.144 3643.7 475.5H3661.7C3661.7 462.256 3656.81 450.683 3647.36 441.236L3634.64 453.964ZM3643.7 475.5C3643.7 484.602 3640.69 491.886 3634.64 497.936L3647.36 510.664C3656.91 501.114 3661.7 489.198 3661.7 475.5H3643.7ZM3634.64 497.936C3628.48 504.089 3621.46 507 3613.1 507V525C3626.34 525 3637.92 520.111 3647.36 510.664L3634.64 497.936ZM3613.1 507C3604 507 3596.71 503.986 3590.66 497.936L3577.94 510.664C3587.49 520.214 3599.4 525 3613.1 525V507ZM3590.66 497.936C3584.61 491.886 3581.6 484.602 3581.6 475.5H3563.6C3563.6 489.198 3568.39 501.114 3577.94 510.664L3590.66 497.936ZM3581.6 475.5C3581.6 467.144 3584.51 460.117 3590.66 453.964L3577.94 441.236C3568.49 450.683 3563.6 462.256 3563.6 475.5H3581.6ZM3590.66 453.964C3596.71 447.914 3604 444.9 3613.1 444.9V426.9C3599.4 426.9 3587.49 431.686 3577.94 441.236L3590.66 453.964ZM3634.7 561V1011H3652.7V561H3634.7ZM3643.7 1002H3581.6V1020H3643.7V1002ZM3590.6 1011V561H3572.6V1011H3590.6ZM3581.6 570H3643.7V552H3581.6V570ZM4182.06 572.7H4191.06V563.7H4182.06V572.7ZM4182.06 1011V1020H4191.06V1011H4182.06ZM4119.96 1011H4110.96V1020H4119.96V1011ZM4119.96 928.2H4128.96V900.021L4112.63 922.983L4119.96 928.2ZM3840.06 985.8L3835.51 993.564L3835.56 993.594L3835.61 993.622L3840.06 985.8ZM3757.26 903L3749.44 907.451L3749.47 907.501L3749.5 907.551L3757.26 903ZM3757.26 675.3L3749.5 670.749L3749.47 670.799L3749.44 670.849L3757.26 675.3ZM3840.06 593.4L3844.51 601.222L3844.56 601.194L3844.61 601.164L3840.06 593.4ZM4058.76 589.8L4053.77 597.288L4053.87 597.352L4053.96 597.413L4058.76 589.8ZM4119.96 646.5L4112.41 651.389L4128.96 676.976V646.5H4119.96ZM4119.96 572.7V563.7H4110.96V572.7H4119.96ZM4037.16 932.7L4041.63 940.514L4041.7 940.475L4041.77 940.434L4037.16 932.7ZM4096.56 872.4L4088.83 867.797L4088.79 867.865L4088.75 867.935L4096.56 872.4ZM4096.56 706.8L4088.7 711.186L4088.76 711.296L4088.83 711.403L4096.56 706.8ZM4037.16 646.5L4032.56 654.234L4032.63 654.274L4032.7 654.314L4037.16 646.5ZM3870.66 646.5L3875.13 654.314L3875.16 654.297L3875.19 654.281L3870.66 646.5ZM3810.36 706.8L3802.58 702.276L3802.57 702.305L3802.55 702.335L3810.36 706.8ZM3810.36 872.4L3802.55 876.865L3802.59 876.935L3802.63 877.003L3810.36 872.4ZM3870.66 932.7L3866.06 940.434L3866.17 940.498L3866.28 940.559L3870.66 932.7ZM4173.06 572.7V1011H4191.06V572.7H4173.06ZM4182.06 1002H4119.96V1020H4182.06V1002ZM4128.96 1011V928.2H4110.96V1011H4128.96ZM4112.63 922.983C4072.85 978.908 4020.33 1006.5 3954.36 1006.5V1024.5C4026.39 1024.5 4084.28 993.892 4127.3 933.417L4112.63 922.983ZM3954.36 1006.5C3914.47 1006.5 3877.91 996.979 3844.51 977.978L3835.61 993.622C3871.82 1014.22 3911.46 1024.5 3954.36 1024.5V1006.5ZM3844.61 978.036C3811.14 958.414 3784.65 931.92 3765.03 898.449L3749.5 907.551C3770.68 943.68 3799.38 972.386 3835.51 993.564L3844.61 978.036ZM3765.08 898.549C3746.07 865.132 3736.56 828.871 3736.56 789.6H3718.56C3718.56 831.929 3728.85 871.268 3749.44 907.451L3765.08 898.549ZM3736.56 789.6C3736.56 749.705 3746.08 713.147 3765.08 679.751L3749.44 670.849C3728.84 707.053 3718.56 746.695 3718.56 789.6H3736.56ZM3765.03 679.851C3784.63 646.403 3811.1 620.236 3844.51 601.222L3835.61 585.578C3799.43 606.164 3770.69 634.597 3749.5 670.749L3765.03 679.851ZM3844.61 601.164C3878 581.595 3914.52 571.8 3954.36 571.8V553.8C3911.41 553.8 3871.73 564.405 3835.51 585.636L3844.61 601.164ZM3954.36 571.8C3995.73 571.8 4028.65 580.539 4053.77 597.288L4063.75 582.312C4034.88 563.061 3998.19 553.8 3954.36 553.8V571.8ZM4053.96 597.413C4080.82 614.343 4100.12 632.395 4112.41 651.389L4127.52 641.611C4113.41 619.805 4091.91 600.057 4063.56 582.187L4053.96 597.413ZM4128.96 646.5V572.7H4110.96V646.5H4128.96ZM4119.96 581.7H4182.06V563.7H4119.96V581.7ZM3954.36 963.3C3985.87 963.3 4015.02 955.718 4041.63 940.514L4032.7 924.886C4008.9 938.482 3982.85 945.3 3954.36 945.3V963.3ZM4041.77 940.434C4068.29 924.648 4089.2 903.428 4104.38 876.865L4088.75 867.935C4075.13 891.772 4056.44 910.752 4032.56 924.966L4041.77 940.434ZM4104.3 877.003C4120.14 850.378 4128.06 821.181 4128.06 789.6H4110.06C4110.06 818.019 4102.98 844.022 4088.83 867.797L4104.3 877.003ZM4128.06 789.6C4128.06 758.019 4120.14 728.822 4104.3 702.197L4088.83 711.403C4102.98 735.178 4110.06 761.181 4110.06 789.6H4128.06ZM4104.42 702.414C4089.24 675.211 4068.28 653.914 4041.63 638.686L4032.7 654.314C4056.45 667.886 4075.09 686.789 4088.7 711.186L4104.42 702.414ZM4041.77 638.766C4015.14 622.918 3985.94 615 3954.36 615V633C3982.78 633 4008.78 640.082 4032.56 654.234L4041.77 638.766ZM3954.36 615C3922.78 615 3893.32 622.916 3866.14 638.719L3875.19 654.281C3899.6 640.084 3925.94 633 3954.36 633V615ZM3866.2 638.686C3839.58 653.895 3818.35 675.147 3802.58 702.276L3818.14 711.324C3832.37 686.853 3851.34 667.905 3875.13 654.314L3866.2 638.686ZM3802.55 702.335C3787.34 728.942 3779.76 758.089 3779.76 789.6H3797.76C3797.76 761.111 3804.58 735.058 3818.18 711.265L3802.55 702.335ZM3779.76 789.6C3779.76 821.111 3787.34 850.258 3802.55 876.865L3818.18 867.935C3804.58 844.142 3797.76 818.089 3797.76 789.6H3779.76ZM3802.63 877.003C3818.4 903.491 3839.57 924.667 3866.06 940.434L3875.27 924.966C3851.35 910.733 3832.33 891.709 3818.1 867.797L3802.63 877.003ZM3866.28 940.559C3893.44 955.719 3922.85 963.3 3954.36 963.3V945.3C3925.87 945.3 3899.49 938.481 3875.05 924.841L3866.28 940.559ZM4432.92 975L4437.5 967.256L4437.5 967.256L4432.92 975ZM4324.02 866.1L4316.27 870.685L4316.27 870.685L4324.02 866.1ZM4324.02 565.5L4331.76 570.085L4331.77 570.063L4331.79 570.041L4324.02 565.5ZM4432.92 455.7L4428.38 447.93L4428.35 447.943L4428.33 447.956L4432.92 455.7ZM4733.52 455.7L4728.98 463.47L4728.98 463.47L4733.52 455.7ZM4843.32 565.5L4851.09 560.959L4851.09 560.959L4843.32 565.5ZM4843.32 866.1L4851.06 870.685L4851.07 870.663L4851.09 870.641L4843.32 866.1ZM4733.52 975L4728.98 967.23L4728.95 967.243L4728.93 967.256L4733.52 975ZM4702.92 922.8L4707.4 930.606L4707.44 930.579L4707.49 930.551L4702.92 922.8ZM4789.32 835.5L4781.57 830.926L4781.54 830.973L4781.51 831.021L4789.32 835.5ZM4789.32 596.1L4781.51 600.579L4781.54 600.627L4781.57 600.674L4789.32 596.1ZM4702.92 509.7L4698.34 517.451L4698.39 517.479L4698.44 517.506L4702.92 509.7ZM4463.52 509.7L4468 517.506L4468.04 517.479L4468.09 517.451L4463.52 509.7ZM4376.22 596.1L4368.47 591.526L4368.44 591.573L4368.41 591.621L4376.22 596.1ZM4376.22 835.5L4368.41 839.979L4368.44 840.027L4368.47 840.074L4376.22 835.5ZM4463.52 922.8L4458.94 930.551L4458.99 930.579L4459.04 930.606L4463.52 922.8ZM4583.22 1006.5C4530.18 1006.5 4481.67 993.408 4437.5 967.256L4428.33 982.744C4475.36 1010.59 4527.05 1024.5 4583.22 1024.5V1006.5ZM4437.5 967.256C4393.2 941.026 4357.99 905.813 4331.76 861.515L4316.27 870.685C4344.04 917.587 4381.43 954.974 4428.33 982.744L4437.5 967.256ZM4331.76 861.515C4305.61 817.346 4292.52 768.838 4292.52 715.8H4274.52C4274.52 771.962 4288.42 823.654 4316.27 870.685L4331.76 861.515ZM4292.52 715.8C4292.52 662.762 4305.61 614.254 4331.76 570.085L4316.27 560.915C4288.42 607.946 4274.52 659.638 4274.52 715.8H4292.52ZM4331.79 570.041C4358.02 525.149 4393.23 489.657 4437.5 463.444L4428.33 447.956C4381.4 475.743 4344.01 513.451 4316.25 560.959L4331.79 570.041ZM4437.46 463.47C4482.27 437.283 4530.8 424.2 4583.22 424.2V406.2C4527.64 406.2 4475.97 420.117 4428.38 447.93L4437.46 463.47ZM4583.22 424.2C4635.64 424.2 4684.17 437.283 4728.98 463.47L4738.06 447.93C4690.47 420.117 4638.8 406.2 4583.22 406.2V424.2ZM4728.98 463.47C4773.84 489.689 4809.33 525.177 4835.55 570.041L4851.09 560.959C4823.31 513.423 4785.59 475.71 4738.06 447.93L4728.98 463.47ZM4835.55 570.041C4861.73 614.85 4874.82 663.381 4874.82 715.8H4892.82C4892.82 660.219 4878.9 608.55 4851.09 560.959L4835.55 570.041ZM4874.82 715.8C4874.82 768.219 4861.73 816.75 4835.55 861.559L4851.09 870.641C4878.9 823.05 4892.82 771.381 4892.82 715.8H4874.82ZM4835.57 861.515C4809.36 905.784 4773.87 940.994 4728.98 967.23L4738.06 982.77C4785.57 955.006 4823.27 917.615 4851.06 870.685L4835.57 861.515ZM4728.93 967.256C4684.76 993.408 4636.25 1006.5 4583.22 1006.5V1024.5C4639.38 1024.5 4691.07 1010.59 4738.1 982.744L4728.93 967.256ZM4583.22 963.3C4627.95 963.3 4669.4 952.408 4707.4 930.606L4698.44 914.994C4663.23 935.192 4624.88 945.3 4583.22 945.3V963.3ZM4707.49 930.551C4745.42 908.165 4775.34 877.941 4797.12 839.979L4781.51 831.021C4761.29 866.259 4733.61 894.235 4698.34 915.049L4707.49 930.551ZM4797.07 840.074C4819.5 802.065 4830.72 760.581 4830.72 715.8H4812.72C4812.72 757.419 4802.33 795.735 4781.57 830.926L4797.07 840.074ZM4830.72 715.8C4830.72 671.019 4819.5 629.535 4797.07 591.526L4781.57 600.674C4802.33 635.865 4812.72 674.181 4812.72 715.8H4830.72ZM4797.12 591.621C4775.33 553.636 4745.38 523.688 4707.4 501.894L4698.44 517.506C4733.65 537.712 4761.3 565.364 4781.51 600.579L4797.12 591.621ZM4707.49 501.949C4669.48 479.517 4628 468.3 4583.22 468.3V486.3C4624.84 486.3 4663.15 496.683 4698.34 517.451L4707.49 501.949ZM4583.22 468.3C4538.44 468.3 4496.95 479.517 4458.94 501.949L4468.09 517.451C4503.28 496.683 4541.6 486.3 4583.22 486.3V468.3ZM4459.04 501.894C4421.08 523.675 4390.85 553.593 4368.47 591.526L4383.97 600.674C4404.78 565.407 4432.76 537.725 4468 517.506L4459.04 501.894ZM4368.41 591.621C4346.61 629.618 4335.72 671.067 4335.72 715.8H4353.72C4353.72 674.133 4363.82 635.782 4384.02 600.579L4368.41 591.621ZM4335.72 715.8C4335.72 760.533 4346.61 801.982 4368.41 839.979L4384.02 831.021C4363.82 795.818 4353.72 757.467 4353.72 715.8H4335.72ZM4368.47 840.074C4390.84 877.985 4421.03 908.178 4458.94 930.551L4468.09 915.049C4432.8 894.222 4404.79 866.215 4383.97 830.926L4368.47 840.074ZM4459.04 930.606C4497.03 952.408 4538.48 963.3 4583.22 963.3V945.3C4541.55 945.3 4503.2 935.192 4468 914.994L4459.04 930.606ZM5304.6 586.2H5313.6V585.61L5313.52 585.026L5304.6 586.2ZM5283 526.8L5275.46 531.705L5275.5 531.78L5275.55 531.853L5283 526.8ZM5068.8 503.4L5062.44 497.036L5062.39 497.087L5062.34 497.138L5068.8 503.4ZM5071.5 657.3L5066.46 664.755L5066.46 664.755L5071.5 657.3ZM5157 682.5L5157.77 673.533L5157.76 673.532L5157.74 673.53L5157 682.5ZM5245.2 696.9L5242.82 705.578L5242.92 705.606L5243.02 705.631L5245.2 696.9ZM5305.5 722.1L5300.51 729.588L5300.63 729.671L5300.76 729.75L5305.5 722.1ZM5355.9 909.3L5347.71 905.576L5347.66 905.68L5347.62 905.785L5355.9 909.3ZM5319 962.4L5312.76 955.917L5312.72 955.95L5312.69 955.984L5319 962.4ZM5016.6 963.3L5022.81 956.78L5022.76 956.736L5022.71 956.692L5016.6 963.3ZM4959 844.5V835.5H4948.73L4950.08 845.682L4959 844.5ZM5021.1 844.5L5029.96 842.906L5028.63 835.5H5021.1V844.5ZM5058.9 918.3L5052.64 924.761L5052.7 924.826L5052.77 924.89L5058.9 918.3ZM5268.6 924.6L5274.16 931.677L5274.17 931.668L5274.18 931.66L5268.6 924.6ZM5294.7 795.9L5286.87 800.329L5286.98 800.533L5287.11 800.732L5294.7 795.9ZM5248.8 762.6L5251.91 754.155L5251.91 754.155L5248.8 762.6ZM5151.6 744.6L5150.81 753.565L5150.82 753.566L5150.83 753.567L5151.6 744.6ZM4990.5 514.2L4982.15 510.857L4982.12 510.921L4982.09 510.986L4990.5 514.2ZM5025.6 460.2L5019.24 453.836L5019.24 453.836L5025.6 460.2ZM5166.9 410.7L5166.99 401.7L5166.95 401.7H5166.9V410.7ZM5308.2 462L5301.72 468.247L5301.78 468.306L5301.84 468.364L5308.2 462ZM5366.7 587.1V596.1H5376.84L5375.64 586.036L5366.7 587.1ZM5304.6 587.1H5295.6V596.1H5304.6V587.1ZM5313.52 585.026C5310.37 561.021 5302.74 539.853 5290.45 521.746L5275.55 531.853C5286.07 547.347 5292.84 565.779 5295.68 587.374L5313.52 585.026ZM5290.55 521.895C5265.05 482.674 5223.06 463.8 5166.9 463.8V481.8C5218.75 481.8 5254.15 498.926 5275.46 531.705L5290.55 521.895ZM5166.9 463.8C5120.81 463.8 5085.26 474.21 5062.44 497.036L5075.17 509.764C5093.14 491.79 5122.99 481.8 5166.9 481.8V463.8ZM5062.34 497.138C5041.75 518.391 5031.9 546.941 5031.9 581.7H5049.9C5049.9 550.459 5058.65 526.809 5075.27 509.662L5062.34 497.138ZM5031.9 581.7C5031.9 619.748 5042.54 648.571 5066.46 664.755L5076.54 649.845C5059.67 638.429 5049.9 616.852 5049.9 581.7H5031.9ZM5066.46 664.755C5088.62 679.745 5118.83 688.401 5156.27 691.47L5157.74 673.53C5121.98 670.599 5095.18 662.455 5076.54 649.845L5066.46 664.755ZM5156.23 691.467C5190.68 694.437 5219.51 699.168 5242.82 705.578L5247.59 688.222C5222.9 681.432 5192.92 676.563 5157.77 673.533L5156.23 691.467ZM5243.02 705.631C5266.28 711.446 5285.36 719.492 5300.51 729.588L5310.49 714.612C5293.24 703.108 5272.13 694.354 5247.38 688.169L5243.02 705.631ZM5300.76 729.75C5340.34 754.279 5360.4 792.551 5360.4 846.3H5378.4C5378.4 787.249 5355.86 742.721 5310.24 714.45L5300.76 729.75ZM5360.4 846.3C5360.4 867.243 5356.17 886.97 5347.71 905.576L5364.09 913.024C5373.64 892.03 5378.4 869.757 5378.4 846.3H5360.4ZM5347.62 905.785C5339.71 924.417 5328.13 941.119 5312.76 955.917L5325.24 968.883C5342.28 952.481 5355.29 933.783 5364.19 912.815L5347.62 905.785ZM5312.69 955.984C5278.16 989.952 5230.54 1007.4 5168.7 1007.4V1025.4C5234.07 1025.4 5286.65 1006.85 5325.31 968.816L5312.69 955.984ZM5168.7 1007.4C5106.21 1007.4 5057.94 990.214 5022.81 956.78L5010.4 969.82C5049.66 1007.19 5102.8 1025.4 5168.7 1025.4V1007.4ZM5022.71 956.692C4992.69 928.94 4974.29 891.387 4967.92 843.318L4950.08 845.682C4956.91 897.213 4976.91 938.86 5010.49 969.908L5022.71 956.692ZM4959 853.5H5021.1V835.5H4959V853.5ZM5012.24 846.094C5017.94 877.743 5031.34 904.112 5052.64 924.761L5065.17 911.839C5046.86 894.088 5035.06 871.257 5029.96 842.906L5012.24 846.094ZM5052.77 924.89C5080.76 950.927 5120.16 963.3 5169.6 963.3V945.3C5123.04 945.3 5088.64 933.673 5065.03 911.71L5052.77 924.89ZM5169.6 963.3C5211.86 963.3 5246.99 953.029 5274.16 931.677L5263.04 917.523C5239.82 935.771 5208.94 945.3 5169.6 945.3V963.3ZM5274.18 931.66C5302.06 909.621 5316.3 880.96 5316.3 846.3H5298.3C5298.3 875.24 5286.75 898.779 5263.02 917.54L5274.18 931.66ZM5316.3 846.3C5316.3 824.7 5311.85 806.09 5302.29 791.068L5287.11 800.732C5294.35 812.11 5298.3 827.1 5298.3 846.3H5316.3ZM5302.54 791.471C5293.25 775.049 5275.69 762.916 5251.91 754.155L5245.69 771.045C5267.51 779.084 5280.55 789.151 5286.87 800.329L5302.54 791.471ZM5251.91 754.155C5228 745.346 5194.68 739.259 5152.37 735.633L5150.83 753.567C5192.53 757.141 5224 763.054 5245.69 771.045L5251.91 754.155ZM5152.4 735.635C5095.91 730.634 5054.96 714.928 5028.18 689.676C5001.6 664.623 4987.8 629.065 4987.8 581.7H4969.8C4969.8 632.735 4984.8 673.527 5015.83 702.774C5046.64 731.822 5092.09 748.366 5150.81 753.565L5152.4 735.635ZM4987.8 581.7C4987.8 558.061 4991.55 536.667 4998.91 517.414L4982.09 510.986C4973.86 532.533 4969.8 556.139 4969.8 581.7H4987.8ZM4998.86 517.542C5006.84 497.598 5017.88 480.646 5031.97 466.564L5019.24 453.836C5003.32 469.754 4990.97 488.802 4982.15 510.857L4998.86 517.542ZM5031.97 466.564C5062.82 435.713 5107.05 419.7 5166 419.7V401.7C5103.76 401.7 5054.39 418.687 5019.24 453.836L5031.97 466.564ZM5166 419.7H5166.9V401.7H5166V419.7ZM5166.81 419.7C5227.01 420.284 5271.49 436.893 5301.72 468.247L5314.68 455.753C5280.11 419.907 5230.39 402.316 5166.99 401.7L5166.81 419.7ZM5301.84 468.364C5333.28 499.808 5351.98 539.582 5357.76 588.164L5375.64 586.036C5369.42 533.818 5349.12 490.192 5314.57 455.636L5301.84 468.364ZM5366.7 578.1H5304.6V596.1H5366.7V578.1ZM5313.6 587.1V586.2H5295.6V587.1H5313.6Z" fill="white"/>
<defs>
<linearGradient id="paint0_linear" x1="303.035" y1="304.467" x2="1192.67" y2="1195.53" gradientUnits="userSpaceOnUse">
<stop stop-color="#C00000"/>
<stop offset="1" stop-color="#FF4300"/>
</linearGradient>
<linearGradient id="paint1_linear" x1="303.035" y1="304.467" x2="1192.67" y2="1195.53" gradientUnits="userSpaceOnUse">
<stop stop-color="#C00000"/>
<stop offset="1" stop-color="#FF4300"/>
</linearGradient>
</defs>
</svg>
