<svg width="5656" height="2000" viewBox="0 0 5656 2000" fill="none" xmlns="http://www.w3.org/2000/svg">
<g filter="url(#filter0_d)">
<circle cx="1000" cy="1000" r="750" fill="white"/>
<path d="M606.04 606.04H1393.96V1393.96H606.04V606.04Z" fill="url(#paint0_linear)"/>
<path d="M442.857 1000L1000 442.857L1557.14 1000L1000 1557.14L442.857 1000Z" fill="url(#paint1_linear)"/>
<circle cx="1000" cy="1000" r="300" fill="white"/>
</g>
<path d="M2516.3 1261H2456V1177.3C2412.2 1236.1 2356.1 1265.5 2287.7 1265.5C2246.3 1265.5 2208.2 1255.3 2173.4 1234.9C2138.6 1214.5 2111 1186.9 2090.6 1152.1C2070.2 1116.7 2060 1078.6 2060 1037.8C2060 997 2070.2 959.2 2090.6 924.4C2111 889 2138.6 861.1 2173.4 840.7C2208.2 820.3 2246.3 810.1 2287.7 810.1C2358.5 810.1 2414.6 838 2456 893.8V663.4H2516.3V1261ZM2454.2 1037.8C2454.2 1007.8 2446.7 980.2 2431.7 955C2416.7 929.8 2396.3 909.7 2370.5 894.7C2345.3 879.7 2317.7 872.2 2287.7 872.2C2257.7 872.2 2230.1 879.7 2204.9 894.7C2179.7 909.7 2159.6 929.8 2144.6 955C2129.6 980.2 2122.1 1007.8 2122.1 1037.8C2122.1 1067.8 2129.6 1095.7 2144.6 1121.5C2159.6 1146.7 2179.7 1166.8 2204.9 1181.8C2230.1 1196.8 2257.7 1204.3 2287.7 1204.3C2317.7 1204.3 2345.3 1196.8 2370.5 1181.8C2396.3 1166.8 2416.7 1146.7 2431.7 1121.5C2446.7 1095.7 2454.2 1067.8 2454.2 1037.8ZM3072.21 822.7V1261H3010.11V1178.2C2968.71 1236.4 2913.51 1265.5 2844.51 1265.5C2803.11 1265.5 2765.01 1255.6 2730.21 1235.8C2695.41 1215.4 2667.81 1187.8 2647.41 1153C2627.61 1118.2 2617.71 1080.4 2617.71 1039.6C2617.71 998.2 2627.61 960.1 2647.41 925.3C2667.81 890.5 2695.41 863.2 2730.21 843.4C2765.01 823 2803.11 812.8 2844.51 812.8C2887.11 812.8 2921.91 821.8 2948.91 839.8C2976.51 857.2 2996.91 876.1 3010.11 896.5V822.7H3072.21ZM2844.51 1204.3C2874.51 1204.3 2902.11 1197.1 2927.31 1182.7C2952.51 1167.7 2972.31 1147.6 2986.71 1122.4C3001.71 1097.2 3009.21 1069.6 3009.21 1039.6C3009.21 1009.6 3001.71 982 2986.71 956.8C2972.31 931 2952.51 910.9 2927.31 896.5C2902.11 881.5 2874.51 874 2844.51 874C2814.51 874 2786.61 881.5 2760.81 896.5C2735.61 910.9 2715.51 931 2700.51 956.8C2686.11 982 2678.91 1009.6 2678.91 1039.6C2678.91 1069.6 2686.11 1097.2 2700.51 1122.4C2715.51 1147.6 2735.61 1167.7 2760.81 1182.7C2786.61 1197.1 2814.51 1204.3 2844.51 1204.3ZM3361.77 807.4C3394.17 807.4 3423.87 815.5 3450.87 831.7C3478.47 847.3 3500.07 868.9 3515.67 896.5C3531.87 923.5 3539.97 953.2 3539.97 985.6V1261H3477.87V985.6C3477.87 964.6 3472.47 945.1 3461.67 927.1C3451.47 909.1 3437.37 895 3419.37 884.8C3401.97 874 3382.77 868.6 3361.77 868.6C3340.77 868.6 3321.27 874 3303.27 884.8C3285.27 895 3270.87 909.1 3260.07 927.1C3249.87 945.1 3244.77 964.6 3244.77 985.6V1261H3182.67V660.7H3244.77V857.8C3259.17 841 3276.27 828.4 3296.07 820C3316.47 811.6 3338.37 807.4 3361.77 807.4ZM3711.93 662.5V1261H3650.73V662.5H3711.93ZM3863.1 685.9C3873.9 685.9 3883.2 689.8 3891 697.6C3898.8 705.4 3902.7 714.7 3902.7 725.5C3902.7 736.9 3898.8 746.5 3891 754.3C3883.2 762.1 3873.9 766 3863.1 766C3851.7 766 3842.1 762.1 3834.3 754.3C3826.5 746.5 3822.6 736.9 3822.6 725.5C3822.6 714.7 3826.5 705.4 3834.3 697.6C3842.1 689.8 3851.7 685.9 3863.1 685.9ZM3893.7 811V1261H3831.6V811H3893.7ZM4432.06 822.7V1261H4369.96V1178.2C4328.56 1236.4 4273.36 1265.5 4204.36 1265.5C4162.96 1265.5 4124.86 1255.6 4090.06 1235.8C4055.26 1215.4 4027.66 1187.8 4007.26 1153C3987.46 1118.2 3977.56 1080.4 3977.56 1039.6C3977.56 998.2 3987.46 960.1 4007.26 925.3C4027.66 890.5 4055.26 863.2 4090.06 843.4C4124.86 823 4162.96 812.8 4204.36 812.8C4246.96 812.8 4281.76 821.8 4308.76 839.8C4336.36 857.2 4356.76 876.1 4369.96 896.5V822.7H4432.06ZM4204.36 1204.3C4234.36 1204.3 4261.96 1197.1 4287.16 1182.7C4312.36 1167.7 4332.16 1147.6 4346.56 1122.4C4361.56 1097.2 4369.06 1069.6 4369.06 1039.6C4369.06 1009.6 4361.56 982 4346.56 956.8C4332.16 931 4312.36 910.9 4287.16 896.5C4261.96 881.5 4234.36 874 4204.36 874C4174.36 874 4146.46 881.5 4120.66 896.5C4095.46 910.9 4075.36 931 4060.36 956.8C4045.96 982 4038.76 1009.6 4038.76 1039.6C4038.76 1069.6 4045.96 1097.2 4060.36 1122.4C4075.36 1147.6 4095.46 1167.7 4120.66 1182.7C4146.46 1197.1 4174.36 1204.3 4204.36 1204.3ZM4833.22 1265.5C4778.62 1265.5 4728.52 1252 4682.92 1225C4637.32 1198 4601.02 1161.7 4574.02 1116.1C4547.02 1070.5 4533.52 1020.4 4533.52 965.8C4533.52 911.2 4547.02 861.1 4574.02 815.5C4601.02 769.3 4637.32 732.7 4682.92 705.7C4729.12 678.7 4779.22 665.2 4833.22 665.2C4887.22 665.2 4937.32 678.7 4983.52 705.7C5029.72 732.7 5066.32 769.3 5093.32 815.5C5120.32 861.7 5133.82 911.8 5133.82 965.8C5133.82 1019.8 5120.32 1069.9 5093.32 1116.1C5066.32 1161.7 5029.72 1198 4983.52 1225C4937.92 1252 4887.82 1265.5 4833.22 1265.5ZM4833.22 1204.3C4876.42 1204.3 4916.32 1193.8 4952.92 1172.8C4989.52 1151.2 5018.32 1122.1 5039.32 1085.5C5060.92 1048.9 5071.72 1009 5071.72 965.8C5071.72 922.6 5060.92 882.7 5039.32 846.1C5018.32 809.5 4989.52 780.7 4952.92 759.7C4916.32 738.1 4876.42 727.3 4833.22 727.3C4790.02 727.3 4750.12 738.1 4713.52 759.7C4676.92 780.7 4647.82 809.5 4626.22 846.1C4605.22 882.7 4594.72 922.6 4594.72 965.8C4594.72 1009 4605.22 1048.9 4626.22 1085.5C4647.82 1122.1 4676.92 1151.2 4713.52 1172.8C4750.12 1193.8 4790.02 1204.3 4833.22 1204.3ZM5554.6 836.2C5551.6 813.4 5544.4 793.6 5533 776.8C5509.6 740.8 5470.9 722.8 5416.9 722.8C5371.9 722.8 5339.2 733 5318.8 753.4C5300.2 772.6 5290.9 798.7 5290.9 831.7C5290.9 868.3 5301.1 893.5 5321.5 907.3C5341.9 921.1 5370.4 929.5 5407 932.5C5441.8 935.5 5471.2 940.3 5495.2 946.9C5519.2 952.9 5539.3 961.3 5555.5 972.1C5598.1 998.5 5619.4 1039.9 5619.4 1096.3C5619.4 1118.5 5614.9 1139.5 5605.9 1159.3C5597.5 1179.1 5585.2 1196.8 5569 1212.4C5532.4 1248.4 5482.3 1266.4 5418.7 1266.4C5354.5 1266.4 5303.8 1248.7 5266.6 1213.3C5234.8 1183.9 5215.6 1144.3 5209 1094.5H5271.1C5276.5 1124.5 5289.1 1149.1 5308.9 1168.3C5334.7 1192.3 5371.6 1204.3 5419.6 1204.3C5460.4 1204.3 5493.4 1194.4 5518.6 1174.6C5544.4 1154.2 5557.3 1128.1 5557.3 1096.3C5557.3 1075.9 5553.1 1059.1 5544.7 1045.9C5536.9 1032.1 5521.6 1021 5498.8 1012.6C5476 1004.2 5443.6 998.2 5401.6 994.6C5286.4 984.4 5228.8 930.1 5228.8 831.7C5228.8 807.1 5232.7 784.6 5240.5 764.2C5248.9 743.2 5260.6 725.2 5275.6 710.2C5308.6 677.2 5355.4 660.7 5416 660.7H5416.9C5478.7 661.3 5525.8 678.4 5558.2 712C5591.2 745 5610.7 786.7 5616.7 837.1H5554.6V836.2Z" fill="black"/>
<path d="M2516.3 1261V1270H2525.3V1261H2516.3ZM2456 1261H2447V1270H2456V1261ZM2456 1177.3H2465V1150.15L2448.78 1171.92L2456 1177.3ZM2173.4 1234.9L2177.95 1227.14L2173.4 1234.9ZM2090.6 1152.1L2082.8 1156.59L2082.82 1156.62L2082.84 1156.65L2090.6 1152.1ZM2090.6 924.4L2098.36 928.951L2098.38 928.923L2098.4 928.894L2090.6 924.4ZM2173.4 840.7L2177.95 848.464H2177.95L2173.4 840.7ZM2456 893.8L2448.77 899.163L2465 921.035V893.8H2456ZM2456 663.4V654.4H2447V663.4H2456ZM2516.3 663.4H2525.3V654.4H2516.3V663.4ZM2431.7 955L2423.97 959.603V959.603L2431.7 955ZM2370.5 894.7L2365.9 902.434L2365.94 902.457L2365.98 902.481L2370.5 894.7ZM2204.9 894.7L2209.5 902.434L2204.9 894.7ZM2144.6 955L2152.33 959.603L2144.6 955ZM2144.6 1121.5L2136.82 1126.02L2136.84 1126.06L2136.87 1126.1L2144.6 1121.5ZM2204.9 1181.8L2200.3 1189.53L2204.9 1181.8ZM2370.5 1181.8L2365.98 1174.02L2365.94 1174.04L2365.9 1174.07L2370.5 1181.8ZM2431.7 1121.5L2439.43 1126.1L2439.46 1126.06L2439.48 1126.02L2431.7 1121.5ZM2516.3 1252H2456V1270H2516.3V1252ZM2465 1261V1177.3H2447V1261H2465ZM2448.78 1171.92C2406.54 1228.63 2353.03 1256.5 2287.7 1256.5V1274.5C2359.17 1274.5 2417.86 1243.57 2463.22 1182.68L2448.78 1171.92ZM2287.7 1256.5C2247.86 1256.5 2211.33 1246.7 2177.95 1227.14L2168.85 1242.66C2205.07 1263.9 2244.74 1274.5 2287.7 1274.5V1256.5ZM2177.95 1227.14C2144.48 1207.51 2117.99 1181.02 2098.36 1147.55L2082.84 1156.65C2104.01 1192.78 2132.72 1221.49 2168.85 1242.66L2177.95 1227.14ZM2098.4 1147.61C2078.78 1113.57 2069 1077.02 2069 1037.8H2051C2051 1080.18 2061.62 1119.83 2082.8 1156.59L2098.4 1147.61ZM2069 1037.8C2069 998.581 2078.78 962.355 2098.36 928.951L2082.84 919.849C2061.62 956.045 2051 995.419 2051 1037.8H2069ZM2098.4 928.894C2118.03 894.829 2144.52 868.064 2177.95 848.464L2168.85 832.936C2132.68 854.136 2103.97 883.171 2082.8 919.906L2098.4 928.894ZM2177.95 848.464C2211.33 828.895 2247.86 819.1 2287.7 819.1V801.1C2244.74 801.1 2205.07 811.704 2168.85 832.936L2177.95 848.464ZM2287.7 819.1C2355.71 819.1 2409.11 845.702 2448.77 899.163L2463.23 888.437C2420.09 830.298 2361.29 801.1 2287.7 801.1V819.1ZM2465 893.8V663.4H2447V893.8H2465ZM2456 672.4H2516.3V654.4H2456V672.4ZM2507.3 663.4V1261H2525.3V663.4H2507.3ZM2463.2 1037.8C2463.2 1006.22 2455.28 977.022 2439.43 950.397L2423.97 959.603C2438.12 983.378 2445.2 1009.38 2445.2 1037.8H2463.2ZM2439.43 950.397C2423.64 923.858 2402.12 902.674 2375.02 886.919L2365.98 902.481C2390.48 916.726 2409.76 935.742 2423.97 959.603L2439.43 950.397ZM2375.1 886.966C2348.48 871.118 2319.28 863.2 2287.7 863.2V881.2C2316.12 881.2 2342.12 888.282 2365.9 902.434L2375.1 886.966ZM2287.7 863.2C2256.12 863.2 2226.92 871.118 2200.3 886.966L2209.5 902.434C2233.28 888.282 2259.28 881.2 2287.7 881.2V863.2ZM2200.3 886.966C2173.81 902.733 2152.63 923.909 2136.87 950.397L2152.33 959.603C2166.57 935.691 2185.59 916.667 2209.5 902.434L2200.3 886.966ZM2136.87 950.397C2121.02 977.022 2113.1 1006.22 2113.1 1037.8H2131.1C2131.1 1009.38 2138.18 983.378 2152.33 959.603L2136.87 950.397ZM2113.1 1037.8C2113.1 1069.38 2121.02 1098.84 2136.82 1126.02L2152.38 1116.98C2138.18 1092.56 2131.1 1066.22 2131.1 1037.8H2113.1ZM2136.87 1126.1C2152.63 1152.59 2173.81 1173.77 2200.3 1189.53L2209.5 1174.07C2185.59 1159.83 2166.57 1140.81 2152.33 1116.9L2136.87 1126.1ZM2200.3 1189.53C2226.92 1205.38 2256.12 1213.3 2287.7 1213.3V1195.3C2259.28 1195.3 2233.28 1188.22 2209.5 1174.07L2200.3 1189.53ZM2287.7 1213.3C2319.28 1213.3 2348.48 1205.38 2375.1 1189.53L2365.9 1174.07C2342.12 1188.22 2316.12 1195.3 2287.7 1195.3V1213.3ZM2375.02 1189.58C2402.12 1173.83 2423.64 1152.64 2439.43 1126.1L2423.97 1116.9C2409.76 1140.76 2390.48 1159.77 2365.98 1174.02L2375.02 1189.58ZM2439.48 1126.02C2455.28 1098.84 2463.2 1069.38 2463.2 1037.8H2445.2C2445.2 1066.22 2438.12 1092.56 2423.92 1116.98L2439.48 1126.02ZM3072.21 822.7H3081.21V813.7H3072.21V822.7ZM3072.21 1261V1270H3081.21V1261H3072.21ZM3010.11 1261H3001.11V1270H3010.11V1261ZM3010.11 1178.2H3019.11V1150.02L3002.78 1172.98L3010.11 1178.2ZM2730.21 1235.8L2725.66 1243.56L2725.71 1243.59L2725.76 1243.62L2730.21 1235.8ZM2647.41 1153L2639.59 1157.45L2639.62 1157.5L2639.65 1157.55L2647.41 1153ZM2647.41 925.3L2639.65 920.749L2639.62 920.799L2639.59 920.849L2647.41 925.3ZM2730.21 843.4L2734.66 851.222L2734.71 851.194L2734.76 851.164L2730.21 843.4ZM2948.91 839.8L2943.92 847.288L2944.01 847.352L2944.11 847.413L2948.91 839.8ZM3010.11 896.5L3002.56 901.389L3019.11 926.976V896.5H3010.11ZM3010.11 822.7V813.7H3001.11V822.7H3010.11ZM2927.31 1182.7L2931.78 1190.51L2931.85 1190.47L2931.92 1190.43L2927.31 1182.7ZM2986.71 1122.4L2978.98 1117.8L2978.94 1117.87L2978.9 1117.93L2986.71 1122.4ZM2986.71 956.8L2978.85 961.186L2978.91 961.296L2978.98 961.403L2986.71 956.8ZM2927.31 896.5L2922.71 904.234L2922.78 904.275L2922.85 904.314L2927.31 896.5ZM2760.81 896.5L2765.28 904.314L2765.31 904.297L2765.34 904.281L2760.81 896.5ZM2700.51 956.8L2692.73 952.276L2692.71 952.305L2692.7 952.335L2700.51 956.8ZM2700.51 1122.4L2692.7 1126.87L2692.74 1126.93L2692.78 1127L2700.51 1122.4ZM2760.81 1182.7L2756.21 1190.43L2756.32 1190.5L2756.43 1190.56L2760.81 1182.7ZM3063.21 822.7V1261H3081.21V822.7H3063.21ZM3072.21 1252H3010.11V1270H3072.21V1252ZM3019.11 1261V1178.2H3001.11V1261H3019.11ZM3002.78 1172.98C2963 1228.91 2910.48 1256.5 2844.51 1256.5V1274.5C2916.54 1274.5 2974.43 1243.89 3017.45 1183.42L3002.78 1172.98ZM2844.51 1256.5C2804.62 1256.5 2768.06 1246.98 2734.66 1227.98L2725.76 1243.62C2761.96 1264.22 2801.61 1274.5 2844.51 1274.5V1256.5ZM2734.76 1228.04C2701.29 1208.41 2674.8 1181.92 2655.18 1148.45L2639.65 1157.55C2660.83 1193.68 2689.53 1222.39 2725.66 1243.56L2734.76 1228.04ZM2655.23 1148.55C2636.22 1115.13 2626.71 1078.87 2626.71 1039.6H2608.71C2608.71 1081.93 2619 1121.27 2639.59 1157.45L2655.23 1148.55ZM2626.71 1039.6C2626.71 999.705 2636.23 963.147 2655.23 929.751L2639.59 920.849C2618.99 957.053 2608.71 996.695 2608.71 1039.6H2626.71ZM2655.18 929.851C2674.78 896.403 2701.25 870.236 2734.66 851.222L2725.76 835.578C2689.58 856.164 2660.84 884.597 2639.65 920.749L2655.18 929.851ZM2734.76 851.164C2768.15 831.595 2804.67 821.8 2844.51 821.8V803.8C2801.56 803.8 2761.88 814.405 2725.66 835.636L2734.76 851.164ZM2844.51 821.8C2885.88 821.8 2918.8 830.539 2943.92 847.288L2953.9 832.312C2925.03 813.061 2888.34 803.8 2844.51 803.8V821.8ZM2944.11 847.413C2970.97 864.343 2990.27 882.395 3002.56 901.389L3017.67 891.611C3003.56 869.805 2982.06 850.057 2953.71 832.187L2944.11 847.413ZM3019.11 896.5V822.7H3001.11V896.5H3019.11ZM3010.11 831.7H3072.21V813.7H3010.11V831.7ZM2844.51 1213.3C2876.02 1213.3 2905.17 1205.72 2931.78 1190.51L2922.85 1174.89C2899.05 1188.48 2873 1195.3 2844.51 1195.3V1213.3ZM2931.92 1190.43C2958.43 1174.65 2979.35 1153.43 2994.53 1126.87L2978.9 1117.93C2965.28 1141.77 2946.59 1160.75 2922.71 1174.97L2931.92 1190.43ZM2994.45 1127C3010.29 1100.38 3018.21 1071.18 3018.21 1039.6H3000.21C3000.21 1068.02 2993.13 1094.02 2978.98 1117.8L2994.45 1127ZM3018.21 1039.6C3018.21 1008.02 3010.29 978.822 2994.45 952.197L2978.98 961.403C2993.13 985.178 3000.21 1011.18 3000.21 1039.6H3018.21ZM2994.57 952.414C2979.39 925.211 2958.43 903.914 2931.78 888.686L2922.85 904.314C2946.6 917.886 2965.24 936.789 2978.85 961.186L2994.57 952.414ZM2931.92 888.766C2905.29 872.918 2876.09 865 2844.51 865V883C2872.93 883 2898.93 890.082 2922.71 904.234L2931.92 888.766ZM2844.51 865C2812.93 865 2783.47 872.916 2756.29 888.719L2765.34 904.281C2789.75 890.084 2816.09 883 2844.51 883V865ZM2756.35 888.686C2729.73 903.895 2708.5 925.147 2692.73 952.276L2708.29 961.324C2722.52 936.853 2741.49 917.905 2765.28 904.314L2756.35 888.686ZM2692.7 952.335C2677.49 978.942 2669.91 1008.09 2669.91 1039.6H2687.91C2687.91 1011.11 2694.73 985.058 2708.33 961.265L2692.7 952.335ZM2669.91 1039.6C2669.91 1071.11 2677.49 1100.26 2692.7 1126.87L2708.33 1117.93C2694.73 1094.14 2687.91 1068.09 2687.91 1039.6H2669.91ZM2692.78 1127C2708.54 1153.49 2729.72 1174.67 2756.21 1190.43L2765.42 1174.97C2741.5 1160.73 2722.48 1141.71 2708.25 1117.8L2692.78 1127ZM2756.43 1190.56C2783.59 1205.72 2813 1213.3 2844.51 1213.3V1195.3C2816.02 1195.3 2789.64 1188.48 2765.2 1174.84L2756.43 1190.56ZM3450.87 831.7L3446.24 839.417L3446.34 839.478L3446.44 839.535L3450.87 831.7ZM3515.67 896.5L3507.83 900.928L3507.89 901.03L3507.95 901.13L3515.67 896.5ZM3539.97 1261V1270H3548.97V1261H3539.97ZM3477.87 1261H3468.87V1270H3477.87V1261ZM3461.67 927.1L3453.84 931.537L3453.89 931.634L3453.95 931.73L3461.67 927.1ZM3419.37 884.8L3414.62 892.447L3414.77 892.542L3414.93 892.63L3419.37 884.8ZM3303.27 884.8L3307.7 892.63L3307.8 892.575L3307.9 892.517L3303.27 884.8ZM3260.07 927.1L3252.35 922.47L3252.29 922.565L3252.24 922.663L3260.07 927.1ZM3244.77 1261V1270H3253.77V1261H3244.77ZM3182.67 1261H3173.67V1270H3182.67V1261ZM3182.67 660.7V651.7H3173.67V660.7H3182.67ZM3244.77 660.7H3253.77V651.7H3244.77V660.7ZM3244.77 857.8H3235.77V882.129L3251.6 863.657L3244.77 857.8ZM3296.07 820L3292.64 811.678L3292.59 811.696L3292.55 811.715L3296.07 820ZM3361.77 816.4C3392.58 816.4 3420.68 824.082 3446.24 839.417L3455.5 823.983C3427.06 806.918 3395.75 798.4 3361.77 798.4V816.4ZM3446.44 839.535C3472.61 854.33 3493.04 874.752 3507.83 900.928L3523.5 892.071C3507.1 863.047 3484.32 840.27 3455.29 823.865L3446.44 839.535ZM3507.95 901.13C3523.28 926.69 3530.97 954.782 3530.97 985.6H3548.97C3548.97 951.618 3540.45 920.31 3523.38 891.87L3507.95 901.13ZM3530.97 985.6V1261H3548.97V985.6H3530.97ZM3539.97 1252H3477.87V1270H3539.97V1252ZM3486.87 1261V985.6H3468.87V1261H3486.87ZM3486.87 985.6C3486.87 962.969 3481.02 941.869 3469.38 922.47L3453.95 931.73C3463.91 948.331 3468.87 966.23 3468.87 985.6H3486.87ZM3469.5 922.663C3458.49 903.246 3443.22 887.973 3423.8 876.97L3414.93 892.63C3431.51 902.027 3444.44 914.954 3453.84 931.537L3469.5 922.663ZM3424.11 877.153C3405.25 865.445 3384.4 859.6 3361.77 859.6V877.6C3381.13 877.6 3398.68 882.555 3414.62 892.447L3424.11 877.153ZM3361.77 859.6C3339.14 859.6 3318.03 865.443 3298.64 877.083L3307.9 892.517C3324.5 882.557 3342.4 877.6 3361.77 877.6V859.6ZM3298.83 876.97C3279.46 887.947 3263.94 903.158 3252.35 922.47L3267.78 931.73C3277.8 915.042 3291.07 902.053 3307.7 892.63L3298.83 876.97ZM3252.24 922.663C3241.26 942.037 3235.77 963.069 3235.77 985.6H3253.77C3253.77 966.131 3258.47 948.163 3267.9 931.537L3252.24 922.663ZM3235.77 985.6V1261H3253.77V985.6H3235.77ZM3244.77 1252H3182.67V1270H3244.77V1252ZM3191.67 1261V660.7H3173.67V1261H3191.67ZM3182.67 669.7H3244.77V651.7H3182.67V669.7ZM3235.77 660.7V857.8H3253.77V660.7H3235.77ZM3251.6 863.657C3265.12 847.88 3281.1 836.127 3299.58 828.285L3292.55 811.715C3271.43 820.673 3253.21 834.12 3237.93 851.943L3251.6 863.657ZM3299.49 828.322C3318.74 820.396 3339.47 816.4 3361.77 816.4V798.4C3337.26 798.4 3314.19 802.804 3292.64 811.678L3299.49 828.322ZM3711.93 662.5H3720.93V653.5H3711.93V662.5ZM3711.93 1261V1270H3720.93V1261H3711.93ZM3650.73 1261H3641.73V1270H3650.73V1261ZM3650.73 662.5V653.5H3641.73V662.5H3650.73ZM3702.93 662.5V1261H3720.93V662.5H3702.93ZM3711.93 1252H3650.73V1270H3711.93V1252ZM3659.73 1261V662.5H3641.73V1261H3659.73ZM3650.73 671.5H3711.93V653.5H3650.73V671.5ZM3891 697.6L3884.64 703.964L3891 697.6ZM3891 754.3L3884.64 747.936L3891 754.3ZM3834.3 754.3L3827.94 760.664L3834.3 754.3ZM3834.3 697.6L3827.94 691.236L3834.3 697.6ZM3893.7 811H3902.7V802H3893.7V811ZM3893.7 1261V1270H3902.7V1261H3893.7ZM3831.6 1261H3822.6V1270H3831.6V1261ZM3831.6 811V802H3822.6V811H3831.6ZM3863.1 694.9C3871.46 694.9 3878.48 697.811 3884.64 703.964L3897.36 691.236C3887.92 681.789 3876.34 676.9 3863.1 676.9V694.9ZM3884.64 703.964C3890.79 710.117 3893.7 717.144 3893.7 725.5H3911.7C3911.7 712.256 3906.81 700.683 3897.36 691.236L3884.64 703.964ZM3893.7 725.5C3893.7 734.602 3890.69 741.886 3884.64 747.936L3897.36 760.664C3906.91 751.114 3911.7 739.198 3911.7 725.5H3893.7ZM3884.64 747.936C3878.48 754.089 3871.46 757 3863.1 757V775C3876.34 775 3887.92 770.111 3897.36 760.664L3884.64 747.936ZM3863.1 757C3854 757 3846.71 753.986 3840.66 747.936L3827.94 760.664C3837.49 770.214 3849.4 775 3863.1 775V757ZM3840.66 747.936C3834.61 741.886 3831.6 734.602 3831.6 725.5H3813.6C3813.6 739.198 3818.39 751.114 3827.94 760.664L3840.66 747.936ZM3831.6 725.5C3831.6 717.144 3834.51 710.117 3840.66 703.964L3827.94 691.236C3818.49 700.683 3813.6 712.256 3813.6 725.5H3831.6ZM3840.66 703.964C3846.71 697.914 3854 694.9 3863.1 694.9V676.9C3849.4 676.9 3837.49 681.686 3827.94 691.236L3840.66 703.964ZM3884.7 811V1261H3902.7V811H3884.7ZM3893.7 1252H3831.6V1270H3893.7V1252ZM3840.6 1261V811H3822.6V1261H3840.6ZM3831.6 820H3893.7V802H3831.6V820ZM4432.06 822.7H4441.06V813.7H4432.06V822.7ZM4432.06 1261V1270H4441.06V1261H4432.06ZM4369.96 1261H4360.96V1270H4369.96V1261ZM4369.96 1178.2H4378.96V1150.02L4362.63 1172.98L4369.96 1178.2ZM4090.06 1235.8L4085.51 1243.56L4085.56 1243.59L4085.61 1243.62L4090.06 1235.8ZM4007.26 1153L3999.44 1157.45L3999.47 1157.5L3999.5 1157.55L4007.26 1153ZM4007.26 925.3L3999.5 920.749L3999.47 920.799L3999.44 920.849L4007.26 925.3ZM4090.06 843.4L4094.51 851.222L4094.56 851.194L4094.61 851.164L4090.06 843.4ZM4308.76 839.8L4303.77 847.288L4303.87 847.352L4303.96 847.413L4308.76 839.8ZM4369.96 896.5L4362.41 901.389L4378.96 926.976V896.5H4369.96ZM4369.96 822.7V813.7H4360.96V822.7H4369.96ZM4287.16 1182.7L4291.63 1190.51L4291.7 1190.47L4291.77 1190.43L4287.16 1182.7ZM4346.56 1122.4L4338.83 1117.8L4338.79 1117.87L4338.75 1117.93L4346.56 1122.4ZM4346.56 956.8L4338.7 961.186L4338.76 961.296L4338.83 961.403L4346.56 956.8ZM4287.16 896.5L4282.56 904.234L4282.63 904.275L4282.7 904.314L4287.16 896.5ZM4120.66 896.5L4125.13 904.314L4125.16 904.297L4125.19 904.281L4120.66 896.5ZM4060.36 956.8L4052.58 952.276L4052.57 952.305L4052.55 952.335L4060.36 956.8ZM4060.36 1122.4L4052.55 1126.87L4052.59 1126.93L4052.63 1127L4060.36 1122.4ZM4120.66 1182.7L4116.06 1190.43L4116.17 1190.5L4116.28 1190.56L4120.66 1182.7ZM4423.06 822.7V1261H4441.06V822.7H4423.06ZM4432.06 1252H4369.96V1270H4432.06V1252ZM4378.96 1261V1178.2H4360.96V1261H4378.96ZM4362.63 1172.98C4322.85 1228.91 4270.33 1256.5 4204.36 1256.5V1274.5C4276.39 1274.5 4334.28 1243.89 4377.3 1183.42L4362.63 1172.98ZM4204.36 1256.5C4164.47 1256.5 4127.91 1246.98 4094.51 1227.98L4085.61 1243.62C4121.82 1264.22 4161.46 1274.5 4204.36 1274.5V1256.5ZM4094.61 1228.04C4061.14 1208.41 4034.65 1181.92 4015.03 1148.45L3999.5 1157.55C4020.68 1193.68 4049.38 1222.39 4085.51 1243.56L4094.61 1228.04ZM4015.08 1148.55C3996.07 1115.13 3986.56 1078.87 3986.56 1039.6H3968.56C3968.56 1081.93 3978.85 1121.27 3999.44 1157.45L4015.08 1148.55ZM3986.56 1039.6C3986.56 999.705 3996.08 963.147 4015.08 929.751L3999.44 920.849C3978.84 957.053 3968.56 996.695 3968.56 1039.6H3986.56ZM4015.03 929.851C4034.63 896.403 4061.1 870.236 4094.51 851.222L4085.61 835.578C4049.43 856.164 4020.69 884.597 3999.5 920.749L4015.03 929.851ZM4094.61 851.164C4128 831.595 4164.52 821.8 4204.36 821.8V803.8C4161.41 803.8 4121.73 814.405 4085.51 835.636L4094.61 851.164ZM4204.36 821.8C4245.73 821.8 4278.65 830.539 4303.77 847.288L4313.75 832.312C4284.88 813.061 4248.19 803.8 4204.36 803.8V821.8ZM4303.96 847.413C4330.82 864.343 4350.12 882.395 4362.41 901.389L4377.52 891.611C4363.41 869.805 4341.91 850.057 4313.56 832.187L4303.96 847.413ZM4378.96 896.5V822.7H4360.96V896.5H4378.96ZM4369.96 831.7H4432.06V813.7H4369.96V831.7ZM4204.36 1213.3C4235.87 1213.3 4265.02 1205.72 4291.63 1190.51L4282.7 1174.89C4258.9 1188.48 4232.85 1195.3 4204.36 1195.3V1213.3ZM4291.77 1190.43C4318.29 1174.65 4339.2 1153.43 4354.38 1126.87L4338.75 1117.93C4325.13 1141.77 4306.44 1160.75 4282.56 1174.97L4291.77 1190.43ZM4354.3 1127C4370.14 1100.38 4378.06 1071.18 4378.06 1039.6H4360.06C4360.06 1068.02 4352.98 1094.02 4338.83 1117.8L4354.3 1127ZM4378.06 1039.6C4378.06 1008.02 4370.14 978.822 4354.3 952.197L4338.83 961.403C4352.98 985.178 4360.06 1011.18 4360.06 1039.6H4378.06ZM4354.42 952.414C4339.24 925.211 4318.28 903.914 4291.63 888.686L4282.7 904.314C4306.45 917.886 4325.09 936.789 4338.7 961.186L4354.42 952.414ZM4291.77 888.766C4265.14 872.918 4235.94 865 4204.36 865V883C4232.78 883 4258.78 890.082 4282.56 904.234L4291.77 888.766ZM4204.36 865C4172.78 865 4143.32 872.916 4116.14 888.719L4125.19 904.281C4149.6 890.084 4175.94 883 4204.36 883V865ZM4116.2 888.686C4089.58 903.895 4068.35 925.147 4052.58 952.276L4068.14 961.324C4082.37 936.853 4101.34 917.905 4125.13 904.314L4116.2 888.686ZM4052.55 952.335C4037.34 978.942 4029.76 1008.09 4029.76 1039.6H4047.76C4047.76 1011.11 4054.58 985.058 4068.18 961.265L4052.55 952.335ZM4029.76 1039.6C4029.76 1071.11 4037.34 1100.26 4052.55 1126.87L4068.18 1117.93C4054.58 1094.14 4047.76 1068.09 4047.76 1039.6H4029.76ZM4052.63 1127C4068.4 1153.49 4089.57 1174.67 4116.06 1190.43L4125.27 1174.97C4101.35 1160.73 4082.33 1141.71 4068.1 1117.8L4052.63 1127ZM4116.28 1190.56C4143.44 1205.72 4172.85 1213.3 4204.36 1213.3V1195.3C4175.87 1195.3 4149.49 1188.48 4125.05 1174.84L4116.28 1190.56ZM4682.92 1225L4687.5 1217.26L4682.92 1225ZM4574.02 1116.1L4566.27 1120.69L4574.02 1116.1ZM4574.02 815.5L4581.76 820.085L4581.77 820.063L4581.79 820.041L4574.02 815.5ZM4682.92 705.7L4678.38 697.93L4678.35 697.943L4678.33 697.956L4682.92 705.7ZM4983.52 705.7L4978.98 713.47L4983.52 705.7ZM5093.32 815.5L5101.09 810.959L5093.32 815.5ZM5093.32 1116.1L5101.06 1120.69L5101.07 1120.66L5101.09 1120.64L5093.32 1116.1ZM4983.52 1225L4978.98 1217.23L4978.95 1217.24L4978.93 1217.26L4983.52 1225ZM4952.92 1172.8L4957.4 1180.61L4957.44 1180.58L4957.49 1180.55L4952.92 1172.8ZM5039.32 1085.5L5031.57 1080.93L5031.54 1080.97L5031.51 1081.02L5039.32 1085.5ZM5039.32 846.1L5031.51 850.579L5031.54 850.627L5031.57 850.674L5039.32 846.1ZM4952.92 759.7L4948.34 767.451L4948.39 767.479L4948.44 767.506L4952.92 759.7ZM4713.52 759.7L4718 767.506L4718.04 767.479L4718.09 767.451L4713.52 759.7ZM4626.22 846.1L4618.47 841.526L4618.44 841.573L4618.41 841.621L4626.22 846.1ZM4626.22 1085.5L4618.41 1089.98L4618.44 1090.03L4618.47 1090.07L4626.22 1085.5ZM4713.52 1172.8L4708.94 1180.55L4708.99 1180.58L4709.04 1180.61L4713.52 1172.8ZM4833.22 1256.5C4780.18 1256.5 4731.67 1243.41 4687.5 1217.26L4678.33 1232.74C4725.36 1260.59 4777.05 1274.5 4833.22 1274.5V1256.5ZM4687.5 1217.26C4643.2 1191.03 4607.99 1155.81 4581.76 1111.51L4566.27 1120.69C4594.04 1167.59 4631.43 1204.97 4678.33 1232.74L4687.5 1217.26ZM4581.76 1111.51C4555.61 1067.35 4542.52 1018.84 4542.52 965.8H4524.52C4524.52 1021.96 4538.42 1073.65 4566.27 1120.69L4581.76 1111.51ZM4542.52 965.8C4542.52 912.762 4555.61 864.254 4581.76 820.085L4566.27 810.915C4538.42 857.946 4524.52 909.638 4524.52 965.8H4542.52ZM4581.79 820.041C4608.02 775.149 4643.23 739.657 4687.5 713.444L4678.33 697.956C4631.4 725.743 4594.01 763.451 4566.25 810.959L4581.79 820.041ZM4687.46 713.47C4732.27 687.283 4780.8 674.2 4833.22 674.2V656.2C4777.64 656.2 4725.97 670.117 4678.38 697.93L4687.46 713.47ZM4833.22 674.2C4885.64 674.2 4934.17 687.283 4978.98 713.47L4988.06 697.93C4940.47 670.117 4888.8 656.2 4833.22 656.2V674.2ZM4978.98 713.47C5023.84 739.689 5059.33 775.177 5085.55 820.041L5101.09 810.959C5073.31 763.423 5035.59 725.71 4988.06 697.93L4978.98 713.47ZM5085.55 820.041C5111.73 864.85 5124.82 913.381 5124.82 965.8H5142.82C5142.82 910.219 5128.9 858.55 5101.09 810.959L5085.55 820.041ZM5124.82 965.8C5124.82 1018.22 5111.73 1066.75 5085.55 1111.56L5101.09 1120.64C5128.9 1073.05 5142.82 1021.38 5142.82 965.8H5124.82ZM5085.57 1111.51C5059.36 1155.78 5023.87 1190.99 4978.98 1217.23L4988.06 1232.77C5035.57 1205.01 5073.27 1167.62 5101.06 1120.69L5085.57 1111.51ZM4978.93 1217.26C4934.76 1243.41 4886.25 1256.5 4833.22 1256.5V1274.5C4889.38 1274.5 4941.07 1260.59 4988.1 1232.74L4978.93 1217.26ZM4833.22 1213.3C4877.95 1213.3 4919.4 1202.41 4957.4 1180.61L4948.44 1164.99C4913.23 1185.19 4874.88 1195.3 4833.22 1195.3V1213.3ZM4957.49 1180.55C4995.42 1158.16 5025.34 1127.94 5047.12 1089.98L5031.51 1081.02C5011.29 1116.26 4983.61 1144.24 4948.34 1165.05L4957.49 1180.55ZM5047.07 1090.07C5069.5 1052.06 5080.72 1010.58 5080.72 965.8H5062.72C5062.72 1007.42 5052.33 1045.74 5031.57 1080.93L5047.07 1090.07ZM5080.72 965.8C5080.72 921.019 5069.5 879.535 5047.07 841.526L5031.57 850.674C5052.33 885.865 5062.72 924.181 5062.72 965.8H5080.72ZM5047.12 841.621C5025.33 803.636 4995.38 773.688 4957.4 751.894L4948.44 767.506C4983.65 787.712 5011.3 815.364 5031.51 850.579L5047.12 841.621ZM4957.49 751.949C4919.48 729.517 4878 718.3 4833.22 718.3V736.3C4874.84 736.3 4913.15 746.683 4948.34 767.451L4957.49 751.949ZM4833.22 718.3C4788.44 718.3 4746.95 729.517 4708.94 751.949L4718.09 767.451C4753.28 746.683 4791.6 736.3 4833.22 736.3V718.3ZM4709.04 751.894C4671.08 773.675 4640.85 803.593 4618.47 841.526L4633.97 850.674C4654.78 815.407 4682.76 787.725 4718 767.506L4709.04 751.894ZM4618.41 841.621C4596.61 879.618 4585.72 921.067 4585.72 965.8H4603.72C4603.72 924.133 4613.82 885.782 4634.02 850.579L4618.41 841.621ZM4585.72 965.8C4585.72 1010.53 4596.61 1051.98 4618.41 1089.98L4634.02 1081.02C4613.82 1045.82 4603.72 1007.47 4603.72 965.8H4585.72ZM4618.47 1090.07C4640.84 1127.98 4671.03 1158.18 4708.94 1180.55L4718.09 1165.05C4682.8 1144.22 4654.79 1116.22 4633.97 1080.93L4618.47 1090.07ZM4709.04 1180.61C4747.03 1202.41 4788.48 1213.3 4833.22 1213.3V1195.3C4791.55 1195.3 4753.2 1185.19 4718 1164.99L4709.04 1180.61ZM5554.6 836.2H5563.6V835.61L5563.52 835.026L5554.6 836.2ZM5533 776.8L5525.46 781.705L5525.5 781.78L5525.55 781.853L5533 776.8ZM5318.8 753.4L5312.44 747.036L5312.39 747.087L5312.34 747.138L5318.8 753.4ZM5321.5 907.3L5316.46 914.755L5321.5 907.3ZM5407 932.5L5407.77 923.533L5407.76 923.532L5407.74 923.53L5407 932.5ZM5495.2 946.9L5492.82 955.578L5492.92 955.606L5493.02 955.631L5495.2 946.9ZM5555.5 972.1L5550.51 979.588L5550.63 979.671L5550.76 979.75L5555.5 972.1ZM5605.9 1159.3L5597.71 1155.58L5597.66 1155.68L5597.62 1155.79L5605.9 1159.3ZM5569 1212.4L5562.76 1205.92L5562.72 1205.95L5562.69 1205.98L5569 1212.4ZM5266.6 1213.3L5272.81 1206.78L5272.76 1206.74L5272.71 1206.69L5266.6 1213.3ZM5209 1094.5V1085.5H5198.73L5200.08 1095.68L5209 1094.5ZM5271.1 1094.5L5279.96 1092.91L5278.63 1085.5H5271.1V1094.5ZM5308.9 1168.3L5302.64 1174.76L5302.7 1174.83L5302.77 1174.89L5308.9 1168.3ZM5518.6 1174.6L5524.16 1181.68L5524.17 1181.67L5524.18 1181.66L5518.6 1174.6ZM5544.7 1045.9L5536.87 1050.33L5536.98 1050.53L5537.11 1050.73L5544.7 1045.9ZM5498.8 1012.6L5501.91 1004.15L5498.8 1012.6ZM5401.6 994.6L5400.81 1003.56L5400.82 1003.57L5400.83 1003.57L5401.6 994.6ZM5240.5 764.2L5232.15 760.857L5232.12 760.921L5232.09 760.986L5240.5 764.2ZM5275.6 710.2L5269.24 703.836L5275.6 710.2ZM5416.9 660.7L5416.99 651.7L5416.95 651.7H5416.9V660.7ZM5558.2 712L5551.72 718.247L5551.78 718.306L5551.84 718.364L5558.2 712ZM5616.7 837.1V846.1H5626.84L5625.64 836.036L5616.7 837.1ZM5554.6 837.1H5545.6V846.1H5554.6V837.1ZM5563.52 835.026C5560.37 811.021 5552.74 789.853 5540.45 771.746L5525.55 781.853C5536.07 797.347 5542.84 815.779 5545.68 837.374L5563.52 835.026ZM5540.55 771.895C5515.05 732.674 5473.06 713.8 5416.9 713.8V731.8C5468.75 731.8 5504.15 748.926 5525.46 781.705L5540.55 771.895ZM5416.9 713.8C5370.81 713.8 5335.26 724.21 5312.44 747.036L5325.17 759.764C5343.14 741.79 5372.99 731.8 5416.9 731.8V713.8ZM5312.34 747.138C5291.75 768.391 5281.9 796.941 5281.9 831.7H5299.9C5299.9 800.459 5308.65 776.809 5325.27 759.662L5312.34 747.138ZM5281.9 831.7C5281.9 869.748 5292.54 898.571 5316.46 914.755L5326.54 899.845C5309.67 888.429 5299.9 866.852 5299.9 831.7H5281.9ZM5316.46 914.755C5338.62 929.745 5368.83 938.401 5406.27 941.47L5407.74 923.53C5371.98 920.599 5345.18 912.455 5326.54 899.845L5316.46 914.755ZM5406.23 941.467C5440.68 944.437 5469.51 949.168 5492.82 955.578L5497.59 938.222C5472.9 931.432 5442.92 926.563 5407.77 923.533L5406.23 941.467ZM5493.02 955.631C5516.28 961.446 5535.36 969.492 5550.51 979.588L5560.49 964.612C5543.24 953.108 5522.13 944.354 5497.38 938.169L5493.02 955.631ZM5550.76 979.75C5590.34 1004.28 5610.4 1042.55 5610.4 1096.3H5628.4C5628.4 1037.25 5605.86 992.721 5560.24 964.45L5550.76 979.75ZM5610.4 1096.3C5610.4 1117.24 5606.17 1136.97 5597.71 1155.58L5614.09 1163.02C5623.64 1142.03 5628.4 1119.76 5628.4 1096.3H5610.4ZM5597.62 1155.79C5589.71 1174.42 5578.13 1191.12 5562.76 1205.92L5575.24 1218.88C5592.28 1202.48 5605.29 1183.78 5614.19 1162.81L5597.62 1155.79ZM5562.69 1205.98C5528.16 1239.95 5480.54 1257.4 5418.7 1257.4V1275.4C5484.07 1275.4 5536.65 1256.85 5575.31 1218.82L5562.69 1205.98ZM5418.7 1257.4C5356.21 1257.4 5307.94 1240.21 5272.81 1206.78L5260.4 1219.82C5299.66 1257.19 5352.8 1275.4 5418.7 1275.4V1257.4ZM5272.71 1206.69C5242.69 1178.94 5224.29 1141.39 5217.92 1093.32L5200.08 1095.68C5206.91 1147.21 5226.91 1188.86 5260.49 1219.91L5272.71 1206.69ZM5209 1103.5H5271.1V1085.5H5209V1103.5ZM5262.24 1096.09C5267.94 1127.74 5281.34 1154.11 5302.64 1174.76L5315.17 1161.84C5296.86 1144.09 5285.06 1121.26 5279.96 1092.91L5262.24 1096.09ZM5302.77 1174.89C5330.76 1200.93 5370.16 1213.3 5419.6 1213.3V1195.3C5373.04 1195.3 5338.64 1183.67 5315.03 1161.71L5302.77 1174.89ZM5419.6 1213.3C5461.86 1213.3 5496.99 1203.03 5524.16 1181.68L5513.04 1167.52C5489.82 1185.77 5458.94 1195.3 5419.6 1195.3V1213.3ZM5524.18 1181.66C5552.06 1159.62 5566.3 1130.96 5566.3 1096.3H5548.3C5548.3 1125.24 5536.75 1148.78 5513.02 1167.54L5524.18 1181.66ZM5566.3 1096.3C5566.3 1074.7 5561.85 1056.09 5552.29 1041.07L5537.11 1050.73C5544.35 1062.11 5548.3 1077.1 5548.3 1096.3H5566.3ZM5552.54 1041.47C5543.25 1025.05 5525.69 1012.92 5501.91 1004.15L5495.69 1021.05C5517.51 1029.08 5530.55 1039.15 5536.87 1050.33L5552.54 1041.47ZM5501.91 1004.15C5478 995.346 5444.68 989.259 5402.37 985.633L5400.83 1003.57C5442.53 1007.14 5474 1013.05 5495.69 1021.05L5501.91 1004.15ZM5402.4 985.635C5345.91 980.634 5304.96 964.928 5278.18 939.676C5251.6 914.623 5237.8 879.065 5237.8 831.7H5219.8C5219.8 882.735 5234.8 923.527 5265.83 952.774C5296.64 981.822 5342.09 998.366 5400.81 1003.56L5402.4 985.635ZM5237.8 831.7C5237.8 808.061 5241.55 786.667 5248.91 767.414L5232.09 760.986C5223.86 782.533 5219.8 806.139 5219.8 831.7H5237.8ZM5248.86 767.542C5256.84 747.598 5267.88 730.646 5281.97 716.564L5269.24 703.836C5253.32 719.754 5240.97 738.802 5232.15 760.857L5248.86 767.542ZM5281.97 716.564C5312.82 685.713 5357.05 669.7 5416 669.7V651.7C5353.76 651.7 5304.39 668.687 5269.24 703.836L5281.97 716.564ZM5416 669.7H5416.9V651.7H5416V669.7ZM5416.81 669.7C5477.01 670.284 5521.49 686.893 5551.72 718.247L5564.68 705.753C5530.11 669.907 5480.39 652.316 5416.99 651.7L5416.81 669.7ZM5551.84 718.364C5583.28 749.808 5601.98 789.582 5607.76 838.164L5625.64 836.036C5619.42 783.818 5599.12 740.192 5564.57 705.636L5551.84 718.364ZM5616.7 828.1H5554.6V846.1H5616.7V828.1ZM5563.6 837.1V836.2H5545.6V837.1H5563.6Z" fill="black"/>
<defs>
<filter id="filter0_d" x="0" y="0" width="2000" height="2000" filterUnits="userSpaceOnUse" color-interpolation-filters="sRGB">
<feFlood flood-opacity="0" result="BackgroundImageFix"/>
<feColorMatrix in="SourceAlpha" type="matrix" values="0 0 0 0 0 0 0 0 0 0 0 0 0 0 0 0 0 0 127 0"/>
<feOffset/>
<feGaussianBlur stdDeviation="125"/>
<feColorMatrix type="matrix" values="0 0 0 0 0 0 0 0 0 0 0 0 0 0 0 0 0 0 0.2 0"/>
<feBlend mode="normal" in2="BackgroundImageFix" result="effect1_dropShadow"/>
<feBlend mode="normal" in="SourceGraphic" in2="effect1_dropShadow" result="shape"/>
</filter>
<linearGradient id="paint0_linear" x1="553.035" y1="554.467" x2="1442.67" y2="1445.53" gradientUnits="userSpaceOnUse">
<stop stop-color="#C00000"/>
<stop offset="1" stop-color="#FF4300"/>
</linearGradient>
<linearGradient id="paint1_linear" x1="553.035" y1="554.467" x2="1442.67" y2="1445.53" gradientUnits="userSpaceOnUse">
<stop stop-color="#C00000"/>
<stop offset="1" stop-color="#FF4300"/>
</linearGradient>
</defs>
</svg>
