<svg width="3500" height="3500" viewBox="0 0 3500 3500" fill="none" xmlns="http://www.w3.org/2000/svg">
<path fill-rule="evenodd" clip-rule="evenodd" d="M3500 1750C3500 2716.5 2716.5 3500 1750 3500C783.502 3500 0 2716.5 0 1750C0 783.502 783.502 0 1750 0C2716.5 0 3500 783.502 3500 1750ZM450 1750L830.761 1369.24V830.761H1369.24L1750 450L2130.76 830.761H2669.24V1369.24L3050 1750L2669.24 2130.76V2669.24H2130.76L1750 3050L1369.24 2669.24H830.761V2130.76L450 1750ZM1750 2450C2136.6 2450 2450 2136.6 2450 1750C2450 1363.4 2136.6 1050 1750 1050C1363.4 1050 1050 1363.4 1050 1750C1050 2136.6 1363.4 2450 1750 2450Z" fill="white"/>
</svg>
