<?xml version="1.0" encoding="UTF-8" standalone="no"?><!-- Generator: Gravit.io --><svg xmlns="http://www.w3.org/2000/svg" xmlns:xlink="http://www.w3.org/1999/xlink" style="isolation:isolate" viewBox="0 0 64 64" width="64pt" height="64pt"><defs><clipPath id="_clipPath_hSPAMVyyqlvI1cRJsvE8LYKBUP3Dm1W0"><rect width="64" height="64"/></clipPath></defs><g clip-path="url(#_clipPath_hSPAMVyyqlvI1cRJsvE8LYKBUP3Dm1W0)"><g><g opacity="0.2"><path d=" M 58 6.5 L 54 10.5 L 54 12.5 L 60 6.5 L 58 6.5 Z  M 20 35.5 L 20 37.5 C 20 39.162 21.338 40.5 23 40.5 L 51 40.5 C 52.662 40.5 54 39.162 54 37.5 L 54 35.5 C 54 37.162 52.662 38.5 51 38.5 L 23 38.5 C 21.338 38.5 20 37.162 20 35.5 Z " fill="rgb(0,0,0)"/></g><g opacity="0.2"><path d=" M 4 24.5 L 10 30.5 L 10 28.5 L 6 24.5 L 4 24.5 Z  M 10 53.5 L 10 55.5 C 10 57.162 11.338 58.5 13 58.5 L 41 58.5 C 42.662 58.5 44 57.162 44 55.5 L 44 53.5 C 44 55.162 42.662 56.5 41 56.5 L 13 56.5 C 11.338 56.5 10 55.162 10 53.5 Z " fill="rgb(0,0,0)"/></g><path d=" M 23 5.5 C 21.338 5.5 20 6.838 20 8.5 L 20 36.5 C 20 38.162 21.338 39.5 23 39.5 L 51 39.5 C 52.662 39.5 54 38.162 54 36.5 L 54 11.5 L 60 5.5 L 23 5.5 Z " fill="rgb(81,45,168)"/><g opacity="0.1"><path d=" M 23 5.5 C 21.338 5.5 20 6.838 20 8.5 L 20 9.5 C 20 7.838 21.338 6.5 23 6.5 L 59 6.5 L 60 5.5 L 23 5.5 Z " fill="rgb(255,255,255)"/></g><path d=" M 4 23.5 L 10 29.5 L 10 54.5 C 10 56.162 11.338 57.5 13 57.5 L 41 57.5 C 42.662 57.5 44 56.162 44 54.5 L 44 26.5 C 44 24.838 42.662 23.5 41 23.5 L 4 23.5 Z " fill="rgb(103,58,183)"/><g opacity="0.2"><path d=" M 16 34.5 L 16 36.5 L 38 36.5 L 38 34.5 L 16 34.5 Z  M 16 40.5 L 16 42.5 L 38 42.5 L 38 40.5 L 16 40.5 Z  M 16 46.5 L 16 48.5 L 32.8 48.5 L 32.8 46.5 L 16 46.5 Z " fill="rgb(0,0,0)"/></g><path d=" M 16 33.5 L 16 35.5 L 38 35.5 L 38 33.5 L 16 33.5 Z  M 16 39.5 L 16 41.5 L 38 41.5 L 38 39.5 L 16 39.5 Z  M 16 45.5 L 16 47.5 L 32.8 47.5 L 32.8 45.5 L 16 45.5 Z " fill="rgb(255,255,255)"/><g opacity="0.1"><path d=" M 4 23.5 L 5 24.5 L 41 24.5 C 42.662 24.5 44 25.838 44 27.5 L 44 26.5 C 44 24.838 42.662 23.5 41 23.5 L 4 23.5 Z " fill="rgb(255,255,255)"/></g></g></g></svg>