<?xml version="1.0" encoding="UTF-8" standalone="no"?><!-- Generator: Gravit.io --><svg xmlns="http://www.w3.org/2000/svg" xmlns:xlink="http://www.w3.org/1999/xlink" style="isolation:isolate" viewBox="0 0 64 64" width="64pt" height="64pt"><defs><clipPath id="_clipPath_p8tLFy0zUNGl49MWQH1Gx60GHBdpHNW9"><rect width="64" height="64"/></clipPath></defs><g clip-path="url(#_clipPath_p8tLFy0zUNGl49MWQH1Gx60GHBdpHNW9)"><g><g opacity="0.2"><path d=" M 59.958 31.328 C 59.511 46.451 47.13 58.484 32 58.5 C 16.999 58.49 4.672 46.659 4.044 31.672 C 4.025 31.948 4.011 32.224 4 32.5 C 4 47.964 16.536 60.5 32 60.5 C 47.464 60.5 60 47.964 60 32.5 C 59.994 32.109 59.98 31.718 59.958 31.328 L 59.958 31.328 Z " fill="rgb(0,0,0)"/></g><circle vector-effect="non-scaling-stroke" cx="32.00000000000001" cy="31.50000000000239" r="28" fill="rgb(0,145,234)"/><g style="mix-blend-mode:normal;" opacity="0.2"><path d="M 52 32.5 L 52 32.5 C 52 21.462 43.038 12.5 32 12.5 L 32 12.5 C 20.962 12.5 12 21.462 12 32.5 L 12 32.5 C 12 43.538 20.962 52.5 32 52.5 L 32 52.5 C 43.038 52.5 52 43.538 52 32.5 Z" style="stroke:none;fill:#000000;stroke-miterlimit:10;"/></g><path d="M 52 31.5 L 52 31.5 C 52 20.462 43.038 11.5 32 11.5 L 32 11.5 C 20.962 11.5 12 20.462 12 31.5 L 12 31.5 C 12 42.538 20.962 51.5 32 51.5 L 32 51.5 C 43.038 51.5 52 42.538 52 31.5 Z" style="stroke:none;fill:#03A9F4;stroke-miterlimit:10;"/><g style="opacity:0.2;"><g opacity="0.2"><path d=" M 28 22.5 L 28 23.5 L 28 33.039 C 27.392 32.687 26.702 32.501 26 32.5 C 23.791 32.5 22 34.291 22 36.5 C 22 38.709 23.791 40.5 26 40.5 C 28.209 40.5 30 38.709 30 36.5 L 30 26.5 L 38 26.5 L 38 33.039 C 37.392 32.687 36.702 32.501 36 32.5 C 33.791 32.5 32 34.291 32 36.5 C 32 38.709 33.791 40.5 36 40.5 C 38.209 40.5 40 38.709 40 36.5 L 40 22.5 L 39 22.5 L 28 22.5 Z " fill="rgb(0,0,0)"/></g></g><g><path d=" M 28 21.5 L 28 22.5 L 28 32.039 C 27.392 31.687 26.702 31.501 26 31.5 C 23.791 31.5 22 33.291 22 35.5 C 22 37.709 23.791 39.5 26 39.5 C 28.209 39.5 30 37.709 30 35.5 L 30 25.5 L 38 25.5 L 38 32.039 C 37.392 31.687 36.702 31.501 36 31.5 C 33.791 31.5 32 33.291 32 35.5 C 32 37.709 33.791 39.5 36 39.5 C 38.209 39.5 40 37.709 40 35.5 L 40 21.5 L 39 21.5 L 28 21.5 Z " fill="rgb(255,255,255)"/></g><g opacity="0.2"><path d=" M 31.998 3.5 C 16.535 3.501 4 16.037 4 31.5 C 4.004 31.664 4.01 31.828 4.018 31.992 C 4.294 16.734 16.738 4.508 31.998 4.5 L 32 4.5 C 47.26 4.512 59.7 16.742 59.973 32 C 59.983 31.833 59.991 31.667 59.998 31.5 C 59.998 16.037 47.463 3.501 32 3.5 L 31.998 3.5 Z " fill="rgb(255,255,255)"/></g><g opacity="0.2"><path d=" M 32 11.5 C 20.92 11.5 12 20.42 12 31.5 C 12 31.668 12.008 31.833 12.012 32 C 12.276 21.154 21.088 12.5 32 12.5 C 42.912 12.5 51.724 21.154 51.988 32 C 51.992 31.833 52 31.668 52 31.5 C 52 20.42 43.08 11.5 32 11.5 Z " fill="rgb(255,255,255)"/></g></g></g></svg>