<?xml version="1.0" encoding="UTF-8" standalone="no"?><!-- Generator: Gravit.io --><svg xmlns="http://www.w3.org/2000/svg" xmlns:xlink="http://www.w3.org/1999/xlink" style="isolation:isolate" viewBox="0 0 64 64" width="64pt" height="64pt"><defs><clipPath id="_clipPath_jPrxUHbBaCuUnys8SgrOW1I8viadWMBE"><rect width="64" height="64"/></clipPath></defs><g clip-path="url(#_clipPath_jPrxUHbBaCuUnys8SgrOW1I8viadWMBE)"><g><g style="mix-blend-mode:normal;" opacity="0.2"><path d="M 32 4.5 L 32 4.5 C 47.454 4.5 60 17.046 60 32.5 L 60 32.5 C 60 47.954 47.454 60.5 32 60.5 L 32 60.5 C 16.546 60.5 4 47.954 4 32.5 L 4 32.5 C 4 17.046 16.546 4.5 32 4.5 Z" style="stroke:none;fill:#000000;stroke-miterlimit:10;"/></g><path d="M 32 3.5 L 32 3.5 C 47.454 3.5 60 16.046 60 31.5 L 60 31.5 C 60 46.954 47.454 59.5 32 59.5 L 32 59.5 C 16.546 59.5 4 46.954 4 31.5 L 4 31.5 C 4 16.046 16.546 3.5 32 3.5 Z" style="stroke:none;fill:#2869B6;stroke-miterlimit:10;"/><g opacity="0.2"><path d=" M 32 4.5 C 27.903 4.5 24.028 5.393 20.527 6.961 L 24 10.102 L 24 13.832 L 28.266 18.5 L 30.133 18.5 L 30.133 15.7 L 32 12.899 L 32 11.036 L 34 9.168 L 34 4.602 C 33.337 4.555 32.675 4.5 32 4.5 Z  M 12.387 12.5 C 7.61 17.184 4.539 23.575 4.09 30.707 L 14 39.036 L 14 36.235 L 12 33.5 L 14.266 32.567 L 16.133 32.567 L 17.973 34.434 L 18.027 29.512 L 20.801 26.5 L 22 26.5 L 22 25.036 L 24 23.168 L 24 20.368 L 22.539 18.528 L 18 18.473 L 18 22.5 L 16.133 22.5 L 14 20.368 L 14 18.5 L 17.066 16.5 L 20 16.5 L 20 13.832 L 18 12.5 L 12.387 12.5 Z  M 46 12.899 L 44 15.7 L 44 17.5 L 46 17.5 L 46 16.5 L 48 16.5 L 48 18.559 L 46.934 19.5 L 42 19.5 L 42 21.5 L 40 21.5 L 40 24.5 L 36 24.5 L 36 27.5 L 42 27.5 L 42 26.5 L 45 26.5 L 45 26.899 L 46.934 28.5 L 48 28.5 L 48 27.832 L 47 26.899 L 47 26.5 L 48.801 26.5 L 51.602 28.5 L 54 28.5 L 54 29.7 L 53.465 30.5 L 51.602 30.5 L 59.371 38.399 C 59.776 36.497 60 34.527 60 32.5 C 60 24.849 56.952 17.943 52.012 12.899 L 46.934 12.899 L 46 12.899 Z  M 51.602 30.5 L 46 30.5 L 45.066 29.5 L 37.934 29.5 L 34 33.434 L 34 37.168 L 37.934 40.5 L 40.133 40.5 L 42 42.766 L 42 43.7 L 44.133 44.633 L 44.133 50.235 L 48.797 54.895 C 50.745 53.434 52.495 51.736 54 49.825 L 54 42.766 L 56.266 40.899 L 56.266 37.168 L 51.602 32.5 L 51.602 30.5 Z  M 16.133 38.5 L 14 40.368 L 14 44.633 L 18.027 48.434 L 17.988 56.739 C 19.265 57.476 20.605 58.11 22 58.641 L 22 56.766 L 24 53.965 L 24 52.102 L 28 49.301 L 28 47.434 L 30 45.567 L 30 42.235 L 27.332 40.5 L 23.602 40.5 L 21.734 38.5 L 16.133 38.5 Z " fill="rgb(0,0,0)"/></g><path d=" M 32 3.5 C 27.903 3.5 24.028 4.393 20.527 5.961 L 24 9.102 L 24 12.832 L 28.266 17.5 L 30.133 17.5 L 30.133 14.699 L 32 11.898 L 32 10.035 L 34 8.168 L 34 3.602 C 33.337 3.555 32.675 3.5 32 3.5 Z  M 12.387 11.5 C 7.61 16.184 4.539 22.575 4.09 29.707 L 14 38.035 L 14 35.234 L 12 32.5 L 14.266 31.566 L 16.133 31.566 L 17.973 33.434 L 18.027 28.512 L 20.801 25.5 L 22 25.5 L 22 24.035 L 24 22.168 L 24 19.367 L 22.539 17.527 L 18 17.473 L 18 21.5 L 16.133 21.5 L 14 19.367 L 14 17.5 L 17.066 15.5 L 20 15.5 L 20 12.832 L 18 11.5 L 12.387 11.5 Z  M 46 11.898 L 44 14.699 L 44 16.5 L 46 16.5 L 46 15.5 L 48 15.5 L 48 17.559 L 46.934 18.5 L 42 18.5 L 42 20.5 L 40 20.5 L 40 23.5 L 36 23.5 L 36 26.5 L 42 26.5 L 42 25.5 L 45 25.5 L 45 25.898 L 46.934 27.5 L 48 27.5 L 48 26.832 L 47 25.898 L 47 25.5 L 48.801 25.5 L 51.602 27.5 L 54 27.5 L 54 28.699 L 53.465 29.5 L 51.602 29.5 L 59.371 37.398 C 59.776 35.496 60 33.526 60 31.5 C 60 23.849 56.952 16.943 52.012 11.898 L 46.934 11.898 L 46 11.898 Z  M 51.602 29.5 L 46 29.5 L 45.066 28.5 L 37.934 28.5 L 34 32.434 L 34 36.168 L 37.934 39.5 L 40.133 39.5 L 42 41.766 L 42 42.699 L 44.133 43.633 L 44.133 49.234 L 48.797 53.895 C 50.745 52.434 52.495 50.736 54 48.824 L 54 41.766 L 56.266 39.898 L 56.266 36.168 L 51.602 31.5 L 51.602 29.5 Z  M 16.133 37.5 L 14 39.367 L 14 43.633 L 18.027 47.434 L 17.988 55.738 C 19.265 56.475 20.605 57.109 22 57.641 L 22 55.766 L 24 52.965 L 24 51.102 L 28 48.301 L 28 46.434 L 30 44.566 L 30 41.234 L 27.332 39.5 L 23.602 39.5 L 21.734 37.5 L 16.133 37.5 Z " fill="rgb(76,175,80)"/><g opacity="0.2"><path d=" M 23.814 32.5 C 23.54 32.507 23.277 32.608 23.072 32.786 L 5.388 46.775 C 4.654 47.412 5.02 48.596 5.993 48.731 L 12.851 49.694 L 9.637 55.231 C 8.919 56.469 9.344 58.041 10.588 58.756 L 11.277 59.153 C 12.521 59.867 14.102 59.444 14.82 58.206 L 18.157 52.456 L 23.047 56.4 C 23.8 57.009 24.94 56.488 24.941 55.534 L 25 33.63 C 25.002 32.995 24.465 32.484 23.814 32.5 Z " fill="rgb(0,0,0)"/></g><path d=" M 23.814 31.5 C 23.54 31.507 23.277 31.608 23.072 31.786 L 5.388 45.775 C 4.654 46.412 5.02 47.596 5.993 47.731 L 12.851 48.694 L 9.637 54.231 C 8.919 55.469 9.344 57.041 10.588 57.756 L 11.277 58.153 C 12.521 58.867 14.102 58.444 14.82 57.206 L 18.157 51.456 L 23.047 55.4 C 23.8 56.009 24.94 55.488 24.941 54.534 L 25 32.63 C 25.002 31.995 24.465 31.484 23.814 31.5 Z " fill="rgb(255,255,255)"/><g opacity="0.1"><path d=" M 32 3.5 C 16.488 3.5 4 15.988 4 31.5 C 4 31.668 4.011 31.833 4.014 32 C 4.28 16.721 16.656 4.5 32 4.5 C 47.344 4.5 59.72 16.721 59.986 32 C 59.989 31.833 60 31.668 60 31.5 C 60 15.988 47.512 3.5 32 3.5 Z " fill="rgb(255,255,255)"/></g><g opacity="0.2"><path d=" M 32 3.5 C 27.903 3.5 24.028 4.393 20.527 5.961 L 21.283 6.645 C 24.584 5.278 28.194 4.5 32 4.5 C 32.675 4.5 33.337 4.555 34 4.602 L 34 3.602 C 33.337 3.555 32.675 3.5 32 3.5 Z  M 12.387 11.5 C 7.61 16.184 4.539 22.575 4.09 29.707 L 4.17 29.775 C 4.817 23.02 7.82 16.979 12.387 12.5 L 18 12.5 L 20 13.832 L 20 12.832 L 18 11.5 L 12.387 11.5 Z  M 46 11.898 L 44 14.699 L 44 15.699 L 46 12.898 L 46.934 12.898 L 52.012 12.898 C 56.839 17.827 59.85 24.535 59.986 31.977 C 59.989 31.817 60 31.66 60 31.5 C 60 23.849 56.952 16.943 52.012 11.898 L 46.934 11.898 L 46 11.898 Z  M 18 17.473 L 18 18.473 L 22.539 18.527 L 24 20.367 L 24 19.367 L 22.539 17.527 L 18 17.473 Z  M 48 17.559 L 46.934 18.5 L 42 18.5 L 42 19.5 L 46.934 19.5 L 48 18.559 L 48 17.559 Z  M 14 19.367 L 14 20.367 L 16.133 22.5 L 18 22.5 L 18 21.5 L 16.133 21.5 L 14 19.367 Z  M 40 20.5 L 40 21.5 L 42 21.5 L 42 20.5 L 40 20.5 Z  M 36 23.5 L 36 24.5 L 40 24.5 L 40 23.5 L 36 23.5 Z  M 47 26.5 L 47 26.898 L 47.645 27.5 L 48 27.5 L 48 26.832 L 47.645 26.5 L 47 26.5 Z  M 37.934 28.5 L 34 32.434 L 34 33.434 L 37.934 29.5 L 45.066 29.5 L 46 30.5 L 51.602 30.5 L 51.602 29.5 L 46 29.5 L 45.066 28.5 L 37.934 28.5 Z  M 51.602 29.5 L 52.586 30.5 L 53.465 30.5 L 54 29.699 L 54 28.699 L 53.465 29.5 L 51.602 29.5 Z  M 51.602 31.5 L 51.602 32.5 L 56.266 37.168 L 56.266 36.168 L 51.602 31.5 Z  M 12.563 33.268 L 12 33.5 L 14 36.234 L 14 35.234 L 12.563 33.268 Z  M 16.133 37.5 L 14 39.367 L 14 40.367 L 16.133 38.5 L 21.734 38.5 L 23.602 40.5 L 27.332 40.5 L 30 42.234 L 30 41.234 L 27.332 39.5 L 23.602 39.5 L 21.734 37.5 L 16.133 37.5 Z  M 18.023 48.43 L 17.988 55.738 C 17.99 55.739 17.991 55.74 17.992 55.74 L 18.027 48.434 L 18.023 48.43 Z " fill="rgb(255,255,255)"/></g></g></g></svg>