<?xml version="1.0" encoding="UTF-8" standalone="no"?>
<svg
   xmlns:dc="http://purl.org/dc/elements/1.1/"
   xmlns:cc="http://creativecommons.org/ns#"
   xmlns:rdf="http://www.w3.org/1999/02/22-rdf-syntax-ns#"
   xmlns:svg="http://www.w3.org/2000/svg"
   xmlns="http://www.w3.org/2000/svg"
   xmlns:sodipodi="http://sodipodi.sourceforge.net/DTD/sodipodi-0.dtd"
   xmlns:inkscape="http://www.inkscape.org/namespaces/inkscape"
   width="64"
   height="64"
   version="1"
   id="svg20"
   sodipodi:docname="applications-utilities.svg"
   inkscape:version="0.92.3 (2405546, 2018-03-11)">
  <metadata
     id="metadata26">
    <rdf:RDF>
      <cc:Work
         rdf:about="">
        <dc:format>image/svg+xml</dc:format>
        <dc:type
           rdf:resource="http://purl.org/dc/dcmitype/StillImage" />
      </cc:Work>
    </rdf:RDF>
  </metadata>
  <defs
     id="defs24" />
  <sodipodi:namedview
     pagecolor="#ffffff"
     bordercolor="#666666"
     borderopacity="1"
     objecttolerance="10"
     gridtolerance="10"
     guidetolerance="10"
     inkscape:pageopacity="0"
     inkscape:pageshadow="2"
     inkscape:window-width="855"
     inkscape:window-height="480"
     id="namedview22"
     showgrid="false"
     inkscape:zoom="3.6875"
     inkscape:cx="32"
     inkscape:cy="32"
     inkscape:window-x="65"
     inkscape:window-y="32"
     inkscape:window-maximized="0"
     inkscape:current-layer="svg20" />
  <path
     style="opacity:0.2"
     d="m 6.8000005,8 c -1.5512,0 -2.8,1.238889 -2.8,2.777778 v 33.333334 11.11111 c 0,1.53889 1.2488,2.777778 2.8,2.777778 H 57.200001 C 58.7512,58 60,56.761112 60,55.222222 V 44.111112 10.777778 C 60,9.238889 58.7512,8 57.200001,8 Z"
     id="path2" />
  <path
     style="fill:#4f4f4f"
     d="m 6.8000005,7.0000004 c -1.5512,0 -2.8,1.2388888 -2.8,2.7777776 v 33.333334 11.11111 c 0,1.53889 1.2488,2.777778 2.8,2.777778 H 57.200001 C 58.7512,57 60,55.761112 60,54.222222 V 43.111112 9.777778 C 60,8.2388892 58.7512,7.0000004 57.200001,7.0000004 Z"
     id="path4" />
  <rect
     style="opacity:0.2;stroke:#000000;stroke-width:0;stroke-linejoin:round"
     width="56"
     height="3"
     x="4"
     y="32"
     id="rect6" />
  <rect
     style="opacity:0.2;stroke:#000000;stroke-width:0;stroke-linejoin:round"
     width="56"
     height="3"
     x="4"
     y="14"
     id="rect8" />
  <rect
     style="opacity:0.2;stroke:#000000;stroke-width:0;stroke-linejoin:round"
     width="56"
     height="3"
     x="4"
     y="26"
     id="rect10" />
  <path
     style="opacity:0.1;fill:#ffffff"
     d="M 6.8007812 7 C 5.2495813 7 4 8.238455 4 9.7773438 L 4 10.777344 C 4 9.2384548 5.2495813 8 6.8007812 8 L 57.199219 8 C 58.75042 8 60 9.2384548 60 10.777344 L 60 9.7773438 C 60 8.2384549 58.75042 7 57.199219 7 L 6.8007812 7 z"
     id="path12" />
  <rect
     style="opacity:0.2;stroke:#000000;stroke-width:0;stroke-linejoin:round"
     width="56"
     height="3"
     x="4"
     y="20"
     id="rect14" />
  <path
     style="fill:#00acc1;fill-opacity:1"
     d="M 13.799999,17 C 23.6,17 20.33171,36.900334 30.6,37 36.98542,37.06198 42.211766,29 48.799999,29 55.388235,29 60,36.166666 60,36.166666 v 6.944446 11.11111 C 60,55.761112 58.751199,57 57.2,57 H 6.799999 C 5.2488,57 4,55.761112 4,54.222222 V 27.833334 C 4,27.833334 6.07183,17 13.799999,17 Z"
     id="path16" />
  <path
     style="opacity:0.2;fill:#ffffff"
     d="m 13.800781,17 c 9.800001,0 6.530538,19.900334 16.798828,20 6.38542,0.06198 11.612939,-8 18.201172,-8 C 55.389017,29 60,36.166016 60,36.166016 v 1 C 60,37.166016 55.389017,30 48.800781,30 42.212548,30 36.985029,38.06198 30.599609,38 20.331319,37.90033 23.600782,18 13.800781,18 6.072612,18 4,28.833984 4,28.833984 v -1 C 4,27.833984 6.072612,17 13.800781,17 Z"
     id="path18" />
</svg>
