<?xml version="1.0" encoding="UTF-8" standalone="no"?><!-- Generator: Gravit.io --><svg xmlns="http://www.w3.org/2000/svg" xmlns:xlink="http://www.w3.org/1999/xlink" style="isolation:isolate" viewBox="0 0 64 64" width="64pt" height="64pt"><defs><clipPath id="_clipPath_dYfEuN07yK5YVoYYjDBqTzJWUnktTuk3"><rect width="64" height="64"/></clipPath></defs><g clip-path="url(#_clipPath_dYfEuN07yK5YVoYYjDBqTzJWUnktTuk3)"><g><g style="mix-blend-mode:normal;" opacity="0.2"><path d="M 52 39.5 L 52 39.5 C 52 28.462 43.038 19.5 32 19.5 L 32 19.5 C 20.962 19.5 12 28.462 12 39.5 L 12 39.5 C 12 50.538 20.962 59.5 32 59.5 L 32 59.5 C 43.038 59.5 52 50.538 52 39.5 Z" style="stroke:none;fill:#000000;stroke-miterlimit:10;"/></g><g opacity="0.2"><path d=" M 32 5.5 C 19.4 5.5 18 16.794 18 29.5 L 24 29.5 C 23.852 16.794 26.731 11.5 32 11.5 C 37.27 11.5 40.148 16.794 40 29.5 L 46 29.5 C 46 16.794 44.6 5.5 32 5.5 Z " fill="rgb(0,0,0)"/></g><path d=" M 32 4.5 C 19.4 4.5 18 15.794 18 28.5 L 24 28.5 C 23.852 15.794 26.731 10.5 32 10.5 C 37.27 10.5 40.148 15.794 40 28.5 L 46 28.5 C 46 15.794 44.6 4.5 32 4.5 Z " fill="rgb(228,228,228)"/><g opacity="0.2"><path d=" M 32 4.5 C 19.4 4.5 18 15.794 18 28.5 L 18.008 28.5 C 18.087 16.21 19.733 5.5 32 5.5 C 44.267 5.5 45.913 16.21 45.993 28.5 L 46 28.5 C 46 15.794 44.6 4.5 32 4.5 Z " fill="rgb(255,255,255)"/></g><path d="M 52 38.5 L 52 38.5 C 52 27.462 43.038 18.5 32 18.5 L 32 18.5 C 20.962 18.5 12 27.462 12 38.5 L 12 38.5 C 12 49.538 20.962 58.5 32 58.5 L 32 58.5 C 43.038 58.5 52 49.538 52 38.5 Z" style="stroke:none;fill:#A0A0A0;stroke-miterlimit:10;"/><path d="M 46 38.5 L 46 38.5 C 46 30.773 39.727 24.5 32 24.5 L 32 24.5 C 24.273 24.5 18 30.773 18 38.5 L 18 38.5 C 18 46.227 24.273 52.5 32 52.5 L 32 52.5 C 39.727 52.5 46 46.227 46 38.5 Z" style="stroke:none;fill:#393939;stroke-miterlimit:10;"/></g><g><path d=" M 23 29 L 41 29 L 41 47 L 23 47 L 23 29 Z " fill="none"/><path d=" M 32.488 36.5 C 31.873 34.753 30.208 33.5 28.25 33.5 C 25.768 33.5 23.75 35.518 23.75 38 C 23.75 40.483 25.768 42.5 28.25 42.5 C 30.208 42.5 31.873 41.248 32.488 39.5 L 35.75 39.5 L 35.75 42.5 L 38.75 42.5 L 38.75 39.5 L 40.25 39.5 L 40.25 36.5 L 32.488 36.5 Z  M 28.25 39.5 C 27.425 39.5 26.75 38.825 26.75 38 C 26.75 37.175 27.425 36.5 28.25 36.5 C 29.075 36.5 29.75 37.175 29.75 38 C 29.75 38.825 29.075 39.5 28.25 39.5 Z " fill="rgb(255,87,34)"/></g></g></svg>