<?xml version="1.0" encoding="UTF-8" standalone="no"?><!-- Generator: Gravit.io --><svg xmlns="http://www.w3.org/2000/svg" xmlns:xlink="http://www.w3.org/1999/xlink" style="isolation:isolate" viewBox="0 0 64 64" width="64pt" height="64pt"><defs><clipPath id="_clipPath_RnQaDEIUyL7zZb6EwLJSFfUbUGX43WD6"><rect width="64" height="64"/></clipPath></defs><g clip-path="url(#_clipPath_RnQaDEIUyL7zZb6EwLJSFfUbUGX43WD6)"><g><g style="mix-blend-mode:normal;" opacity="0.2"><path d="M 8.563 8.563 L 55.438 8.563 C 56.99 8.563 58.25 9.823 58.25 11.375 L 58.25 50.75 C 58.25 52.302 56.99 53.563 55.438 53.563 L 8.563 53.563 C 7.01 53.563 5.75 52.302 5.75 50.75 L 5.75 11.375 C 5.75 9.823 7.01 8.563 8.563 8.563 Z" style="stroke:none;fill:#000000;stroke-miterlimit:10;"/></g><path d="M 8.563 7.625 L 55.438 7.625 C 56.99 7.625 58.25 8.885 58.25 10.438 L 58.25 49.812 C 58.25 51.365 56.99 52.625 55.438 52.625 L 8.563 52.625 C 7.01 52.625 5.75 51.365 5.75 49.812 L 5.75 10.438 C 5.75 8.885 7.01 7.625 8.563 7.625 Z" style="stroke:none;fill:#4AB3E4;stroke-miterlimit:10;"/><g opacity="0.2"><path d=" M 8.562 7.625 C 7.004 7.625 5.75 8.879 5.75 10.438 L 5.75 11.375 C 5.75 9.817 7.004 8.563 8.562 8.563 L 55.437 8.563 C 56.994 8.563 58.25 9.817 58.25 11.375 L 58.25 10.438 C 58.25 8.879 56.994 7.625 55.437 7.625 L 8.562 7.625 Z " fill="rgb(255,255,255)"/></g><g style="mix-blend-mode:normal;" opacity="0.2"><path d="M 36.875 13.25 L 60.875 13.25 C 61.496 13.25 62 13.754 62 14.375 L 62 30.875 C 62 31.496 61.496 32 60.875 32 L 36.875 32 C 36.254 32 35.75 31.496 35.75 30.875 L 35.75 14.375 C 35.75 13.754 36.254 13.25 36.875 13.25 Z" style="stroke:none;fill:#000000;stroke-miterlimit:10;"/></g><path d="M 36.875 12.313 L 60.875 12.313 C 61.496 12.313 62 12.817 62 13.438 L 62 29.938 C 62 30.558 61.496 31.063 60.875 31.063 L 36.875 31.063 C 36.254 31.063 35.75 30.558 35.75 29.938 L 35.75 13.438 C 35.75 12.817 36.254 12.313 36.875 12.313 Z" style="stroke:none;fill:#117D81;stroke-miterlimit:10;"/><path d=" M 58.07 21.767 C 57.444 21.767 56.817 22.052 56.362 22.507 L 56.248 22.45 C 55.337 22.109 54.426 21.824 53.515 21.653 L 53.515 21.653 C 53.515 19.148 51.466 17.099 48.961 17.099 C 46.455 17.099 44.406 19.148 44.406 21.653 L 44.292 21.653 C 43.381 21.824 42.527 22.109 41.673 22.45 L 41.559 22.507 C 40.705 21.539 39.282 21.483 38.314 22.337 C 37.403 23.191 37.289 24.614 38.143 25.525 C 38.997 26.436 40.421 26.55 41.331 25.696 C 41.958 25.126 42.185 24.272 42.015 23.475 L 42.015 23.475 C 42.812 23.191 43.609 22.906 44.463 22.735 C 45.032 25.183 47.48 26.72 49.928 26.094 C 51.579 25.696 52.889 24.386 53.287 22.735 C 54.141 22.906 54.939 23.134 55.736 23.475 L 55.736 23.475 C 55.451 24.671 56.191 25.923 57.387 26.208 C 58.582 26.493 59.835 25.753 60.119 24.557 C 60.404 23.361 59.778 22.109 58.582 21.824 C 58.411 21.767 58.241 21.767 58.07 21.767 Z  M 39.851 25.183 C 39.225 25.183 38.713 24.671 38.713 24.045 C 38.713 23.418 39.225 22.906 39.851 22.906 C 40.477 22.906 40.99 23.418 40.99 24.045 C 40.99 24.671 40.477 25.183 39.851 25.183 Z  M 48.961 25.183 C 47.082 25.183 45.545 23.646 45.545 21.767 C 45.545 19.888 47.082 18.351 48.961 18.351 C 50.839 18.351 52.377 19.888 52.377 21.767 C 52.377 23.646 50.839 25.183 48.961 25.183 Z  M 58.07 25.183 C 57.444 25.183 56.931 24.671 56.931 24.045 C 56.931 23.418 57.444 22.906 58.07 22.906 C 58.696 22.906 59.208 23.418 59.208 24.045 C 59.208 24.671 58.696 25.183 58.07 25.183 Z  M 50.669 21.767 C 50.669 22.735 49.928 23.475 48.961 23.475 C 47.993 23.475 47.253 22.735 47.253 21.767 C 47.253 20.799 47.993 20.059 48.961 20.059 C 49.928 20.059 50.669 20.799 50.669 21.767 Z " fill="rgb(255,255,255)"/><g style="mix-blend-mode:normal;" opacity="0.2"><path d="M 20 37.625 L 44 37.625 C 44.621 37.625 45.125 38.129 45.125 38.75 L 45.125 55.25 C 45.125 55.871 44.621 56.375 44 56.375 L 20 56.375 C 19.379 56.375 18.875 55.871 18.875 55.25 L 18.875 38.75 C 18.875 38.129 19.379 37.625 20 37.625 Z" style="stroke:none;fill:#000000;stroke-miterlimit:10;"/></g><path d="M 20 36.687 L 44 36.687 C 44.621 36.687 45.125 37.192 45.125 37.812 L 45.125 54.312 C 45.125 54.933 44.621 55.437 44 55.437 L 20 55.437 C 19.379 55.437 18.875 54.933 18.875 54.312 L 18.875 37.812 C 18.875 37.192 19.379 36.687 20 36.687 Z" style="stroke:none;fill:#FF3D00;stroke-miterlimit:10;"/><g style="mix-blend-mode:normal;" opacity="0.2"><path d="M 3.125 13.25 L 27.125 13.25 C 27.746 13.25 28.25 13.754 28.25 14.375 L 28.25 30.875 C 28.25 31.496 27.746 32 27.125 32 L 3.125 32 C 2.504 32 2 31.496 2 30.875 L 2 14.375 C 2 13.754 2.504 13.25 3.125 13.25 Z" style="stroke:none;fill:#000000;stroke-miterlimit:10;"/></g><path d="M 3.125 12.313 L 27.125 12.313 C 27.746 12.313 28.25 12.817 28.25 13.438 L 28.25 29.938 C 28.25 30.558 27.746 31.063 27.125 31.063 L 3.125 31.063 C 2.504 31.063 2 30.558 2 29.938 L 2 13.438 C 2 12.817 2.504 12.313 3.125 12.313 Z" style="stroke:none;fill:#E91E63;stroke-miterlimit:10;"/></g><path d=" M 19.055 20.613 L 18.92 20.864 C 19.096 20.335 18.994 19.758 19.021 19.256 L 18.974 19.243 C 18.926 17.987 17.841 16.651 16.877 16.203 C 16.043 15.816 14.76 15.748 14.17 16.04 C 14.252 15.965 14.577 15.938 14.475 15.884 C 13.546 15.972 13.756 16.203 13.044 16.386 C 12.847 16.576 13.627 16.237 13.2 16.495 C 12.82 16.583 12.644 16.413 12.08 16.997 C 12.128 17.078 12.44 16.759 12.182 17.078 C 11.646 17.017 10.499 18.299 10.255 18.72 L 10.384 18.747 C 10.174 19.27 9.896 19.602 9.862 19.914 C 9.807 20.688 9.556 22.092 9.916 22.526 L 9.875 22.886 L 10.031 23.191 L 9.95 23.198 C 10.343 24.44 10.371 23.225 10.893 24.514 C 10.818 24.487 10.737 24.46 10.628 24.297 C 10.615 24.426 10.791 24.766 10.995 25.03 L 10.913 25.125 C 11.022 25.335 11.13 25.383 11.205 25.458 C 10.778 25.22 11.592 26.224 11.68 26.353 L 11.748 26.238 C 11.734 26.401 11.863 26.618 12.108 26.923 L 12.311 26.916 C 12.399 27.079 12.705 27.378 12.888 27.391 L 12.766 27.554 C 13.234 27.69 12.99 27.751 13.566 27.954 L 13.451 27.751 C 13.743 28.002 13.831 28.226 14.245 28.416 C 14.821 28.619 14.896 28.538 15.48 28.708 C 14.984 28.708 14.401 28.708 14.007 28.558 C 11.32 27.832 8.878 24.677 9.041 21.434 C 9 20.776 9.109 19.955 9 19.792 C 9.149 19.29 9.326 18.679 9.685 17.953 C 9.658 17.906 9.746 18.096 9.93 17.791 C 10.038 17.546 10.126 17.282 10.269 17.044 L 10.337 17.024 C 10.411 16.61 11.307 15.972 11.592 15.653 L 11.592 15.775 C 12.175 15.226 13.22 14.859 13.804 14.602 C 13.648 14.771 14.15 14.581 14.509 14.561 L 14.177 14.751 C 14.604 14.642 14.584 14.798 15.025 14.731 C 14.869 14.751 14.686 14.798 14.713 14.839 C 15.201 14.893 15.283 14.69 15.737 14.839 L 15.704 14.703 C 16.341 14.934 16.47 14.893 17.156 15.26 C 17.4 15.267 17.427 15.111 17.787 15.26 C 17.854 15.368 17.773 15.389 18.221 15.66 C 18.268 15.64 18.133 15.511 18.038 15.409 C 18.92 15.891 19.903 16.915 20.195 18.014 C 19.917 17.512 20.168 18.279 20.073 18.238 C 20.195 18.571 20.297 18.917 20.365 19.276 C 20.283 18.985 20.1 18.272 19.781 17.818 C 19.761 18.109 19.374 17.614 19.585 18.266 C 19.734 18.496 19.618 18.028 19.815 18.435 C 19.815 18.632 19.89 18.829 19.937 19.08 C 19.87 19.066 19.788 18.802 19.734 18.869 C 19.802 19.209 19.917 19.358 19.958 19.385 C 19.937 19.439 19.876 19.331 19.876 19.548 C 19.903 20.05 20.019 19.84 20.073 19.86 C 20.012 20.111 19.795 20.396 19.903 20.823 L 19.768 20.444 C 19.734 20.803 19.842 20.871 19.68 21.312 C 19.802 20.905 19.788 20.566 19.673 20.735 C 19.734 21.292 19.232 21.719 19.279 22.079 L 19.137 21.882 C 18.75 22.445 19.13 22.187 18.865 22.601 C 18.96 22.445 18.818 22.547 18.94 22.357 C 18.859 22.364 18.567 22.716 18.302 22.92 C 17.257 23.755 16.002 23.87 14.808 23.415 L 14.801 23.415 C 14.808 23.388 14.801 23.354 14.72 23.3 C 13.695 22.52 13.091 21.855 13.288 20.308 C 13.458 20.192 13.498 19.548 13.858 19.324 C 14.075 18.842 14.727 18.401 15.425 18.388 C 16.138 18.347 16.742 18.768 17.047 19.161 C 16.491 18.652 15.595 18.496 14.821 18.869 C 14.041 19.229 13.573 20.091 13.627 20.952 C 13.668 20.905 13.695 20.939 13.709 20.83 C 13.688 22.506 15.514 23.734 16.83 23.117 L 16.85 23.151 C 17.379 23.001 17.312 22.886 17.658 22.642 C 17.63 22.703 17.427 22.845 17.549 22.845 C 17.719 22.805 18.248 22.309 18.513 22.079 C 18.628 21.821 18.445 21.923 18.614 21.611 L 18.818 21.509 C 18.933 21.183 19.055 21 19.055 20.613 Z " fill="rgb(255,255,255)"/><g><path d=" M 24 37 L 42 37 L 42 55 L 24 55 L 24 37 Z " fill="none"/><path d=" M 34.5 44.5 L 25.5 44.5 L 25.5 46 L 34.5 46 L 34.5 44.5 Z  M 34.5 41.5 L 25.5 41.5 L 25.5 43 L 34.5 43 L 34.5 41.5 Z  M 37.5 47.5 L 37.5 44.5 L 36 44.5 L 36 47.5 L 33 47.5 L 33 49 L 36 49 L 36 52 L 37.5 52 L 37.5 49 L 40.5 49 L 40.5 47.5 L 37.5 47.5 Z  M 25.5 49 L 31.5 49 L 31.5 47.5 L 25.5 47.5 L 25.5 49 Z " fill="rgb(255,255,255)"/></g></g></svg>