<?xml version="1.0" encoding="UTF-8" standalone="no"?><!-- Generator: Gravit.io --><svg xmlns="http://www.w3.org/2000/svg" xmlns:xlink="http://www.w3.org/1999/xlink" style="isolation:isolate" viewBox="0 0 64 64" width="64pt" height="64pt"><defs><clipPath id="_clipPath_jQ1c467ekT1X8fejKJSfTqZbM2yzv5Qc"><rect width="64" height="64"/></clipPath></defs><g clip-path="url(#_clipPath_jQ1c467ekT1X8fejKJSfTqZbM2yzv5Qc)"><g><g style="mix-blend-mode:normal;" opacity="0.2"><path d="M 8 8.5 L 56 8.5 C 58.208 8.5 60 10.292 60 12.5 L 60 52.5 C 60 54.708 58.208 56.5 56 56.5 L 8 56.5 C 5.792 56.5 4 54.708 4 52.5 L 4 12.5 C 4 10.292 5.792 8.5 8 8.5 Z" style="stroke:none;fill:#000000;stroke-miterlimit:10;"/></g><path d="M 8 7.5 L 56 7.5 C 58.208 7.5 60 9.292 60 11.5 L 60 51.5 C 60 53.708 58.208 55.5 56 55.5 L 8 55.5 C 5.792 55.5 4 53.708 4 51.5 L 4 11.5 C 4 9.292 5.792 7.5 8 7.5 Z" style="stroke:none;fill:#FF5722;stroke-miterlimit:10;"/><g opacity="0.2"><path d=" M 24 20.5 C 20.686 20.5 18 23.186 18 26.5 C 18 29.814 20.686 32.5 24 32.5 C 27.314 32.5 30 29.814 30 26.5 C 30 23.186 27.314 20.5 24 20.5 Z  M 44 20.5 C 41.791 20.5 40 22.291 40 24.5 C 40 26.71 41.79 28.5 44 28.5 C 46.21 28.5 48 26.71 48 24.5 C 48 22.29 46.21 20.5 44 20.5 Z  M 44 30.5 C 36 30.505 36 36.9 36 36.9 L 36 38.5 L 52 38.5 L 52 36.902 C 52 36.902 52 30.496 44 30.5 Z  M 24 35.5 C 12 35.507 12 43.834 12 43.834 L 12 45.5 L 36 45.5 L 36 43.834 C 36 43.834 36 35.494 24 35.5 Z " fill="rgb(0,0,0)"/></g><path d=" M 24 19.5 C 20.686 19.5 18 22.186 18 25.5 C 18 28.814 20.686 31.5 24 31.5 C 27.314 31.5 30 28.814 30 25.5 C 30 22.186 27.314 19.5 24 19.5 Z  M 44 19.5 C 41.791 19.5 40 21.291 40 23.5 C 40 25.71 41.79 27.5 44 27.5 C 46.21 27.5 48 25.71 48 23.5 C 48 21.29 46.21 19.5 44 19.5 Z  M 44 29.5 C 36 29.505 36 35.9 36 35.9 L 36 37.5 L 52 37.5 L 52 35.902 C 52 35.902 52 29.496 44 29.5 Z  M 24 34.5 C 12 34.507 12 42.834 12 42.834 L 12 44.5 L 36 44.5 L 36 42.834 C 36 42.834 36 34.494 24 34.5 Z " fill="rgb(255,255,255)"/><g opacity="0.2"><path d=" M 8 7.5 C 5.784 7.5 4 9.284 4 11.5 L 4 12.5 C 4 10.284 5.784 8.5 8 8.5 L 56 8.5 C 58.216 8.5 60 10.284 60 12.5 L 60 11.5 C 60 9.284 58.216 7.5 56 7.5 L 8 7.5 Z " fill="rgb(255,255,255)"/></g></g></g></svg>