<?xml version="1.0" encoding="UTF-8" standalone="no"?>
<svg
   xmlns:dc="http://purl.org/dc/elements/1.1/"
   xmlns:cc="http://creativecommons.org/ns#"
   xmlns:rdf="http://www.w3.org/1999/02/22-rdf-syntax-ns#"
   xmlns:svg="http://www.w3.org/2000/svg"
   xmlns="http://www.w3.org/2000/svg"
   xmlns:sodipodi="http://sodipodi.sourceforge.net/DTD/sodipodi-0.dtd"
   xmlns:inkscape="http://www.inkscape.org/namespaces/inkscape"
   width="64"
   height="64"
   version="1"
   id="svg26"
   sodipodi:docname="system-file-manager.svg"
   inkscape:version="0.92.3 (2405546, 2018-03-11)">
  <metadata
     id="metadata32">
    <rdf:RDF>
      <cc:Work
         rdf:about="">
        <dc:format>image/svg+xml</dc:format>
        <dc:type
           rdf:resource="http://purl.org/dc/dcmitype/StillImage" />
      </cc:Work>
    </rdf:RDF>
  </metadata>
  <defs
     id="defs30" />
  <sodipodi:namedview
     pagecolor="#ffffff"
     bordercolor="#666666"
     borderopacity="1"
     objecttolerance="10"
     gridtolerance="10"
     guidetolerance="10"
     inkscape:pageopacity="0"
     inkscape:pageshadow="2"
     inkscape:window-width="1301"
     inkscape:window-height="700"
     id="namedview28"
     showgrid="false"
     inkscape:zoom="7.734375"
     inkscape:cx="32"
     inkscape:cy="32"
     inkscape:window-x="65"
     inkscape:window-y="32"
     inkscape:window-maximized="1"
     inkscape:current-layer="svg26" />
  <rect
     style="fill:#ffb300;fill-opacity:1"
     width="48"
     height="34"
     x="8"
     y="3"
     rx="2.5"
     ry="2.5"
     id="rect2" />
  <rect
     style="opacity:0.1"
     width="48"
     height="34"
     x="8"
     y="8"
     rx="2.5"
     ry="2.5"
     id="rect4" />
  <rect
     style="fill:#ff5722;fill-opacity:1"
     width="48"
     height="34"
     x="8"
     y="9"
     rx="2.5"
     ry="2.5"
     id="rect6" />
  <rect
     style="opacity:0.1"
     width="48"
     height="34"
     x="8"
     y="14"
     rx="2.5"
     ry="2.5"
     id="rect8" />
  <rect
     style="fill:#d32f2f;fill-opacity:1"
     width="48"
     height="34"
     x="8"
     y="15"
     rx="2.5"
     ry="2.5"
     id="rect10" />
  <rect
     style="opacity:0.2"
     width="56"
     height="40"
     x="4"
     y="22"
     rx="3"
     ry="3"
     id="rect12" />
  <rect
     style="fill:#8e8e8e"
     width="56"
     height="40"
     x="4"
     y="21"
     rx="3"
     ry="3"
     id="rect14" />
  <rect
     style="opacity:0.2"
     width="20"
     height="6"
     x="22"
     y="38"
     rx="2"
     ry="2"
     id="rect16" />
  <rect
     style="fill:#ececec"
     width="20"
     height="6"
     x="22"
     y="37"
     rx="2"
     ry="2"
     id="rect18" />
  <path
     style="fill:#ffffff;opacity:0.1"
     d="M 10.5 3 C 9.115 3 8 4.115 8 5.5 L 8 6.5 C 8 5.115 9.115 4 10.5 4 L 53.5 4 C 54.885 4 56 5.115 56 6.5 L 56 5.5 C 56 4.115 54.885 3 53.5 3 L 10.5 3 z"
     id="path20" />
  <path
     style="fill:#ffffff;opacity:0.1"
     d="M 10.5,9 C 9.115,9 8,10.115 8,11.5 V 12.5 C 8,11.115 9.115,10 10.5,10 H 53.5 C 54.885,10 56,11.115 56,12.5 V 11.5 C 56,10.115 54.885,9 53.5,9 Z"
     id="path22" />
  <path
     style="fill:#ffffff;opacity:0.1"
     d="M 10.5,15 C 9.115,15 8,16.115 8,17.5 V 18.5 C 8,17.115 9.115,16 10.5,16 H 53.5 C 54.885,16 56,17.115 56,18.5 V 17.5 C 56,16.115 54.885,15 53.5,15 Z"
     id="path24" />
</svg>
