<svg width="72" height="64" viewBox="0 0 72 64" fill="none" xmlns="http://www.w3.org/2000/svg">
<g clip-path="url(#clip0)">
<path fill-rule="evenodd" clip-rule="evenodd" d="M8.85318 4.53447C3.34025 10.8413 0 19.0959 0 28.1306C0 47.9407 16.0593 64 35.8695 64C55.6796 64 71.739 47.9407 71.739 28.1306C71.739 19.086 68.3914 10.8233 62.8678 4.51385L54.8506 12.531C58.3415 16.7737 60.4376 22.2074 60.4376 28.1306C60.4376 41.6992 49.4381 52.6987 35.8695 52.6987C22.3009 52.6987 11.3013 41.6992 11.3013 28.1306C11.3013 22.2173 13.3905 16.7919 16.8709 12.5523L8.85318 4.53447Z" fill="url(#paint0_linear)"/>
<path d="M17.5716 4.45151C15.5656 2.06085 12.0014 1.74903 9.61077 3.75503C7.22011 5.76102 6.90829 9.32522 8.91429 11.7159L31.4265 38.5449C33.4325 40.9356 36.9967 41.2474 39.3874 39.2414C41.7781 37.2354 42.0899 33.6712 40.0839 31.2806L17.5716 4.45151Z" fill="#1A5998"/>
<path d="M54.0578 4.32864C56.0638 1.93798 59.628 1.62616 62.0186 3.63216C64.4093 5.63816 64.7211 9.20235 62.7151 11.593L40.1029 38.5411C38.0969 40.9318 34.5328 41.2436 32.1421 39.2376C29.7514 37.2316 29.4396 33.6674 31.4456 31.2767L54.0578 4.32864Z" fill="#2196F3"/>
</g>
<defs>
<linearGradient id="paint0_linear" x1="1.83116e-06" y1="4.54514" x2="71.739" y2="64" gradientUnits="userSpaceOnUse">
<stop stop-color="#2196F3"/>
<stop offset="1" stop-color="#1A5998"/>
</linearGradient>
<clipPath id="clip0">
<rect width="71.739" height="64" fill="white"/>
</clipPath>
</defs>
</svg>
