<?xml version="1.0" encoding="UTF-8" standalone="no"?><!-- Generator: Gravit.io --><svg xmlns="http://www.w3.org/2000/svg" xmlns:xlink="http://www.w3.org/1999/xlink" style="isolation:isolate" viewBox="0 0 64 64" width="64pt" height="64pt"><defs><clipPath id="_clipPath_7dbzP8tNeQJLQ5zRwVQwEuNqpA8PTsfy"><rect width="64" height="64"/></clipPath></defs><g clip-path="url(#_clipPath_7dbzP8tNeQJLQ5zRwVQwEuNqpA8PTsfy)"><g><g style="mix-blend-mode:normal;" opacity="0.2"><path d="M 62 32.5 L 62 32.5 C 62 15.943 48.557 2.5 32 2.5 L 32 2.5 C 15.443 2.5 2 15.943 2 32.5 L 2 32.5 C 2 49.057 15.443 62.5 32 62.5 L 32 62.5 C 48.557 62.5 62 49.057 62 32.5 Z" style="stroke:none;fill:#000000;stroke-miterlimit:10;"/></g><path d="M 62 31.5 L 62 31.5 C 62 14.943 48.557 1.5 32 1.5 L 32 1.5 C 15.443 1.5 2 14.943 2 31.5 L 2 31.5 C 2 48.057 15.443 61.5 32 61.5 L 32 61.5 C 48.557 61.5 62 48.057 62 31.5 Z" style="stroke:none;fill:#FF3D00;stroke-miterlimit:10;"/><g opacity="0.2"><path d=" M 31.999 12.5 C 25.59 12.5 20.099 18.091 20.099 24.5 L 25.9 24.5 C 25.9 21.31 28.809 18.301 31.999 18.301 C 35.189 18.301 38.1 20.912 38.1 24.102 C 38.1 25.697 37.462 27.144 36.389 28.188 L 32.792 31.844 C 30.704 33.961 29.101 36.861 29.101 40.051 L 29.101 40.5 L 29.101 41.5 L 34.999 41.5 L 34.999 40.5 L 34.941 40.5 C 35.135 36.885 36.677 35.235 38.592 33.293 L 41.202 30.625 C 42.855 28.972 43.901 26.654 43.901 24.102 C 43.901 17.693 38.408 12.5 31.999 12.5 Z  M 28.999 46.5 L 28.999 52.5 L 34.999 52.5 L 34.999 46.5 L 28.999 46.5 Z " fill="rgb(0,0,0)"/></g><path d=" M 31.999 11.5 C 25.59 11.5 20.099 17.091 20.099 23.5 L 25.9 23.5 C 25.9 20.31 28.809 17.301 31.999 17.301 C 35.189 17.301 38.1 19.912 38.1 23.102 C 38.1 24.697 37.462 26.144 36.389 27.188 L 32.792 30.844 C 30.704 32.961 29.101 35.861 29.101 39.051 L 29.101 39.5 L 29.101 40.5 L 34.999 40.5 L 34.999 39.5 L 34.941 39.5 C 35.135 35.885 36.677 34.235 38.592 32.293 L 41.202 29.625 C 42.855 27.972 43.901 25.654 43.901 23.102 C 43.901 16.693 38.408 11.5 31.999 11.5 Z  M 28.999 45.5 L 28.999 51.5 L 34.999 51.5 L 34.999 45.5 L 28.999 45.5 Z " fill="rgb(255,255,255)"/></g></g></svg>