<?xml version="1.0" encoding="UTF-8" standalone="no"?>
<svg
   xmlns:dc="http://purl.org/dc/elements/1.1/"
   xmlns:cc="http://creativecommons.org/ns#"
   xmlns:rdf="http://www.w3.org/1999/02/22-rdf-syntax-ns#"
   xmlns:svg="http://www.w3.org/2000/svg"
   xmlns="http://www.w3.org/2000/svg"
   xmlns:sodipodi="http://sodipodi.sourceforge.net/DTD/sodipodi-0.dtd"
   xmlns:inkscape="http://www.inkscape.org/namespaces/inkscape"
   width="64"
   height="64"
   version="1"
   id="svg18"
   sodipodi:docname="utilities-log-viewer.svg"
   inkscape:version="0.92.3 (2405546, 2018-03-11)">
  <metadata
     id="metadata24">
    <rdf:RDF>
      <cc:Work
         rdf:about="">
        <dc:format>image/svg+xml</dc:format>
        <dc:type
           rdf:resource="http://purl.org/dc/dcmitype/StillImage" />
      </cc:Work>
    </rdf:RDF>
  </metadata>
  <defs
     id="defs22" />
  <sodipodi:namedview
     pagecolor="#ffffff"
     bordercolor="#666666"
     borderopacity="1"
     objecttolerance="10"
     gridtolerance="10"
     guidetolerance="10"
     inkscape:pageopacity="0"
     inkscape:pageshadow="2"
     inkscape:window-width="1301"
     inkscape:window-height="700"
     id="namedview20"
     showgrid="false"
     inkscape:zoom="7.734375"
     inkscape:cx="32"
     inkscape:cy="32"
     inkscape:window-x="65"
     inkscape:window-y="32"
     inkscape:window-maximized="1"
     inkscape:current-layer="svg18" />
  <rect
     style="fill:#37474f;fill-opacity:1"
     width="44"
     height="56"
     x="-54"
     y="-60"
     rx="3"
     ry="3"
     transform="matrix(0,-1,-1,0,0,0)"
     id="rect2" />
  <rect
     style="opacity:0.2"
     width="36"
     height="48"
     x="-50"
     y="-56"
     rx="0"
     ry="0"
     transform="matrix(0,-1,-1,0,0,0)"
     id="rect4" />
  <path
     style="opacity:0.1;fill:#ffffff"
     d="M 7 10 C 5.338 10 4 11.338 4 13 L 4 14 C 4 12.338 5.338 11 7 11 L 57 11 C 58.662 11 60 12.338 60 14 L 60 13 C 60 11.338 58.662 10 57 10 L 7 10 z"
     id="path6" />
  <path
     style="opacity:0.2"
     d="m 4,51 0,1 c 0,1.662 1.338,3 3,3 l 50,0 c 1.662,0 3,-1.338 3,-3 l 0,-1 c 0,1.662 -1.338,3 -3,3 L 7,54 C 5.338,54 4,52.662 4,51 Z"
     id="path8" />
  <circle
     style="fill:#e53935;fill-opacity:1"
     cx="48"
     cy="46"
     r="16"
     id="circle10" />
  <rect
     style="fill:#ffffff"
     width="4"
     height="12"
     x="46"
     y="38"
     id="rect12" />
  <rect
     style="fill:#ffffff"
     width="4"
     height="4"
     x="46"
     y="54"
     id="rect14" />
  <path
     style="opacity:0.2"
     d="M 32.025391,46.5 A 16,16.003789 0 0 0 32,46.996211 16,16.003789 0 0 0 48,63 16,16.003789 0 0 0 64,46.996211 16,16.003789 0 0 0 63.982422,46.503907 16,16.003789 0 0 1 48,61.999763 16,16.003789 0 0 1 32.025391,46.5 Z"
     id="path16" />
</svg>
