<svg width="50" height="50" viewBox="0 0 50 50" fill="none" xmlns="http://www.w3.org/2000/svg">
<path d="M25 50C38.8071 50 50 38.8071 50 25C50 11.1929 38.8071 0 25 0C11.1929 0 0 11.1929 0 25C0 38.8071 11.1929 50 25 50Z" fill="#FF4500"/>
<path d="M41.6309 25.2383C41.6309 23.2117 39.992 21.6021 37.9947 21.6021C37.0513 21.6009 36.1437 21.9639 35.4615 22.6156C32.958 20.8271 29.5303 19.665 25.7154 19.516L27.3842 11.7072L32.8086 12.8693C32.8686 14.2404 34.0008 15.3434 35.4019 15.3434C36.8324 15.3434 37.9947 14.1812 37.9947 12.75C37.9947 11.3195 36.8326 10.1572 35.4019 10.1572C34.3887 10.1572 33.4941 10.7533 33.077 11.6178L27.027 10.3361C26.848 10.3061 26.6691 10.3361 26.5498 10.4256C26.4008 10.515 26.3115 10.6639 26.282 10.8428L24.4336 19.5455C20.5592 19.665 17.0719 20.8271 14.5387 22.6455C13.8564 21.9938 12.9488 21.6308 12.0053 21.6322C9.97852 21.6322 8.36914 23.2711 8.36914 25.2684C8.36914 26.7584 9.26309 28.01 10.5152 28.5768C10.4544 28.9412 10.4245 29.3101 10.4258 29.6795C10.4258 35.2822 16.9531 39.8428 25.0002 39.8428C33.0475 39.8428 39.5748 35.3123 39.5748 29.6795C39.5746 29.3101 39.5447 28.9413 39.4853 28.5768C40.7369 28.01 41.6309 26.7283 41.6309 25.2383V25.2383ZM16.6547 27.8311C16.6547 26.4006 17.8168 25.2383 19.248 25.2383C20.6785 25.2383 21.8408 26.4004 21.8408 27.8311C21.8408 29.2617 20.6787 30.4244 19.248 30.4244C17.817 30.4537 16.6547 29.2617 16.6547 27.8311ZM31.1697 34.716C29.3814 36.5045 25.9836 36.6238 25.0002 36.6238C23.9869 36.6238 20.5893 36.4744 18.8303 34.716C18.5625 34.4479 18.5625 34.0305 18.8303 33.7623C19.0986 33.4945 19.5158 33.4945 19.7842 33.7623C20.917 34.8951 23.3014 35.2822 25.0002 35.2822C26.6992 35.2822 29.1131 34.8949 30.2158 33.7623C30.4842 33.4945 30.9014 33.4945 31.1697 33.7623C31.408 34.0305 31.408 34.4479 31.1697 34.716ZM30.6926 30.4539C29.2619 30.4539 28.0998 29.2918 28.0998 27.8611C28.0998 26.4305 29.2619 25.2684 30.6926 25.2684C32.1236 25.2684 33.2857 26.4305 33.2857 27.8611C33.2857 29.2615 32.1236 30.4539 30.6926 30.4539Z" fill="white"/>
</svg>
