<?xml version="1.0" encoding="UTF-8" standalone="no"?><!-- Generator: Gravit.io --><svg xmlns="http://www.w3.org/2000/svg" xmlns:xlink="http://www.w3.org/1999/xlink" style="isolation:isolate" viewBox="0 0 64 64" width="64pt" height="64pt"><defs><clipPath id="_clipPath_N4RwOGJ2z9kD4SpigY7q3hKV9u3E2ZDs"><rect width="64" height="64"/></clipPath></defs><g clip-path="url(#_clipPath_N4RwOGJ2z9kD4SpigY7q3hKV9u3E2ZDs)"><g><g opacity="0.2"><path d=" M 30.6 4.5 C 27.497 4.5 25 6.997 25 10.1 L 25 12.725 C 22.577 13.584 20.332 14.881 18.377 16.551 L 16.102 15.238 C 13.415 13.687 10.002 14.602 8.451 17.289 L 7.051 19.711 C 5.5 22.398 6.415 25.81 9.102 27.361 L 11.367 28.67 C 11.128 29.933 11.005 31.215 11 32.5 C 11.005 33.785 11.128 35.067 11.367 36.33 L 9.102 37.639 C 6.415 39.19 5.5 42.602 7.051 45.289 L 8.451 47.711 C 10.002 50.398 13.415 51.313 16.102 49.762 L 18.361 48.457 C 20.322 50.124 22.572 51.416 25 52.27 L 25 54.9 C 25 58.003 27.497 60.5 30.6 60.5 L 33.4 60.5 C 36.503 60.5 39 58.003 39 54.9 L 39 52.26 C 41.422 51.405 43.667 50.114 45.623 48.449 L 47.898 49.762 C 50.585 51.313 53.998 50.398 55.549 47.711 L 56.949 45.289 C 58.5 42.602 57.585 39.19 54.898 37.639 L 52.633 36.33 C 52.872 35.067 52.995 33.785 53 32.5 C 52.995 31.215 52.872 29.933 52.633 28.67 L 54.898 27.361 C 57.585 25.81 58.5 22.398 56.949 19.711 L 55.549 17.289 C 53.998 14.602 50.585 13.687 47.898 15.238 L 45.639 16.543 C 43.678 14.875 41.428 13.582 39 12.729 L 39 10.1 C 39 6.997 36.503 4.5 33.4 4.5 L 30.6 4.5 Z " fill="rgb(0,0,0)"/></g><path d=" M 30.6 3.5 C 27.497 3.5 25 5.997 25 9.1 L 25 11.725 C 22.577 12.584 20.332 13.881 18.377 15.551 L 16.102 14.238 C 13.415 12.687 10.002 13.602 8.451 16.289 L 7.051 18.711 C 5.5 21.398 6.415 24.81 9.102 26.361 L 11.367 27.67 C 11.128 28.933 11.005 30.215 11 31.5 C 11.005 32.785 11.128 34.067 11.367 35.33 L 9.102 36.639 C 6.415 38.19 5.5 41.602 7.051 44.289 L 8.451 46.711 C 10.002 49.398 13.415 50.313 16.102 48.762 L 18.361 47.457 C 20.322 49.124 22.572 50.416 25 51.27 L 25 53.9 C 25 57.003 27.497 59.5 30.6 59.5 L 33.4 59.5 C 36.503 59.5 39 57.003 39 53.9 L 39 51.26 C 41.422 50.405 43.667 49.114 45.623 47.449 L 47.898 48.762 C 50.585 50.313 53.998 49.398 55.549 46.711 L 56.949 44.289 C 58.5 41.602 57.585 38.19 54.898 36.639 L 52.633 35.33 C 52.872 34.067 52.995 32.785 53 31.5 C 52.995 30.215 52.872 28.933 52.633 27.67 L 54.898 26.361 C 57.585 24.81 58.5 21.398 56.949 18.711 L 55.549 16.289 C 53.998 13.602 50.585 12.687 47.898 14.238 L 45.639 15.543 C 43.678 13.875 41.428 12.582 39 11.729 L 39 9.1 C 39 5.997 36.503 3.5 33.4 3.5 L 30.6 3.5 Z " fill="rgb(84,110,122)"/><g opacity="0.1"><path d=" M 30.6 3.5 C 27.497 3.5 25 5.997 25 9.1 L 25 10.1 C 25 6.997 27.497 4.5 30.6 4.5 L 33.4 4.5 C 36.503 4.5 39 6.997 39 10.1 L 39 9.1 C 39 5.997 36.503 3.5 33.4 3.5 L 30.6 3.5 Z  M 25 11.725 C 22.577 12.584 20.332 13.881 18.377 15.551 L 16.102 14.238 C 13.415 12.687 10.002 13.602 8.451 16.289 L 7.051 18.711 C 6.447 19.756 6.222 20.911 6.324 22.023 C 6.394 21.234 6.627 20.445 7.051 19.711 L 8.451 17.289 C 10.002 14.602 13.415 13.687 16.102 15.238 L 18.377 16.551 C 20.332 14.881 22.577 13.584 25 12.725 L 25 11.725 Z  M 39 11.729 L 39 12.729 C 41.428 13.582 43.678 14.875 45.639 16.543 L 47.898 15.238 C 50.585 13.687 53.998 14.602 55.549 17.289 L 56.949 19.711 C 57.373 20.445 57.606 21.234 57.676 22.023 C 57.778 20.911 57.553 19.756 56.949 18.711 L 55.549 16.289 C 53.998 13.602 50.585 12.687 47.898 14.238 L 45.639 15.543 C 43.678 13.875 41.428 12.582 39 11.729 L 39 11.729 Z  M 52.768 28.592 L 52.633 28.67 C 52.837 29.783 52.952 30.91 52.975 32.041 C 52.985 31.861 52.994 31.68 53 31.5 C 52.99 30.526 52.912 29.555 52.768 28.592 L 52.768 28.592 Z  M 11.238 28.596 C 11.092 29.557 11.012 30.528 11 31.5 C 11.007 31.653 11.015 31.806 11.025 31.959 C 11.053 30.855 11.167 29.756 11.367 28.67 L 11.238 28.596 Z  M 52.762 35.404 C 52.726 35.714 52.683 36.022 52.633 36.33 L 54.898 37.639 C 56.54 38.587 57.515 40.229 57.676 41.977 C 57.861 39.876 56.851 37.766 54.898 36.639 L 52.762 35.404 Z  M 11.232 35.408 L 9.102 36.639 C 7.149 37.766 6.139 39.876 6.324 41.977 C 6.485 40.229 7.46 38.586 9.102 37.639 L 11.367 36.33 C 11.315 36.024 11.271 35.716 11.232 35.408 L 11.232 35.408 Z " fill="rgb(255,255,255)"/></g><g opacity="0.2"><path d=" M 32 20.501 C 38.627 20.501 44 25.873 44 32.501 C 44 39.128 38.627 44.5 32 44.5 C 25.373 44.5 20.001 39.128 20.001 32.501 C 20.001 25.873 25.373 20.501 32 20.501 Z " fill="rgb(0,0,0)"/></g><path d=" M 32 19.501 C 38.627 19.501 44 24.874 44 31.501 C 44 38.128 38.627 43.501 32 43.501 C 25.373 43.501 20.001 38.128 20.001 31.501 C 20.001 24.874 25.373 19.501 32 19.501 Z " fill="rgb(255,255,255)"/></g><g><g opacity="0.2"><path d=" M 60.958 45.848 C 60.508 54.336 53.499 60.99 45 61 C 36.611 61 29.646 54.52 29.042 46.152 C 29.021 46.434 29.006 46.717 29 47 C 29 55.837 36.163 63 45 63 C 53.837 63 61 55.837 61 47 C 61 46.615 60.985 46.231 60.957 45.848 L 60.958 45.848 Z " fill="rgb(0,0,0)"/></g><circle vector-effect="non-scaling-stroke" cx="45" cy="46" r="16" fill="rgb(255,87,34)"/></g><g><path d=" M 32 34.5 L 56 34.5 L 56 58.5 L 32 58.5 L 32 34.5 Z " fill="none"/><path d=" M 50 50.58 C 49.24 50.58 48.56 50.88 48.04 51.35 L 40.91 47.2 C 40.96 46.97 41 46.74 41 46.5 C 41 46.26 40.96 46.03 40.91 45.8 L 47.96 41.69 C 48.5 42.19 49.21 42.5 50 42.5 C 51.66 42.5 53 41.16 53 39.5 C 53 37.84 51.66 36.5 50 36.5 C 48.34 36.5 47 37.84 47 39.5 C 47 39.74 47.04 39.97 47.09 40.2 L 40.04 44.31 C 39.5 43.81 38.79 43.5 38 43.5 C 36.34 43.5 35 44.84 35 46.5 C 35 48.16 36.34 49.5 38 49.5 C 38.79 49.5 39.5 49.19 40.04 48.69 L 47.16 52.85 C 47.11 53.06 47.08 53.28 47.08 53.5 C 47.08 55.11 48.39 56.42 50 56.42 C 51.61 56.42 52.92 55.11 52.92 53.5 C 52.92 51.89 51.61 50.58 50 50.58 Z " fill="rgb(255,255,255)"/></g></g></svg>