<?xml version="1.0" encoding="UTF-8" standalone="no"?><!-- Generator: Gravit.io --><svg xmlns="http://www.w3.org/2000/svg" xmlns:xlink="http://www.w3.org/1999/xlink" style="isolation:isolate" viewBox="0 0 64 64" width="64pt" height="64pt"><defs><clipPath id="_clipPath_NkdFrMR0M8hlSDuK5PevF0F45fo0KE64"><rect width="64" height="64"/></clipPath></defs><g clip-path="url(#_clipPath_NkdFrMR0M8hlSDuK5PevF0F45fo0KE64)"><g><g opacity="0.2"><path d=" M 32.082 4.5 C 27.02 4.507 22.426 7.703 20.322 12.68 C 15.053 12.317 9.993 14.554 7.16 18.5 C 4.396 22.984 4.948 28.506 8.561 32.5 C 5.953 36.578 5.421 41.891 7.16 46.5 C 10.076 51.292 15.282 53.594 20.324 52.322 C 22.428 57.298 27.021 60.492 32.082 60.5 C 37.145 60.494 41.74 57.299 43.845 52.322 C 49.328 53.037 54.469 50.762 57.006 46.5 C 59.621 42.095 58.879 36.631 55.61 32.496 C 55.897 32.134 56.169 31.756 56.422 31.363 C 56.423 31.362 56.424 31.361 56.424 31.359 C 56.67 30.979 56.899 30.585 57.11 30.18 C 57.113 30.173 57.115 30.167 57.118 30.16 C 57.31 29.784 57.486 29.398 57.647 29.004 C 57.66 28.973 57.672 28.943 57.684 28.912 C 57.824 28.547 57.951 28.176 58.063 27.799 C 58.083 27.734 58.103 27.669 58.122 27.604 C 58.213 27.26 58.292 26.913 58.36 26.563 C 58.378 26.471 58.395 26.379 58.411 26.287 C 58.461 25.958 58.501 25.627 58.53 25.295 C 58.54 25.188 58.548 25.081 58.556 24.975 C 58.569 24.656 58.573 24.338 58.567 24.02 C 58.565 23.904 58.561 23.788 58.556 23.672 C 58.535 23.373 58.507 23.076 58.47 22.779 C 58.453 22.646 58.434 22.512 58.413 22.379 C 58.362 22.1 58.303 21.823 58.237 21.549 C 58.202 21.403 58.164 21.258 58.124 21.113 C 58.05 20.87 57.97 20.629 57.884 20.391 C 57.822 20.221 57.758 20.052 57.69 19.885 C 57.6 19.677 57.505 19.472 57.405 19.27 C 57.279 19.008 57.146 18.752 57.006 18.5 C 56.814 18.189 56.611 17.888 56.397 17.596 C 56.273 17.432 56.145 17.271 56.014 17.113 C 55.875 16.941 55.732 16.772 55.586 16.607 C 55.448 16.463 55.308 16.321 55.164 16.184 C 55.001 16.02 54.833 15.861 54.662 15.707 C 54.508 15.576 54.351 15.449 54.191 15.326 C 54.015 15.184 53.835 15.047 53.652 14.916 C 53.469 14.791 53.282 14.671 53.093 14.557 C 52.914 14.442 52.732 14.333 52.548 14.229 C 52.343 14.117 52.134 14.011 51.923 13.912 C 51.739 13.82 51.553 13.733 51.364 13.65 C 51.147 13.559 50.928 13.474 50.706 13.396 C 50.503 13.319 50.297 13.247 50.091 13.182 C 49.871 13.114 49.649 13.054 49.426 13 C 49.214 12.942 48.999 12.89 48.784 12.844 C 48.556 12.798 48.326 12.759 48.096 12.727 C 47.868 12.687 47.64 12.654 47.41 12.629 C 47.021 12.579 46.63 12.55 46.238 12.541 C 45.439 12.501 44.638 12.547 43.845 12.678 C 41.74 7.701 37.145 4.506 32.082 4.5 Z " fill="rgb(0,0,0)"/></g><ellipse vector-effect="non-scaling-stroke" cx="32.08492440802078" cy="31.5" rx="23.016999999999996" ry="22.4" fill="rgb(39,141,242)"/><path d=" M 38.071 13.588 C 44.947 9.725 53.43 11.478 57.003 17.5 C 60.576 23.523 57.895 31.549 51.019 35.412 C 44.143 39.276 35.66 37.523 32.087 31.5 C 28.514 25.478 31.195 17.451 38.071 13.588 Z " fill="rgb(52,224,196)"/><ellipse vector-effect="non-scaling-stroke" cx="32.08492440802077" cy="45.5" rx="12.946999999999996" ry="14.000000000000002" fill="rgb(255,193,7)"/><path d=" M 13.154 27.588 C 20.03 23.725 28.513 25.478 32.086 31.501 C 35.659 37.523 32.977 45.549 26.102 49.413 C 19.226 53.276 10.743 51.523 7.17 45.5 C 3.597 39.478 6.278 31.452 13.154 27.588 Z " fill="rgb(251,131,0)"/><path d=" M 26.101 13.589 C 19.225 9.726 10.742 11.479 7.169 17.501 C 3.596 23.524 6.278 31.55 13.153 35.413 C 20.029 39.277 28.512 37.523 32.085 31.501 C 35.658 25.478 32.977 17.452 26.101 13.589 Z " fill="rgb(250,62,48)"/><path d=" M 32.085 3.5 C 24.935 3.5 19.138 9.768 19.138 17.5 C 19.138 25.232 24.935 31.5 32.085 31.5 C 29.742 24.702 32.323 16.979 38.07 13.587 C 39.834 12.438 41.814 11.784 43.844 11.679 C 41.74 6.702 37.146 3.507 32.085 3.5 Z  M 32.085 31.5 C 37.694 31.496 42.662 27.587 44.392 21.818 C 43.989 23.151 43.402 24.411 42.653 25.555 C 38.283 25.991 34.386 28.183 32.085 31.5 Z  M 44.392 21.818 C 44.513 21.411 44.617 20.999 44.704 20.582 C 44.617 20.999 44.513 21.411 44.392 21.818 L 44.392 21.818 Z  M 43.996 12.05 C 44.159 12.468 44.303 12.894 44.428 13.327 C 44.303 12.894 44.159 12.468 43.996 12.05 L 43.996 12.05 Z  M 44.448 13.385 C 44.55 13.75 44.638 14.119 44.712 14.492 C 44.638 14.119 44.55 13.75 44.448 13.385 Z  M 44.785 14.834 C 44.836 15.13 44.879 15.429 44.912 15.728 C 44.879 15.429 44.836 15.13 44.785 14.834 L 44.785 14.834 Z  M 44.974 16.286 C 45.009 16.69 45.029 17.095 45.033 17.5 C 45.029 17.095 45.009 16.69 44.974 16.286 L 44.974 16.286 Z  M 45.004 18.118 C 44.995 18.425 44.976 18.731 44.948 19.037 C 44.976 18.731 44.995 18.425 45.004 18.118 L 45.004 18.118 Z  M 44.903 19.359 C 44.86 19.723 44.804 20.086 44.735 20.445 C 44.804 20.086 44.86 19.723 44.903 19.359 L 44.903 19.359 Z " fill="rgb(165,68,201)"/><path d=" M 42.852 25.542 C 38.251 25.668 34.222 27.898 32.085 31.5 C 39.236 31.5 45.033 37.768 45.033 45.5 C 45.028 47.51 44.622 49.496 43.844 51.321 C 49.326 52.036 54.466 49.762 57.002 45.5 C 60.578 39.473 57.899 31.453 51.017 27.587 C 48.507 26.177 45.661 25.464 42.852 25.542 Z " fill="rgb(0,150,136)"/><path d=" M 46.237 11.542 C 43.392 11.163 40.514 11.885 38.071 13.588 C 32.324 16.98 29.744 24.702 32.086 31.499 C 34.223 27.898 38.252 25.668 42.852 25.542 C 45.661 25.464 48.507 26.177 51.017 27.587 C 52.867 28.626 54.41 29.968 55.613 31.488 C 58.214 27.41 58.742 22.103 57.003 17.5 C 54.538 13.593 50.493 11.354 46.237 11.542 Z  M 32.086 31.5 C 34.518 35.341 38.481 37.567 42.672 37.445 C 40.329 33.85 36.462 31.5 32.086 31.5 Z " fill="rgb(3,169,244)"/><path d=" M 32.086 31.499 M 32.086 31.5 C 34.358 36.027 38.264 37.988 42.672 37.445 C 40.329 33.85 36.462 31.5 32.086 31.5 Z " fill="rgb(255,193,7)"/><g opacity="0.2"><path d=" M 32.083 3.5 C 27.021 3.507 22.426 6.702 20.321 11.68 C 15.053 11.317 9.994 13.555 7.161 17.5 C 6.026 19.467 5.492 21.663 5.612 23.871 C 5.674 22.001 6.203 20.166 7.161 18.5 C 9.994 14.555 15.053 12.317 20.321 12.68 C 22.426 7.702 27.021 4.507 32.083 4.5 C 37.145 4.507 41.74 7.701 43.845 12.678 C 44.637 12.547 45.438 12.501 46.237 12.541 C 46.63 12.55 47.021 12.579 47.411 12.629 C 47.64 12.654 47.869 12.687 48.097 12.727 C 48.327 12.759 48.556 12.798 48.784 12.844 C 49 12.89 49.214 12.942 49.427 13 C 49.65 13.054 49.871 13.114 50.091 13.182 C 50.298 13.247 50.503 13.319 50.706 13.396 C 50.928 13.474 51.147 13.559 51.364 13.65 C 51.552 13.733 51.739 13.82 51.923 13.912 C 52.134 14.011 52.342 14.117 52.548 14.229 C 52.732 14.333 52.914 14.442 53.093 14.557 C 53.282 14.671 53.468 14.791 53.651 14.916 C 53.834 15.047 54.014 15.184 54.19 15.326 C 54.351 15.449 54.508 15.576 54.663 15.707 C 54.834 15.861 55.001 16.02 55.165 16.184 C 55.308 16.321 55.449 16.463 55.587 16.607 C 55.733 16.772 55.876 16.941 56.015 17.113 C 56.145 17.271 56.273 17.432 56.397 17.596 C 56.611 17.888 56.814 18.189 57.007 18.5 C 57.147 18.752 57.28 19.008 57.405 19.27 C 57.505 19.472 57.6 19.677 57.69 19.885 C 57.758 20.052 57.822 20.221 57.884 20.391 C 57.97 20.629 58.05 20.87 58.124 21.113 C 58.164 21.258 58.202 21.403 58.237 21.549 C 58.303 21.823 58.362 22.1 58.413 22.379 C 58.434 22.512 58.453 22.646 58.47 22.779 C 58.507 23.076 58.535 23.373 58.556 23.672 C 58.556 23.699 58.557 23.725 58.558 23.752 C 58.566 23.508 58.57 23.264 58.567 23.02 C 58.565 22.904 58.561 22.788 58.556 22.672 C 58.535 22.373 58.507 22.076 58.47 21.779 C 58.453 21.646 58.434 21.512 58.413 21.379 C 58.362 21.1 58.303 20.823 58.237 20.549 C 58.202 20.403 58.164 20.258 58.124 20.113 C 58.05 19.87 57.97 19.629 57.884 19.391 C 57.822 19.221 57.758 19.052 57.69 18.885 C 57.6 18.677 57.505 18.472 57.405 18.27 C 57.28 18.008 57.147 17.752 57.007 17.5 C 56.814 17.189 56.611 16.888 56.397 16.596 C 56.273 16.432 56.145 16.271 56.015 16.113 C 55.876 15.941 55.733 15.772 55.587 15.607 C 55.449 15.463 55.308 15.321 55.165 15.184 C 55.001 15.02 54.834 14.861 54.663 14.707 C 54.508 14.576 54.351 14.449 54.19 14.326 C 54.014 14.184 53.834 14.047 53.651 13.916 C 53.468 13.791 53.282 13.671 53.093 13.557 C 52.914 13.442 52.732 13.333 52.548 13.229 C 52.342 13.117 52.134 13.011 51.923 12.912 C 51.739 12.82 51.552 12.733 51.364 12.65 C 51.147 12.559 50.928 12.474 50.706 12.396 C 50.503 12.319 50.298 12.247 50.091 12.182 C 49.871 12.114 49.65 12.054 49.427 12 C 49.214 11.942 49 11.89 48.784 11.844 C 48.556 11.798 48.327 11.759 48.097 11.727 C 47.869 11.687 47.64 11.654 47.411 11.629 C 47.021 11.579 46.63 11.55 46.237 11.541 C 45.438 11.501 44.637 11.547 43.845 11.678 C 41.74 6.701 37.145 3.507 32.083 3.5 Z  M 55.974 31.99 C 55.856 32.162 55.735 32.331 55.61 32.496 C 57.43 34.797 58.464 37.51 58.575 40.223 C 58.7 37.373 57.773 34.472 55.974 31.99 Z  M 8.192 32.012 C 6.585 34.405 5.681 37.303 5.608 40.299 C 5.875 37.426 6.904 34.708 8.562 32.5 C 8.434 32.34 8.311 32.177 8.192 32.012 L 8.192 32.012 Z " fill="rgb(255,255,255)"/></g></g></g></svg>