<?xml version="1.0" encoding="UTF-8" standalone="no"?><!-- Generator: Gravit.io --><svg xmlns="http://www.w3.org/2000/svg" xmlns:xlink="http://www.w3.org/1999/xlink" style="isolation:isolate" viewBox="0 0 64 64" width="64pt" height="64pt"><defs><clipPath id="_clipPath_GWb4CwTrLvlT3PFUcmEiBH9MuNBeOCjF"><rect width="64" height="64"/></clipPath></defs><g clip-path="url(#_clipPath_GWb4CwTrLvlT3PFUcmEiBH9MuNBeOCjF)"><g><g opacity="0.2"><path d=" M 42 3.5 L 36 9.5 L 28 9.5 L 28 11.5 L 36 11.5 L 42 5.5 L 48 11.5 L 56 11.5 L 56 9.5 L 48 9.5 L 42 3.5 Z  M 28 17.5 L 22 23.5 L 23 24.5 L 28 19.5 L 28 17.5 Z  M 56 17.5 L 56 19.5 L 61 24.5 L 62 23.5 L 56 17.5 Z " fill="rgb(255,255,255)"/></g><g opacity="0.2"><path d=" M 58 36.607 C 58 44.094 55.061 50.895 50.274 55.919 C 45.174 61.271 36.696 55.928 28.72 55.928 C 20.621 55.928 14.605 61.168 9.493 55.671 C 4.844 50.673 2 43.972 2 36.607 C 2 21.143 14.536 8.607 30 8.607 C 45.464 8.607 58 21.143 58 36.607 Z " fill="rgb(13,13,8)"/></g><path d=" M 58 35.607 C 58 43.094 55.061 49.895 50.274 54.919 C 45.174 60.271 36.696 54.928 28.72 54.928 C 20.621 54.928 14.605 60.168 9.493 54.671 C 4.844 49.673 2 42.972 2 35.607 C 2 20.143 14.536 7.607 30 7.607 C 45.464 7.607 58 20.143 58 35.607 Z " fill="rgb(0,145,207)"/><g opacity="0.1"><path d=" M 30 7.605 C 14.536 7.605 2 20.141 2 35.605 C 2 35.72 2.011 35.832 2.018 35.945 C 2.369 20.787 14.757 8.605 30 8.605 C 45.243 8.605 57.631 20.787 57.982 35.945 C 57.989 35.832 58 35.72 58 35.605 C 58 20.141 45.464 7.605 30 7.605 Z " fill="rgb(255,255,255)"/></g><g opacity="0.2"><path d=" M 42 4.5 L 36 10.5 L 28 10.5 L 28 18.5 L 22 24.5 L 28 30.5 L 28 38.5 L 36 38.5 L 42 44.5 L 48 38.5 L 56 38.5 L 56 30.5 L 62 24.5 L 56 18.5 L 56 10.5 L 48 10.5 L 42 4.5 Z " fill="rgb(13,13,8)"/></g><path d=" M 42 3.5 L 36 9.5 L 28 9.5 L 28 17.5 L 22 23.5 L 28 29.5 L 28 37.5 L 36 37.5 L 42 43.5 L 48 37.5 L 56 37.5 L 56 29.5 L 62 23.5 L 56 17.5 L 56 9.5 L 48 9.5 L 42 3.5 Z " fill="rgb(255,138,71)"/><g opacity="0.2"><circle vector-effect="non-scaling-stroke" cx="42.000000000000014" cy="24.500000000000007" r="12" fill="rgb(13,13,8)"/></g><circle vector-effect="non-scaling-stroke" cx="42.000000000000014" cy="23.500000000000007" r="12" fill="rgb(255,204,66)"/><g opacity="0.2"><circle vector-effect="non-scaling-stroke" cx="30.571000000000005" cy="43.78600000000001" r="11.429000000000002" fill="rgb(0,0,0)"/></g><g opacity="0.2"><path d=" M 30 30.5 C 23.373 30.5 18 35.873 18 42.5 C 18.002 42.678 18.008 42.856 18.018 43.033 C 17.05 42.684 16.029 42.504 15 42.5 C 10.029 42.5 6 46.529 6 51.5 C 6 56.471 10.029 60.5 15 60.5 L 45 60.5 C 49.971 60.5 54 56.471 54 51.5 C 54 46.529 49.971 42.5 45 42.5 C 43.968 42.503 42.944 42.683 41.973 43.033 C 41.986 42.856 41.995 42.678 42 42.5 C 42 35.873 36.627 30.5 30 30.5 Z " fill="rgb(0,0,0)"/></g><circle vector-effect="non-scaling-stroke" cx="15.000000000000007" cy="50.50000000000002" r="9" fill="rgb(255,255,255)"/><circle vector-effect="non-scaling-stroke" cx="30.000000000000014" cy="41.50000000000001" r="12" fill="rgb(255,255,255)"/><circle vector-effect="non-scaling-stroke" cx="45" cy="50.50000000000002" r="9" fill="rgb(255,255,255)"/><rect x="15" y="47.5" width="30" height="12" transform="matrix(1,0,0,1,0,0)" fill="rgb(255,255,255)"/><g opacity="0.2"><path d=" M 42 11.5 C 35.373 11.5 30 16.873 30 23.5 C 30.005 23.635 30.012 23.77 30.021 23.904 C 30.339 17.519 35.607 12.504 42 12.5 C 48.427 12.508 53.707 17.578 53.975 24 C 53.987 23.834 53.995 23.667 54 23.5 C 54 16.873 48.627 11.5 42 11.5 Z " fill="rgb(255,255,255)"/></g><g opacity="0.2"><path d=" M 42 3.5 L 36 9.5 L 28 9.5 L 28 10.5 L 36 10.5 L 42 4.5 L 48 10.5 L 56 10.5 L 56 9.5 L 48 9.5 L 42 3.5 Z  M 28 17.5 L 22 23.5 L 22.5 24 L 28 18.5 L 28 17.5 Z  M 56 17.5 L 56 18.5 L 61.5 24 L 62 23.5 L 56 17.5 Z " fill="rgb(255,255,255)"/></g></g></g></svg>