<?xml version="1.0" encoding="UTF-8" standalone="no"?><!-- Generator: Gravit.io --><svg xmlns="http://www.w3.org/2000/svg" xmlns:xlink="http://www.w3.org/1999/xlink" style="isolation:isolate" viewBox="0 0 64 64" width="64pt" height="64pt"><defs><clipPath id="_clipPath_rSUX7obnCXry9u9MV1FUN4uOmWdxEAAc"><rect width="64" height="64"/></clipPath></defs><g clip-path="url(#_clipPath_rSUX7obnCXry9u9MV1FUN4uOmWdxEAAc)"><g><g opacity="0.2"><path d=" M 32 3 C 16.551 3 4 15.551 4 31 C 4 46.449 16.551 59 32 59 C 47.449 59 60 46.449 60 31 C 60 15.551 47.449 3 32 3 Z " fill="rgb(0,0,0)"/></g><path d=" M 32 2 C 16.551 2 4 14.551 4 30 C 4 45.449 16.551 58 32 58 C 47.449 58 60 45.449 60 30 C 60 14.551 47.449 2 32 2 Z " fill="rgb(79,79,79)"/><g opacity="0.1"><path d=" M 32 2 C 16.551 2 4 14.551 4 30 C 4 30.113 4.011 30.224 4.018 30.336 C 4.372 15.194 16.773 3 32 3 C 47.227 3 59.628 15.194 59.982 30.336 C 59.989 30.224 60 30.113 60 30 C 60 14.551 47.449 2 32 2 Z " fill="rgb(255,255,255)"/></g><g opacity="0.2"><path d=" M 32 9 C 19.861 9 10 18.861 10 31 C 10 43.139 19.861 53 32 53 C 44.139 53 54 43.139 54 31 C 54 18.861 44.139 9 32 9 Z " fill="rgb(0,0,0)"/></g><path d=" M 32 8 C 19.861 8 10 17.861 10 30 C 10 42.139 19.861 52 32 52 C 44.139 52 54 42.139 54 30 C 54 17.861 44.139 8 32 8 Z " fill="rgb(66,165,245)"/><g opacity="0.1"><path d=" M 32 8 C 19.861 8 10 17.861 10 30 C 10 30.114 10.012 30.225 10.018 30.338 C 10.369 18.505 20.083 9 32 9 C 43.917 9 53.631 18.505 53.982 30.338 C 53.988 30.225 54 30.114 54 30 C 54 17.861 44.139 8 32 8 Z " fill="rgb(255,255,255)"/></g><g opacity="0.2"><mask id="_mask_hR3g5YtrvwvqIZ3pM9DFPuHCMrNr9Ec3" x="-200%" y="-200%" width="400%" height="400%"><rect x="-200%" y="-200%" width="400%" height="400%" style="fill:white;"/><line x1="32" y1="31" x2="55" y2="8" fill="black" stroke="none"/></mask><line x1="32" y1="31" x2="55" y2="8" mask="url(#_mask_hR3g5YtrvwvqIZ3pM9DFPuHCMrNr9Ec3)" vector-effect="non-scaling-stroke" stroke-width="4" stroke="rgb(0,0,0)" stroke-linejoin="round" stroke-linecap="round" stroke-miterlimit="4"/></g><mask id="_mask_Ity13bu25HV9uMcbMgKh1uMti8WqNENB" x="-200%" y="-200%" width="400%" height="400%"><rect x="-200%" y="-200%" width="400%" height="400%" style="fill:white;"/><line x1="32" y1="30" x2="55" y2="7" fill="black" stroke="none"/></mask><line x1="32" y1="30" x2="55" y2="7" mask="url(#_mask_Ity13bu25HV9uMcbMgKh1uMti8WqNENB)" vector-effect="non-scaling-stroke" stroke-width="4" stroke="rgb(228,228,228)" stroke-linejoin="round" stroke-linecap="round" stroke-miterlimit="4"/><g opacity="0.2"><mask id="_mask_nDcEjy2KBLqnA9LSmEUeMbOY44um1F42" x="-200%" y="-200%" width="400%" height="400%"><rect x="-200%" y="-200%" width="400%" height="400%" style="fill:white;"/><line x1="19" y1="22" x2="32" y2="31" fill="black" stroke="none"/></mask><line x1="19" y1="22" x2="32" y2="31" mask="url(#_mask_nDcEjy2KBLqnA9LSmEUeMbOY44um1F42)" vector-effect="non-scaling-stroke" stroke-width="4" stroke="rgb(0,0,0)" stroke-linejoin="round" stroke-linecap="round" stroke-miterlimit="4"/></g><mask id="_mask_Ukgc8kXdmwcX176pmB7JcsA1ufQE1jWm" x="-200%" y="-200%" width="400%" height="400%"><rect x="-200%" y="-200%" width="400%" height="400%" style="fill:white;"/><line x1="19" y1="21" x2="32" y2="30" fill="black" stroke="none"/></mask><line x1="19" y1="21" x2="32" y2="30" mask="url(#_mask_Ukgc8kXdmwcX176pmB7JcsA1ufQE1jWm)" vector-effect="non-scaling-stroke" stroke-width="4" stroke="rgb(228,228,228)" stroke-linejoin="round" stroke-linecap="round" stroke-miterlimit="4"/><g opacity="0.2"><path d=" M 32 25 C 28.689 25 26 27.689 26 31 C 26 34.311 28.689 37 32 37 C 35.311 37 38 34.311 38 31 C 38 27.689 35.311 25 32 25 Z " fill="rgb(0,0,0)"/></g><path d=" M 32 24 C 28.689 24 26 26.689 26 30 C 26 33.311 28.689 36 32 36 C 35.311 36 38 33.311 38 30 C 38 26.689 35.311 24 32 24 Z " fill="rgb(79,79,79)"/></g></g></svg>