<svg width="62" height="50" viewBox="0 0 62 50" fill="none" xmlns="http://www.w3.org/2000/svg">
<path d="M61.244 5.89187C58.9904 6.89115 56.5689 7.56651 54.0273 7.87034C56.6218 6.31531 58.6139 3.85287 59.5519 0.9189C57.0855 2.3825 54.3871 3.4137 51.5732 3.96794C49.2811 1.52608 46.0158 0 42.4017 0C35.4624 0 29.8364 5.62584 29.8364 12.5646C29.8364 13.5495 29.9476 14.5084 30.1617 15.4282C19.7191 14.9041 10.4608 9.90191 4.2634 2.3C3.18206 4.15574 2.56244 6.31435 2.56244 8.61675C2.56244 12.9761 4.78086 16.8218 8.15215 19.0751C6.15682 19.0126 4.20538 18.4737 2.46077 17.5033C2.46005 17.556 2.46005 17.6086 2.46005 17.6615C2.46005 23.7493 6.79115 28.8278 12.539 29.9821C10.6887 30.4853 8.74792 30.5589 6.86483 30.1974C8.46364 35.1892 13.1041 38.8218 18.6022 38.9234C14.3019 42.2933 8.88397 44.3022 2.99737 44.3022C1.98301 44.3022 0.983014 44.2426 0 44.1266C5.56053 47.6916 12.1651 49.7718 19.2608 49.7718C42.3725 49.7718 55.0105 30.6256 55.0105 14.0218C55.0105 13.4768 54.9986 12.9349 54.9742 12.3962C57.434 10.6179 59.5572 8.41535 61.244 5.89187" fill="#55ACEE"/>
</svg>
