<?xml version="1.0" encoding="UTF-8" standalone="no"?><!-- Generator: Gravit.io --><svg xmlns="http://www.w3.org/2000/svg" xmlns:xlink="http://www.w3.org/1999/xlink" style="isolation:isolate" viewBox="0 0 64 64" width="64pt" height="64pt"><defs><clipPath id="_clipPath_umcRTHdVu7AqeWnkxNDAIqnv1ktXrsf6"><rect width="64" height="64"/></clipPath></defs><g clip-path="url(#_clipPath_umcRTHdVu7AqeWnkxNDAIqnv1ktXrsf6)"><g><g opacity="0.2"><path d=" M 4.146 31.595 C 4.134 31.929 4.095 32.257 4.095 32.595 C 4.095 48.107 16.583 60.595 32.095 60.595 C 47.607 60.595 60.095 48.107 60.095 32.595 C 60.095 32.258 60.056 31.93 60.044 31.595 C 59.516 46.637 47.268 58.595 32.094 58.595 C 16.92 58.595 4.672 46.637 4.144 31.595 L 4.146 31.595 Z " fill="rgb(0,0,0)"/></g><defs><linearGradient id="_lgradient_0" x1="0.0775935357142856" y1="0.07759353571428551" x2="0.9079506785714284" y2="0.9034863928571425"><stop offset="48.333333333333336%" style="stop-color:#FF5722"/><stop offset="48.333333333333336%" style="stop-color:#C62828"/></linearGradient></defs><path d="M 31.9 3.4 L 31.9 3.4 C 47.354 3.4 59.9 15.946 59.9 31.4 L 59.9 31.4 C 59.9 46.854 47.354 59.4 31.9 59.4 L 31.9 59.4 C 16.446 59.4 3.9 46.854 3.9 31.4 L 3.9 31.4 C 3.9 15.946 16.446 3.4 31.9 3.4 Z" style="stroke:none;fill:url(#_lgradient_0);stroke-miterlimit:10;"/><g opacity="0.2"><path d=" M 31.905 12.406 C 20.859 12.406 11.905 21.36 11.905 32.405 C 11.905 43.451 20.859 52.405 31.905 52.405 C 42.95 52.405 51.904 43.451 51.904 32.405 C 51.904 21.36 42.95 12.406 31.905 12.406 Z  M 30.034 16.394 C 30.251 16.371 30.525 16.407 30.745 16.394 C 30.771 16.498 30.59 16.872 30.342 17.414 C 28.762 20.866 28.669 24.908 30.135 27.07 C 30.401 27.461 30.643 27.834 30.643 27.882 C 30.643 27.93 30.357 27.984 30.034 27.984 C 29.274 27.984 28.554 27.522 27.085 26.359 C 26.432 25.842 25.585 25.409 25.257 25.343 C 24.74 25.24 24.604 25.285 23.936 25.952 C 23.315 26.574 23.124 26.911 23.124 27.48 C 23.124 29.636 25.685 31.346 30.444 32.355 C 36.906 33.724 38.496 34.952 38.674 38.35 C 38.898 42.612 36.632 45.824 31.663 48.311 C 31.07 48.608 30.693 48.727 30.444 48.823 C 30.334 48.813 30.245 48.833 30.135 48.823 C 30.093 48.691 30.034 48.386 30.034 47.807 C 30.034 45.544 29.144 43.212 27.799 41.909 C 27.439 41.559 26.43 40.82 25.565 40.284 C 24.7 39.748 23.826 39.128 23.632 38.862 C 23.309 38.422 23.286 38.152 23.534 37.339 C 23.985 35.853 24.521 35.02 25.565 34.081 C 26.113 33.589 26.663 33.181 26.784 33.171 C 26.905 33.161 26.086 32.911 24.854 32.659 C 23.623 32.407 21.817 31.879 20.886 31.542 C 19.182 30.926 16.883 29.631 16.007 28.694 C 15.97 28.655 15.937 28.628 15.905 28.593 C 17.161 23.59 20.685 19.491 25.358 17.515 C 26.336 17.102 27.345 16.819 28.409 16.601 C 28.939 16.493 29.487 16.45 30.034 16.394 L 30.034 16.394 Z  M 45.283 24.019 C 45.665 24.255 47.11 27.379 47.522 28.902 C 48.053 30.867 48.015 34.265 47.522 36.218 C 47.334 36.961 47.09 37.655 47.01 37.741 C 46.93 37.828 46.636 37.334 46.295 36.729 C 45.954 36.125 44.869 34.838 43.963 33.882 C 41.347 31.122 40.934 29.682 42.029 27.48 C 42.582 26.369 44.988 23.836 45.283 24.019 L 45.283 24.019 Z " fill="rgb(0,0,0)"/></g><path d=" M 31.905 11.405 C 20.859 11.405 11.905 20.359 11.905 31.405 C 11.905 42.45 20.859 51.404 31.905 51.404 C 42.95 51.404 51.904 42.45 51.904 31.405 C 51.904 20.359 42.95 11.405 31.905 11.405 Z  M 30.034 15.393 C 30.251 15.371 30.525 15.406 30.745 15.393 C 30.771 15.498 30.59 15.871 30.342 16.413 C 28.762 19.865 28.669 23.908 30.135 26.069 C 30.401 26.461 30.643 26.833 30.643 26.881 C 30.643 26.93 30.357 26.983 30.034 26.983 C 29.274 26.983 28.554 26.521 27.085 25.358 C 26.432 24.841 25.585 24.408 25.257 24.342 C 24.74 24.239 24.604 24.284 23.936 24.952 C 23.315 25.573 23.124 25.91 23.124 26.479 C 23.124 28.636 25.685 30.345 30.444 31.354 C 36.906 32.724 38.496 33.952 38.674 37.35 C 38.898 41.611 36.632 44.823 31.663 47.311 C 31.07 47.608 30.693 47.726 30.444 47.822 C 30.334 47.812 30.245 47.832 30.135 47.822 C 30.093 47.691 30.034 47.386 30.034 46.807 C 30.034 44.543 29.144 42.211 27.799 40.908 C 27.439 40.559 26.43 39.819 25.565 39.283 C 24.7 38.748 23.826 38.127 23.632 37.862 C 23.309 37.421 23.286 37.152 23.534 36.338 C 23.985 34.852 24.521 34.019 25.565 33.08 C 26.113 32.588 26.663 32.18 26.784 32.17 C 26.905 32.161 26.086 31.911 24.854 31.659 C 23.623 31.406 21.817 30.879 20.886 30.542 C 19.182 29.925 16.883 28.63 16.007 27.694 C 15.97 27.654 15.937 27.628 15.905 27.592 C 17.161 22.589 20.685 18.491 25.358 16.515 C 26.336 16.101 27.345 15.818 28.409 15.601 C 28.939 15.492 29.487 15.449 30.034 15.393 L 30.034 15.393 Z  M 45.283 23.018 C 45.665 23.254 47.11 26.379 47.522 27.901 C 48.053 29.866 48.015 33.265 47.522 35.217 C 47.334 35.96 47.09 36.654 47.01 36.741 C 46.93 36.827 46.636 36.334 46.295 35.729 C 45.954 35.124 44.869 33.837 43.963 32.881 C 41.347 30.121 40.934 28.682 42.029 26.479 C 42.582 25.368 44.988 22.836 45.283 23.018 Z " fill="rgb(255,255,255)"/><g opacity="0.2"><path d=" M 31.905 3.405 C 16.393 3.405 3.905 15.893 3.905 31.405 C 3.905 31.518 3.916 31.629 3.922 31.741 C 4.274 16.539 16.615 4.405 31.905 4.405 L 31.907 4.405 C 47.196 4.405 59.538 16.539 59.889 31.741 C 59.895 31.629 59.907 31.518 59.907 31.405 C 59.907 15.893 47.419 3.405 31.907 3.405 L 31.905 3.405 Z " fill="rgb(255,255,255)"/></g></g></g></svg>